<svg width="24" height="24" viewBox="0 0 24 24" fill="none" xmlns="http://www.w3.org/2000/svg">
<path d="M3 4V9.2C3 9.75228 3.44772 10.2 4 10.2H9.2C9.75228 10.2 10.2 9.75228 10.2 9.2V4C10.2 3.44772 9.75228 3 9.2 3H4C3.44772 3 3 3.44772 3 4Z" stroke="#333333" stroke-width="1.5"/>
<path d="M13.8 4V9.2C13.8 9.75228 14.2477 10.2 14.8 10.2H20C20.5523 10.2 21 9.75228 21 9.2V4C21 3.44772 20.5523 3 20 3H14.8C14.2477 3 13.8 3.44772 13.8 4Z" stroke="#333333" stroke-width="1.5"/>
<path d="M14.8 13.8H20C20.5523 13.8 21 14.2477 21 14.8V20C21 20.5523 20.5523 21 20 21H14.8C14.2477 21 13.8 20.5523 13.8 20V14.8C13.8 14.2477 14.2477 13.8 14.8 13.8Z" stroke="#333333" stroke-width="1.5"/>
<path d="M10.2 20V14.8C10.2 14.2477 9.75228 13.8 9.2 13.8H4C3.44772 13.8 3 14.2477 3 14.8V20C3 20.5523 3.44772 21 4 21H9.2C9.75228 21 10.2 20.5523 10.2 20Z" stroke="#333333" stroke-width="1.5"/>
</svg>
