<svg width="40.000000" height="40.000000" viewBox="0 0 40 40" fill="none" xmlns="http://www.w3.org/2000/svg" xmlns:xlink="http://www.w3.org/1999/xlink">
	<desc>
			Created with Pixso.
	</desc>
	<defs>
		<linearGradient id="paint_linear_2_3208_0" x1="0.000004" y1="-0.000011" x2="39.999992" y2="39.999996" gradientUnits="userSpaceOnUse">
			<stop stop-color="#08C8F9"/>
			<stop offset="1.000000" stop-color="#1A3EDD"/>
		</linearGradient>
	</defs>
	<rect id="Icon" rx="12.000000" width="40.000000" height="40.000000" fill="url(#paint_linear_2_3208_0)" fill-opacity="1.000000"/>
	<rect id="vuesax/bold/money" width="24.000000" height="24.000000" transform="translate(8.000000 8.000000)" fill="#FFFFFF" fill-opacity="0"/>
	<g opacity="0.000000">
		<path id="Vector" d="M8 8L32 8L32 32L8 32L8 8Z" fill="#FFFFFF" fill-opacity="1.000000" fill-rule="evenodd"/>
	</g>
	<path id="Vector" d="M25 11.5L15 11.5C12 11.5 10 13 10 16.5L10 23.5C10 27 12 28.5 15 28.5L25 28.5C28 28.5 30 27 30 23.5L30 16.5C30 13 28 11.5 25 11.5ZM14.25 22.5C14.25 22.91 13.9102 23.25 13.5 23.25C13.0898 23.25 12.75 22.91 12.75 22.5L12.75 17.5C12.75 17.09 13.0898 16.75 13.5 16.75C13.9102 16.75 14.25 17.09 14.25 17.5L14.25 22.5ZM20 23C18.3398 23 17 21.66 17 20C17 18.34 18.3398 17 20 17C21.6602 17 23 18.34 23 20C23 21.66 21.6602 23 20 23ZM27.25 22.5C27.25 22.91 26.9102 23.25 26.5 23.25C26.0898 23.25 25.75 22.91 25.75 22.5L25.75 17.5C25.75 17.09 26.0898 16.75 26.5 16.75C26.9102 16.75 27.25 17.09 27.25 17.5L27.25 22.5Z" fill="#FFFFFF" fill-opacity="1.000000" fill-rule="nonzero"/>
</svg>
