<svg width="24" height="24" viewBox="0 0 24 24" fill="none" xmlns="http://www.w3.org/2000/svg">
<path d="M16.75 22.2695H6.75C6.34 22.2695 6 21.9295 6 21.5195C6 21.1095 6.34 20.7695 6.75 20.7695H16.75C17.16 20.7695 17.5 21.1095 17.5 21.5195C17.5 21.9295 17.16 22.2695 16.75 22.2695Z" fill="#024DBE"/>
<path d="M20.2819 5.7925L16.2819 8.6525C15.7519 9.0325 14.9919 8.8025 14.7619 8.1925L12.8719 3.1525C12.5519 2.2825 11.3219 2.2825 11.0019 3.1525L9.10186 8.1825C8.87186 8.8025 8.12186 9.0325 7.59186 8.6425L3.59186 5.7825C2.79186 5.2225 1.73186 6.0125 2.06186 6.9425L6.22186 18.5925C6.36186 18.9925 6.74186 19.2525 7.16186 19.2525H16.6919C17.1119 19.2525 17.4919 18.9825 17.6319 18.5925L21.7919 6.9425C22.1319 6.0125 21.0719 5.2225 20.2819 5.7925ZM14.4319 15.0225H9.43189C9.02186 15.0225 8.68186 14.6825 8.68186 14.2725C8.68186 13.8625 9.02186 13.5225 9.43189 13.5225H14.4319C14.8419 13.5225 15.1819 13.8625 15.1819 14.2725C15.1819 14.6825 14.8419 15.0225 14.4319 15.0225Z" fill="url(#paint0_linear_1347_6)"/>
<defs>
<linearGradient id="paint0_linear_1347_6" x1="11.9286" y1="2.5" x2="11.9286" y2="19.2525" gradientUnits="userSpaceOnUse">
<stop stop-color="#5096FF"/>
<stop offset="1" stop-color="#024DBE"/>
</linearGradient>
</defs>
</svg>
