<svg width="40.000000" height="40.000000" viewBox="0 0 40 40" fill="none" xmlns="http://www.w3.org/2000/svg" xmlns:xlink="http://www.w3.org/1999/xlink">
	<desc>
			Created with Pixso.
	</desc>
	<defs>
		<linearGradient id="paint_linear_2_3223_0" x1="0.000004" y1="-0.000011" x2="39.999992" y2="39.999996" gradientUnits="userSpaceOnUse">
			<stop stop-color="#08C8F9"/>
			<stop offset="1.000000" stop-color="#1A3EDD"/>
		</linearGradient>
	</defs>
	<rect id="Icon" rx="12.000000" width="40.000000" height="40.000000" fill="url(#paint_linear_2_3223_0)" fill-opacity="1.000000"/>
	<rect id="vuesax/bold/crown" width="24.000000" height="24.000000" transform="translate(8.000000 8.000000)" fill="#FFFFFF" fill-opacity="0"/>
	<path id="Vector" d="M25 30L15 30C14.5898 30 14.25 29.66 14.25 29.25C14.25 28.84 14.5898 28.5 15 28.5L25 28.5C25.4102 28.5 25.75 28.84 25.75 29.25C25.75 29.66 25.4102 30 25 30Z" fill="#FFFFFF" fill-opacity="1.000000" fill-rule="nonzero"/>
	<path id="Vector" d="M28.3506 13.52L24.3506 16.38C23.8203 16.76 23.0605 16.53 22.8301 15.92L20.9404 10.88C20.6201 10.01 19.3906 10.01 19.0703 10.88L17.1699 15.91C16.9404 16.53 16.1904 16.76 15.6602 16.37L11.6602 13.51C10.8604 12.95 9.7998 13.74 10.1299 14.67L14.29 26.32C14.4307 26.72 14.8105 26.98 15.2305 26.98L24.7598 26.98C25.1807 26.98 25.5605 26.71 25.7002 26.32L29.8604 14.67C30.2002 13.74 29.1406 12.95 28.3506 13.52ZM22.5 22.75L17.5 22.75C17.0898 22.75 16.75 22.41 16.75 22C16.75 21.59 17.0898 21.25 17.5 21.25L22.5 21.25C22.9102 21.25 23.25 21.59 23.25 22C23.25 22.41 22.9102 22.75 22.5 22.75Z" fill="#FFFFFF" fill-opacity="1.000000" fill-rule="nonzero"/>
	<g opacity="0.000000">
		<path id="Vector" d="M32 32L8 32L8 8L32 8L32 32Z" fill="#FFFFFF" fill-opacity="1.000000" fill-rule="evenodd"/>
	</g>
</svg>
