<svg width="40.000000" height="40.000000" viewBox="0 0 40 40" fill="none" xmlns="http://www.w3.org/2000/svg" xmlns:xlink="http://www.w3.org/1999/xlink">
	<desc>
			Created with Pixso.
	</desc>
	<defs>
		<linearGradient id="paint_linear_2_3159_0" x1="0.000004" y1="-0.000011" x2="39.999992" y2="39.999996" gradientUnits="userSpaceOnUse">
			<stop stop-color="#08C8F9"/>
			<stop offset="1.000000" stop-color="#1A3EDD"/>
		</linearGradient>
	</defs>
	<rect id="Icon" rx="12.000000" width="40.000000" height="40.000000" fill="url(#paint_linear_2_3159_0)" fill-opacity="1.000000"/>
	<rect id="vuesax/bold/info-circle" width="24.000000" height="24.000000" transform="translate(8.000000 8.000000)" fill="#FFFFFF" fill-opacity="0"/>
	<path id="Vector" d="M20 10C14.4902 10 10 14.49 10 20C10 25.51 14.4902 30 20 30C25.5098 30 30 25.51 30 20C30 14.49 25.5098 10 20 10ZM19.25 16C19.25 15.59 19.5898 15.25 20 15.25C20.4102 15.25 20.75 15.59 20.75 16L20.75 21C20.75 21.41 20.4102 21.75 20 21.75C19.5898 21.75 19.25 21.41 19.25 21L19.25 16ZM20.9199 24.38C20.8701 24.51 20.7998 24.61 20.71 24.71C20.6104 24.8 20.5 24.87 20.3799 24.92C20.2598 24.97 20.1299 25 20 25C19.8701 25 19.7402 24.97 19.6201 24.92C19.5 24.87 19.3896 24.8 19.29 24.71C19.2002 24.61 19.1299 24.51 19.0801 24.38C19.0303 24.26 19 24.13 19 24C19 23.87 19.0303 23.74 19.0801 23.62C19.1299 23.5 19.2002 23.39 19.29 23.29C19.3896 23.2 19.5 23.13 19.6201 23.08C19.8604 22.98 20.1396 22.98 20.3799 23.08C20.5 23.13 20.6104 23.2 20.71 23.29C20.7998 23.39 20.8701 23.5 20.9199 23.62C20.9697 23.74 21 23.87 21 24C21 24.13 20.9697 24.26 20.9199 24.38Z" fill="#FFFFFF" fill-opacity="1.000000" fill-rule="nonzero"/>
	<g opacity="0.000000"/>
</svg>
