<svg width="24" height="24" viewBox="0 0 24 24" fill="none" xmlns="http://www.w3.org/2000/svg">
<rect width="24" height="24" fill="white"/>
<path d="M7.44617 16.6032L16.6386 7.4108M3.91064 20.1387V20.1387C5.27747 21.5056 7.49355 21.5056 8.86038 20.1387L10.9817 18.0174C12.3485 16.6506 12.3485 14.4345 10.9817 13.0677V13.0677C9.61487 11.7008 7.39879 11.7008 6.03196 13.0677L3.91064 15.189C2.5438 16.5558 2.5438 18.7719 3.91064 20.1387ZM13.103 10.9463V10.9463C11.7362 9.5795 11.7362 7.36342 13.103 5.99658L15.2243 3.87526C16.5912 2.50843 18.8073 2.50843 20.1741 3.87526V3.87526C21.5409 5.2421 21.5409 7.45818 20.1741 8.82501L18.0528 10.9463C16.6859 12.3132 14.4699 12.3132 13.103 10.9463Z" stroke="#333333" stroke-width="1.5" stroke-linecap="round"/>
</svg>
