<svg width="40.000000" height="40.000000" viewBox="0 0 40 40" fill="none" xmlns="http://www.w3.org/2000/svg" xmlns:xlink="http://www.w3.org/1999/xlink">
	<desc>
			Created with Pixso.
	</desc>
	<defs>
		<linearGradient id="paint_linear_2_3215_0" x1="0.000004" y1="-0.000011" x2="39.999992" y2="39.999996" gradientUnits="userSpaceOnUse">
			<stop stop-color="#08C8F9"/>
			<stop offset="1.000000" stop-color="#1A3EDD"/>
		</linearGradient>
	</defs>
	<rect id="Icon" rx="12.000000" width="40.000000" height="40.000000" fill="url(#paint_linear_2_3215_0)" fill-opacity="1.000000"/>
	<rect id="vuesax/bold/messages" width="24.000000" height="24.000000" transform="translate(8.000000 8.000000)" fill="#FFFFFF" fill-opacity="0"/>
	<g opacity="0.000000">
		<path id="Vector" d="M8 8L32 8L32 32L8 32L8 8Z" fill="#FFFFFF" fill-opacity="1.000000" fill-rule="evenodd"/>
	</g>
	<path id="Vector" d="M21.1904 14L14.79 14C14.5303 14 14.2803 14.01 14.04 14.04C11.3496 14.27 10 15.86 10 18.79L10 22.79C10 26.79 11.5996 27.58 14.79 27.58L15.1904 27.58C15.4102 27.58 15.7002 27.73 15.8301 27.9L17.0303 29.5C17.5596 30.21 18.4199 30.21 18.9502 29.5L20.1504 27.9C20.2998 27.7 20.54 27.58 20.79 27.58L21.1904 27.58C24.1201 27.58 25.71 26.24 25.9404 23.54C25.9697 23.3 25.9805 23.05 25.9805 22.79L25.9805 18.79C25.9805 15.6 24.3799 14 21.1904 14ZM14.5 22C13.9404 22 13.5 21.55 13.5 21C13.5 20.45 13.9502 20 14.5 20C15.0498 20 15.5 20.45 15.5 21C15.5 21.55 15.0498 22 14.5 22ZM17.9902 22C17.4297 22 16.9902 21.55 16.9902 21C16.9902 20.45 17.4404 20 17.9902 20C18.54 20 18.9902 20.45 18.9902 21C18.9902 21.55 18.5498 22 17.9902 22ZM21.4902 22C20.9297 22 20.4902 21.55 20.4902 21C20.4902 20.45 20.9404 20 21.4902 20C22.04 20 22.4902 20.45 22.4902 21C22.4902 21.55 22.04 22 21.4902 22Z" fill="#FFFFFF" fill-opacity="1.000000" fill-rule="nonzero"/>
	<path id="Vector" d="M29.9805 14.79L29.9805 18.79C29.9805 20.79 29.3604 22.15 28.1201 22.9C27.8203 23.08 27.4707 22.84 27.4707 22.49L27.4805 18.79C27.4805 14.79 25.1904 12.5 21.1904 12.5L15.1006 12.51C14.75 12.51 14.5098 12.16 14.6904 11.86C15.4404 10.62 16.7998 10 18.79 10L25.1904 10C28.3799 10 29.9805 11.6 29.9805 14.79Z" fill="#FFFFFF" fill-opacity="1.000000" fill-rule="nonzero"/>
</svg>
