<svg width="16" height="16" viewBox="0 0 16 16" fill="none" xmlns="http://www.w3.org/2000/svg">
<g clip-path="url(#clip0_85_81)">
<path d="M1.9881 3.0119L3 2C3.55228 1.44772 4.44772 1.44772 5 2L5.86699 2.86699C6.49274 3.49274 6.49274 4.50726 5.86699 5.13301C5.64371 5.35629 5.57043 5.69078 5.69234 5.98207C6.60568 8.16434 7.67287 9.18771 10.0072 10.2771C10.3025 10.4149 10.6518 10.3482 10.8822 10.1178C11.4995 9.50046 12.5005 9.50046 13.1178 10.1178L14 11C14.5523 11.5523 14.5523 12.4477 14 13L12.9999 14.0001C12.4006 14.5994 11.4844 14.7596 10.7309 14.3718C6.0393 11.9569 3.81746 9.66182 1.60728 5.26059C1.23063 4.51054 1.39462 3.60538 1.9881 3.0119Z" stroke="#333333" stroke-width="1.5" stroke-linejoin="bevel"/>
</g>
<defs>
<clipPath id="clip0_85_81">
<rect width="16" height="16" fill="white"/>
</clipPath>
</defs>
</svg>
