<svg width="40" height="40" viewBox="0 0 40 40" fill="none" xmlns="http://www.w3.org/2000/svg">
<g clip-path="url(#clip0_125_2)">
<path d="M28 0H12C5.37258 0 0 5.37258 0 12V28C0 34.6274 5.37258 40 12 40H28C34.6274 40 40 34.6274 40 28V12C40 5.37258 34.6274 0 28 0Z" fill="url(#paint0_linear_125_2)"/>
<path d="M27.6771 11.512C24.9199 12.6538 13.0977 17.5507 9.83119 18.8855C7.64043 19.7404 8.92281 20.5419 8.92281 20.5419C8.92281 20.5419 10.7928 21.1829 12.3957 21.6639C13.9986 22.1448 14.8536 21.6104 14.8536 21.6104L22.3872 16.5343C25.0587 14.7178 24.4176 16.2138 23.7765 16.8549C22.3872 18.2442 20.0898 20.4347 18.1663 22.198C17.3114 22.946 17.7389 23.5873 18.1129 23.9079C19.5022 25.0833 23.2956 27.4877 23.5095 27.6481C24.6383 28.4471 26.8585 29.5975 27.1962 27.1672L28.5321 18.7786C28.9595 15.9467 29.387 13.3285 29.4404 12.5805C29.6006 10.764 27.6771 11.512 27.6771 11.512Z" fill="white"/>
</g>
<defs>
<linearGradient id="paint0_linear_125_2" x1="3.65256e-06" y1="-1.06526e-05" x2="40" y2="40" gradientUnits="userSpaceOnUse">
<stop stop-color="#08C8F9"/>
<stop offset="1" stop-color="#1A3EDD"/>
</linearGradient>
<clipPath id="clip0_125_2">
<rect width="40" height="40" fill="white"/>
</clipPath>
</defs>
</svg>
