<svg width="84" height="28" viewBox="0 0 84 28" fill="none" xmlns="http://www.w3.org/2000/svg">
<g clip-path="url(#clip0_80_62)">
<path fill-rule="evenodd" clip-rule="evenodd" d="M14.6822 24.8697C14.1617 24.8662 13.6473 24.7869 13.1504 24.6315C12.6068 24.462 12.0813 24.2352 11.5803 23.9572C10.8976 23.6004 10.244 23.1843 9.62922 22.7149C9.0744 22.2732 8.55196 21.7924 8.06293 21.2754C7.39976 20.5991 6.78092 19.9091 6.27196 19.2727C5.70968 18.5984 5.22388 17.859 4.82396 17.0701L4.78874 16.9994V16.9974L4.78145 16.9798V16.9717L4.74271 16.8868L4.74079 16.8808L4.73674 16.8752L4.70011 16.7921L4.69603 16.7824V16.7784L4.66685 16.7173L4.65954 16.6976L4.65352 16.682L4.64777 16.6698V16.6678L4.61886 16.6029L4.61694 16.5952L4.60893 16.587L4.57429 16.5064L4.56839 16.4947L4.53569 16.412L4.53377 16.408L4.53185 16.4019L4.4659 16.2343V16.2324L4.46211 16.2228L4.43334 16.1454L4.43142 16.1379L4.42737 16.1299C4.41936 16.1062 4.41011 16.0804 4.40224 16.0567V16.0512L4.39621 16.0371C4.38666 16.0079 4.37894 15.986 4.37151 15.9642V15.9602L4.36547 15.9426L4.33629 15.8674L4.33082 15.8458L4.30766 15.7771L4.30359 15.7649L4.30167 15.7555C4.29187 15.7296 4.28638 15.706 4.28036 15.6863L4.27249 15.6645L4.25523 15.6034L4.25116 15.5918V15.5899L4.2478 15.5757L4.22996 15.5146L4.22646 15.5052L4.22455 15.4889C4.21668 15.4657 4.21066 15.446 4.20714 15.4258L4.1993 15.4026C4.19537 15.3824 4.18933 15.3612 4.184 15.3375L4.17796 15.3159V15.3097C4.17417 15.2942 4.16813 15.2724 4.16267 15.2487L4.1548 15.2189C4.15075 15.1991 4.14682 15.1797 4.14147 15.1558L4.13931 15.1422L4.1354 15.1266C4.13147 15.1069 4.1274 15.0871 4.12208 15.0674L4.118 15.0376C4.11608 15.024 4.11225 15.0099 4.10999 14.9943V14.9787L4.10467 14.9487V14.9446L4.09666 14.8992C4.09288 14.8856 4.09091 14.872 4.0888 14.8579L4.08137 14.813C4.07945 14.7988 4.07743 14.7851 4.07547 14.775C4.07355 14.7635 4.07154 14.7417 4.06749 14.724L4.0637 14.6922C4.06226 14.6726 4.05821 14.655 4.05612 14.6353L4.04811 14.6055V14.5999C4.04433 14.5783 4.04433 14.5606 4.04083 14.5424C4.04083 14.5328 4.03891 14.5227 4.03704 14.5131V14.5091C4.03488 14.4913 4.03296 14.4716 4.031 14.4541C4.031 14.4418 4.02908 14.4324 4.02908 14.4202V14.4183C4.02692 14.4027 4.025 14.3869 4.025 14.3713C4.025 14.3572 4.0215 14.3436 4.0215 14.33C4.0215 14.3157 4.01958 14.3021 4.01771 14.2885C4.01771 14.2723 4.01556 14.2568 4.01556 14.2413C4.01556 14.2254 4.01556 14.2154 4.01364 14.2038C4.01172 14.1916 4.01364 14.1721 4.01172 14.1562V14.1542C4.01172 14.1406 4.01172 14.1284 4.01172 14.115C4.01172 14.1007 4.01172 14.093 4.01172 14.083V14.0694C4.01172 14.0538 4.01172 14.0396 4.01172 14.026C4.01172 14.0104 4.01172 14.0024 4.01172 13.9907V13.9018C4.01172 13.8842 4.01172 13.8665 4.01172 13.8467C4.01172 13.8347 4.01172 13.8211 4.01172 13.809C4.01172 13.7974 4.01172 13.7776 4.01172 13.762C4.01172 13.7519 4.01172 13.7439 4.01172 13.7343V13.7205C4.01172 13.7005 4.01172 13.6828 4.01364 13.6652C4.01364 13.6556 4.01364 13.6454 4.01364 13.6338C4.01364 13.6177 4.01556 13.5999 4.01771 13.5782C4.01771 13.5687 4.01771 13.5586 4.01963 13.5491C4.01963 13.5294 4.02313 13.5112 4.0251 13.4915V13.4602C4.0251 13.4404 4.02701 13.423 4.02917 13.4032L4.0331 13.3735V13.3673C4.0331 13.3497 4.03718 13.332 4.039 13.3104C4.039 13.3022 4.039 13.2968 4.0425 13.2886V13.277C4.04442 13.2573 4.04644 13.2371 4.05051 13.2195L4.0543 13.1922C4.05622 13.1724 4.06032 13.1508 4.06228 13.1311L4.06566 13.1095V13.1055C4.06972 13.0857 4.07168 13.066 4.07561 13.0424L4.08151 13.0146C4.08501 12.9929 4.08894 12.9713 4.09302 12.9495L4.09681 12.9318V12.9221C4.10088 12.9005 4.10481 12.8767 4.10831 12.8551L4.11239 12.8354V12.8334C4.11814 12.8116 4.12222 12.7879 4.12754 12.7662V12.7581L4.12946 12.7445C4.13354 12.7228 4.13941 12.7012 4.14531 12.6753L4.1508 12.6558C4.15485 12.6341 4.16075 12.6102 4.16818 12.583L4.1701 12.571L4.17202 12.5633C4.18002 12.5377 4.18607 12.5119 4.1935 12.484L4.19743 12.4686C4.20527 12.4407 4.21076 12.4175 4.21874 12.3937L4.22268 12.3756C4.22857 12.354 4.23615 12.3265 4.24401 12.3009V12.2967L4.24794 12.2831C4.25734 12.2575 4.26535 12.2298 4.27264 12.2065L4.27671 12.1924C4.28455 12.1667 4.29397 12.1394 4.30378 12.1054L4.30594 12.1V12.0981C4.31519 12.0683 4.32502 12.039 4.33456 12.0111L4.33864 11.999C4.34847 11.9719 4.35772 11.9441 4.36782 11.9182L4.37175 11.9069C4.38311 11.8728 4.39294 11.8477 4.40249 11.8218L4.40627 11.8118C4.41581 11.7846 4.42761 11.7548 4.43897 11.7251L4.44113 11.7195C4.4529 11.6897 4.46441 11.6604 4.47774 11.6248L4.48153 11.6186C4.49361 11.5873 4.50498 11.5575 4.51831 11.5302L4.52224 11.5202C4.53415 11.4924 4.54552 11.4652 4.55885 11.4313L4.56489 11.4216C4.57472 11.396 4.58817 11.3662 4.60335 11.3309L4.6074 11.3232C4.62269 11.2854 4.63857 11.2541 4.65007 11.2264C5.42367 9.53103 6.58162 8.34982 7.70141 7.20824L7.72457 7.18448C8.37609 6.5202 8.98538 5.95234 9.58484 5.44959C10.2696 4.86984 11.0003 4.34534 11.77 3.88622C12.1974 3.62611 12.6556 3.4248 13.1335 3.28689C13.5431 3.17041 13.9665 3.11133 14.3901 3.11133C14.9625 3.11519 15.5293 3.21378 16.0703 3.40305C16.5886 3.58277 17.0897 3.80924 17.5672 4.07938C18.3312 4.49728 19.0637 4.97273 19.7599 5.50065C20.4158 5.99783 21.0346 6.54409 21.6127 7.13141C22.2157 7.75421 22.7672 8.42465 23.2622 9.14031C23.726 9.77726 24.1093 10.4713 24.4013 11.2067C24.5903 11.7215 24.7528 12.248 24.8845 12.7799C25.0003 13.2432 25.0661 13.7188 25.08 14.1956C25.0873 14.6631 25.0333 15.1301 24.9136 15.5836C24.7741 16.1001 24.5751 16.6013 24.3215 17.0701C23.9602 17.76 23.5384 18.4166 23.0592 19.0281C22.5835 19.6296 22.0726 20.201 21.5316 20.7415C20.9473 21.3366 20.3304 21.9008 19.6867 22.4289C19.012 22.9831 18.304 23.4937 17.5672 23.9573C16.7105 24.5345 15.7088 24.8499 14.6822 24.8697ZM9.95801 21.5889C10.0025 21.6207 10.0485 21.652 10.0951 21.6838C10.045 21.6484 10.0005 21.6187 9.95801 21.5889ZM9.14764 12.6341L9.12223 12.6875V12.693L9.10106 12.7425L9.09914 12.7487L9.0778 12.7975V12.8015L9.05661 12.8532V12.8551L9.03726 12.9082V12.9101L9.01789 12.9575V12.9652L9.00063 13.0106L8.99847 13.0166L8.98317 13.0619V13.0681C8.97728 13.0837 8.97334 13.0994 8.96788 13.115V13.1192C8.96198 13.1389 8.95596 13.1529 8.95217 13.1665L8.9505 13.1745L8.93661 13.2174L8.9347 13.2276C8.93132 13.2412 8.92741 13.2554 8.92333 13.2689V13.2791L8.91154 13.3205L8.89219 13.3321L8.89027 13.3421L8.88073 13.3754L8.87881 13.3851C8.87476 13.3992 8.87097 13.4129 8.86901 13.4269L8.86548 13.4366L8.85568 13.4861L8.8516 13.4996L8.8481 13.5233V13.5349L8.84024 13.5667V13.5728L8.83434 13.5926L8.82844 13.6178L8.827 13.6298V13.6437C8.82508 13.6557 8.82307 13.6673 8.82096 13.6793L8.81904 13.6929L8.81511 13.7262L8.81118 13.742C8.81118 13.752 8.80926 13.7637 8.80768 13.7757V13.7915C8.80768 13.8035 8.80576 13.8132 8.80375 13.8252V13.8546C8.80375 13.8627 8.80375 13.8682 8.80183 13.8763V13.9039C8.80183 13.9099 8.80183 13.9177 8.80183 13.9258C8.80183 13.9317 8.80183 13.9353 8.80183 13.9413C8.80183 13.9474 8.80183 13.961 8.79967 13.971C8.79967 13.9746 8.79967 13.9786 8.79967 13.9828V13.9908C8.79967 13.9983 8.79967 14.0084 8.79967 14.02C8.79967 14.03 8.79967 14.0341 8.79967 14.0417C8.79967 14.0497 8.79967 14.0579 8.79967 14.0655V14.0912C8.79967 14.0992 8.79967 14.1089 8.79967 14.119V14.1876C8.79967 14.1956 8.79967 14.2038 8.79967 14.2114C8.79967 14.2193 8.79967 14.229 8.79967 14.2371V14.2588C8.79967 14.2685 8.79967 14.2765 8.79967 14.2865V14.3083C8.79967 14.3137 8.79967 14.3198 8.79967 14.326V14.3593C8.79967 14.3652 8.79967 14.3729 8.79967 14.3809V14.4263C8.79967 14.4364 8.80183 14.446 8.80372 14.4562C8.80372 14.4596 8.80372 14.4638 8.80372 14.4678V14.4758C8.80372 14.4855 8.80564 14.4955 8.80765 14.5071V14.5247L8.80933 14.5409L8.81125 14.5545L8.81317 14.5742V14.5824L8.81532 14.6V14.6197L8.81926 14.6333V14.655L8.82117 14.6671L8.82525 14.6923V14.7004L8.82875 14.714V14.722L8.83254 14.7418L8.8347 14.7553C8.83662 14.7677 8.83863 14.7793 8.84242 14.7893L8.84458 14.8048L8.8499 14.8285L8.85182 14.8402V14.8544L8.85968 14.8877L8.86373 14.9033C8.86766 14.9175 8.87119 14.9292 8.87301 14.9392L8.87708 14.9528L8.88703 14.9881L8.88895 14.9941V15.0023C8.89248 15.0119 8.89653 15.0239 8.8985 15.0356L8.90243 15.0492L8.91575 15.0906V15.0967L8.9277 15.1339V15.1461L8.93316 15.1637L8.93906 15.1834L8.94098 15.1916V15.195L8.95078 15.2248L8.95431 15.2329L8.95836 15.2445V15.2507L8.97015 15.284L8.97365 15.294L8.98756 15.3354L8.99149 15.341V15.3449L9.00679 15.3883L9.00895 15.3943L9.02621 15.4378L9.02813 15.4438L9.04368 15.4812L9.0456 15.4888V15.495C9.05165 15.5085 9.05711 15.5247 9.06498 15.5403L9.06689 15.5443L9.0843 15.5898L9.08809 15.5953L9.10156 15.6292L9.10561 15.6387L9.1094 15.6467L9.13074 15.6923V15.6962L9.13289 15.6998L9.15198 15.7473V15.7533L9.15956 15.7649L9.1754 15.8008V15.8027L9.18272 15.8206L9.19871 15.8538C9.68381 16.7174 10.2893 17.5043 10.9947 18.1902C11.5555 18.7994 12.2189 19.3042 12.95 19.6786C13.4737 19.9921 14.0658 20.1658 14.6727 20.1855C15.2435 20.1758 15.8 20.0001 16.2757 19.6786C17.0747 19.1718 17.8132 18.5726 18.4785 17.8925C19.0953 17.2989 19.6171 16.611 20.0275 15.8538C20.6364 14.6924 20.5205 13.8469 20.0716 12.5988C19.7081 11.7649 19.1958 11.0079 18.5617 10.367C17.8984 9.69265 17.1403 9.12065 16.3147 8.67154C15.779 8.34606 15.1736 8.16062 14.5509 8.13288C14.0404 8.13901 13.5396 8.28482 13.1045 8.55694C12.2787 9.0637 11.5228 9.68092 10.8575 10.3886L10.8443 10.4022C10.1515 11.0351 9.57533 11.7902 9.15002 12.6342L9.14764 12.6341ZM20.2414 19.1858C20.1347 19.2999 20.019 19.4186 19.8972 19.5448C19.7543 19.6906 19.6071 19.8344 19.4582 19.9783C19.6071 19.8344 19.7562 19.6906 19.8972 19.5448C20.0209 19.4186 20.1347 19.2999 20.2414 19.1858ZM22.4129 16.1848C22.3858 16.2383 22.3586 16.2893 22.3316 16.3427C22.3586 16.2893 22.3858 16.2363 22.4129 16.1848ZM22.6585 11.9956C22.7921 12.4175 22.8907 12.849 22.9526 13.2887C22.8907 12.849 22.7936 12.4155 22.6585 11.9936V11.9956ZM19.4001 7.1232C19.5953 7.30304 19.7848 7.48632 19.9684 7.67362C20.4947 8.21558 20.9764 8.80102 21.4095 9.4244C21.5966 9.69637 21.7649 9.96035 21.9121 10.2147C21.3669 9.29033 20.7151 8.43675 19.9684 7.67362C19.7848 7.48432 19.5953 7.30304 19.4001 7.1232ZM16.0142 4.78695C16.1498 4.85419 16.289 4.92731 16.4394 5.01015C16.8572 5.23663 17.2671 5.48701 17.6577 5.75099C17.2671 5.48701 16.8572 5.23863 16.4394 5.01015C16.289 4.92931 16.1498 4.85192 16.0142 4.78695ZM9.397 15.2187C9.32726 15.0512 9.26747 14.8815 9.21935 14.7064C9.15901 14.4913 9.1263 14.2684 9.11844 14.0438C9.13963 14.45 9.23268 14.8463 9.397 15.2167V15.2187Z" fill="#53B7D1"/>
<path fill-rule="evenodd" clip-rule="evenodd" d="M37.2859 18.9139C37.7656 18.9139 38.2082 18.9039 38.6126 18.8841C39.0184 18.8644 39.4344 18.823 39.8657 18.7579C40.0279 18.7207 40.177 18.8604 40.1497 19.0301V20.4791C40.1497 20.6468 40.0491 20.7632 39.8464 20.8263C39.3513 20.9839 38.8423 21.0923 38.3279 21.1554C37.783 21.2301 37.2316 21.2699 36.6806 21.2716C35.7928 21.2952 34.9113 21.1454 34.0817 20.8263C33.4069 20.5558 32.8133 20.1126 32.3549 19.5387C31.8906 18.9336 31.5599 18.2296 31.3882 17.4804C31.1753 16.5755 31.0748 15.6467 31.0847 14.7181V13.8288C31.0748 12.8985 31.1733 11.97 31.3803 11.0648C31.5446 10.3153 31.8694 9.61355 32.3277 9.00664C32.7801 8.43264 33.3722 7.98909 34.043 7.71898C34.8726 7.39949 35.7563 7.24941 36.6419 7.27331C37.6726 7.28145 38.6954 7.451 39.676 7.77606C39.7632 7.79782 39.8423 7.84502 39.9042 7.91226C39.9447 7.97536 39.9641 8.0502 39.9602 8.1253V9.51685C39.9873 9.68439 39.8384 9.82673 39.676 9.7874C39.3221 9.7379 38.9354 9.69869 38.5196 9.67078C38.1017 9.64303 37.6784 9.63144 37.2494 9.6333C36.7289 9.6177 36.2107 9.70412 35.7236 9.88369C35.3212 10.0432 34.9751 10.3193 34.7276 10.6783C34.455 11.0887 34.2712 11.5519 34.1861 12.0405C34.0702 12.6815 34.0157 13.332 34.0256 13.9827V14.5823C34.0157 15.2349 34.0741 15.8855 34.1959 16.526C34.2846 17.013 34.4762 17.4744 34.7548 17.8786C35.0137 18.2314 35.3657 18.5036 35.7697 18.6615C36.2552 18.8408 36.7696 18.9255 37.2859 18.9119V18.9139ZM42.3482 7.81727C42.3482 7.61052 42.4431 7.50796 42.6328 7.50796H44.9842C45.162 7.48234 45.313 7.63614 45.2876 7.81727V17.8096C45.2664 18.1012 45.3322 18.391 45.4773 18.6433C45.6802 18.8544 45.9683 18.9552 46.2544 18.9139H50.7463C50.9246 18.888 51.075 19.0416 51.0503 19.2232V20.6527C51.0503 20.899 50.9439 21.0272 50.7291 21.0408C50.0329 21.1039 49.236 21.1593 48.3391 21.2049C47.4416 21.2503 46.5119 21.2716 45.5525 21.2716C45.0441 21.2816 44.5392 21.2301 44.0443 21.1181C43.6788 21.0372 43.3367 20.8677 43.0481 20.6249C42.7892 20.3903 42.6016 20.0848 42.509 19.7457C42.3907 19.3121 42.3368 18.8624 42.3467 18.4107L42.3482 7.81727ZM55.7547 20.7117C55.7799 20.903 55.6195 21.0664 55.4319 21.0392H53.1365C52.9489 21.0664 52.7883 20.903 52.8156 20.7117V7.85475C52.8156 7.62412 52.9222 7.50796 53.1365 7.50796H55.4319C55.6467 7.50796 55.7547 7.62412 55.7547 7.85475V20.7117ZM64.6267 18.9139C65.1082 18.9139 65.5508 18.9039 65.9552 18.8841C66.3592 18.8644 66.777 18.823 67.2062 18.7579C67.3686 18.7184 67.5176 18.8604 67.4904 19.0281V20.4791C67.4904 20.6468 67.3899 20.7632 67.1869 20.8263C66.6919 20.9817 66.1855 21.0923 65.6711 21.1554C65.1237 21.2301 64.5726 21.268 64.0217 21.2716C63.1342 21.2952 62.2519 21.1454 61.4228 20.8263C60.7475 20.5542 60.1539 20.1126 59.6976 19.5387C59.2337 18.9316 58.9031 18.2296 58.7308 17.4804C58.5179 16.5755 58.4174 15.6467 58.4273 14.7161V13.8268C58.4174 12.8985 58.5164 11.97 58.7234 11.0648C58.8877 10.3153 59.2124 9.61355 59.6708 9.00464C60.1234 8.43064 60.7148 7.98709 61.3856 7.71898C62.2153 7.39949 63.0989 7.24755 63.9845 7.27331C65.0152 7.28145 66.0404 7.451 67.0186 7.77606C67.1058 7.79782 67.1849 7.84502 67.2468 7.91226C67.2875 7.97536 67.3067 8.04805 67.3032 8.1253V9.51685C67.33 9.68439 67.181 9.82673 67.0186 9.7874C66.6647 9.73589 66.2801 9.69869 65.8622 9.67078C65.4449 9.64303 65.0211 9.63144 64.592 9.6333C64.0717 9.6177 63.5535 9.70255 63.0662 9.88369C62.6638 10.0432 62.3197 10.3193 62.0702 10.6762C61.7976 11.0866 61.6139 11.5519 61.5291 12.0405C61.4149 12.6815 61.3609 13.332 61.3683 13.9827V14.5823C61.3609 15.2349 61.4169 15.8855 61.5385 16.5238C61.6276 17.0111 61.8188 17.4744 62.0994 17.8786C62.3563 18.2314 62.7084 18.5036 63.1128 18.6615C63.5979 18.8408 64.1122 18.9255 64.6286 18.9119L64.6267 18.9139ZM79.2089 7.50796C79.2939 7.49793 79.3771 7.54327 79.4177 7.62255C79.4543 7.70695 79.439 7.80583 79.3791 7.87494L75.3223 14.0221L79.9108 20.692C79.9613 20.7532 79.9707 20.8399 79.94 20.913C79.9033 21.0015 79.8142 21.0528 79.7216 21.0392H77.047C76.9366 21.0448 76.8267 21.0252 76.7262 20.9817C76.6391 20.9308 76.5653 20.8577 76.5173 20.7687L72.6303 14.7379V20.7097C72.6576 20.901 72.4952 21.0664 72.3076 21.0392H70.012C69.8244 21.0664 69.664 20.901 69.6912 20.7097V7.85475C69.6912 7.62255 69.7977 7.50595 70.012 7.50595H72.3076C72.5224 7.50595 72.6303 7.62255 72.6303 7.85475V13.3063L76.2525 7.73858C76.351 7.59079 76.5134 7.50394 76.6877 7.50595L79.2089 7.50796Z" fill="#4D4D4D"/>
</g>
<defs>
<clipPath id="clip0_80_62">
<rect width="76" height="22" fill="white" transform="translate(4 3)"/>
</clipPath>
</defs>
</svg>
