<svg width="84" height="28" viewBox="0 0 84 28" fill="none" xmlns="http://www.w3.org/2000/svg">
<path d="M24.0031 8.41898C23.9903 7.40078 23.6747 6.37621 22.7759 5.80392C21.9013 5.24798 20.7378 5.25907 20.0494 6.10517C19.9937 6.17362 19.8743 6.29002 19.9092 6.39034C19.9444 6.49094 20.1611 6.46683 20.2517 6.51311C20.408 6.59127 20.4701 6.74729 20.4654 6.91468C20.459 7.10923 20.4574 8.96549 20.4493 11.5249C18.1979 11.5121 15.9445 11.4977 13.6928 11.4849C13.6498 10.9257 13.6339 10.2977 13.6737 9.61565C13.7104 8.98628 13.7916 8.35995 13.9144 7.74166C13.9685 7.4709 14.0307 7.20152 14.1008 6.93547C14.1773 6.64226 14.3892 6.28198 14.3669 5.97464C14.3637 5.93306 14.3542 5.89177 14.3287 5.8599C14.2681 5.7848 14.1518 5.79755 14.0593 5.82166C13.4857 5.96826 12.9279 6.27422 12.4881 6.6708C12.3527 6.79191 11.9909 7.13611 11.6643 7.72254C10.7974 9.27478 10.7289 11.4739 10.7289 11.4739C10.6842 12.8953 10.6285 15.7764 12.1439 18.7675C12.1439 18.7675 13.2052 20.8646 14.7239 21.3809C15.0235 21.4829 15.1047 21.4159 15.1302 21.3809C15.2481 21.2293 14.9948 20.968 14.9199 20.8519C14.7812 20.6382 14.6633 20.4121 14.5613 20.1776C14.351 19.6948 14.2107 19.1832 14.1072 18.6686C13.7901 17.1006 13.5845 15.5134 13.6291 13.9118H20.4493V19.9307C20.4493 20.3292 20.612 20.713 20.9801 20.9012C21.2015 21.0143 21.4534 21.0542 21.7003 21.0844C22.1321 21.1387 22.5736 21.1673 23.0007 21.0844C23.2509 21.0367 23.5012 20.9458 23.6874 20.7721C23.9887 20.4933 23.9934 20.1139 23.9934 19.7331C23.9934 16.7101 24.0222 13.6873 24.0175 10.6643C24.0175 9.91386 24.0111 9.16475 24.0031 8.41427V8.41898Z" fill="url(#paint0_linear_80_65)"/>
<path d="M14.6618 22.1342C11.9097 21.3297 10.8357 18.4134 10.2477 15.8845C10.1202 15.333 9.99747 14.7898 9.92417 14.2272C9.70426 12.527 9.71382 10.6577 10.2652 9.01624C9.84449 9.11046 9.65488 9.47212 9.40947 9.76534C8.5123 10.8362 8.44218 12.0872 8.39917 13.3301C8.29718 16.2495 9.36324 18.3258 9.60069 18.772C10.1361 19.7744 10.7194 20.434 10.8915 20.6235C11.5034 21.3009 12.1185 21.7709 12.5902 22.0832C12.2157 21.9909 11.6866 21.8172 11.1209 21.4683C10.5966 21.1448 10.2222 20.7846 9.97677 20.5088C9.6214 20.0549 9.37123 19.6547 9.20869 19.3712C8.77045 18.6126 8.22546 17.6676 7.94818 16.4008C7.87012 16.0455 7.81752 15.6836 7.67728 15.6695C7.47492 15.6487 7.24703 16.3689 7.19764 16.5236C7.03829 17.0255 6.99844 17.4891 7.00005 17.7347C7.01119 18.6908 7.72828 20.5504 9.44134 21.8125C9.44134 21.8125 10.9393 22.9152 13.5017 22.9997C13.6068 23.0028 14.2267 22.9883 14.6873 22.6586C14.9135 22.4962 15.0633 22.2476 14.6618 22.1312V22.1342Z" fill="url(#paint1_linear_80_65)"/>
<path d="M10.2615 9.0054L10.2578 9.01649L10.2688 9.01288L10.2615 9.0054Z" fill="url(#paint2_linear_80_65)"/>
<path d="M10.2637 9.00933L10.2716 9.01736L10.3032 8.97302L10.2637 9.00933Z" fill="url(#paint3_linear_80_65)"/>
<path d="M59.2236 8.06008C59.2346 7.7095 59.2236 7.19015 59.0977 6.56548C59.085 6.49841 59.0689 6.33906 58.9877 6.15421C58.9448 6.05389 58.8236 5.78784 58.5415 5.60604C58.3902 5.51042 58.2212 5.45305 58.0427 5.45472C57.9185 5.45472 57.7941 5.46414 57.6716 5.46414C57.4995 5.46414 57.3274 5.46913 57.1553 5.47051C56.8205 5.47384 56.486 5.4658 56.1529 5.47855C55.8533 5.48964 55.5728 5.59162 55.3592 5.81638C55.1059 6.08243 54.9036 6.46183 54.5688 7.27439C54.5131 7.40825 54.4684 7.52299 54.4382 7.60114C54.3108 7.87689 52.5116 11.7779 51.8312 12.9061C51.7819 12.9906 51.6702 13.1705 51.5333 13.1641C51.3945 13.1705 51.2847 12.9906 51.2351 12.9061C50.5564 11.7762 48.7556 7.87689 48.6281 7.60114C48.5979 7.52299 48.5532 7.40991 48.4975 7.27439C48.1628 6.46183 47.9605 6.08243 47.7071 5.81638C47.4951 5.59162 47.2147 5.48964 46.9134 5.47855C46.5789 5.46747 46.2441 5.47384 45.9113 5.47051C45.7392 5.47051 45.5671 5.4658 45.395 5.46414C45.2706 5.46414 45.1464 5.45638 45.0236 5.45472C44.8452 5.45472 44.6778 5.51042 44.5248 5.60604C44.2427 5.78784 44.1216 6.05389 44.0786 6.15421C43.9974 6.33906 43.9813 6.49841 43.9686 6.56548C43.8444 7.19153 43.8317 7.71116 43.8428 8.06008C43.7122 12.0741 43.5814 16.0851 43.4492 20.0992C43.4539 20.1662 43.4667 20.2585 43.5033 20.3622C43.7089 20.9502 44.4547 21.2388 45.0283 21.2465C45.6084 21.2545 46.3015 20.9788 46.5471 20.4467C46.5501 20.4403 46.5947 20.3367 46.6188 20.2219C46.7893 19.4044 46.8879 12.8216 46.9248 9.95486C48.4959 13.1738 49.7244 15.5799 50.2934 16.6413C50.4081 16.8597 50.655 17.2979 51.1093 17.4475C51.2401 17.4921 51.385 17.5163 51.5333 17.5176C51.6813 17.5176 51.8265 17.4921 51.957 17.4475C52.4113 17.2979 52.6565 16.8597 52.7729 16.6413C53.3402 15.5799 54.5704 13.1738 56.1418 9.95486C56.1784 12.8232 56.277 19.4044 56.4478 20.2219C56.4716 20.3367 56.5162 20.4403 56.5193 20.4467C56.7648 20.9788 57.4579 21.2545 58.038 21.2465C58.6133 21.2388 59.3574 20.9502 59.5631 20.3622C59.5996 20.2585 59.6124 20.1662 59.6171 20.0992C59.4866 16.0851 59.3557 12.0741 59.2236 8.06008Z" fill="url(#paint4_linear_80_65)"/>
<path d="M40.3166 5.93554C39.9901 5.52261 39.4323 5.50681 38.8952 5.4924C38.3869 5.47799 37.7401 5.46053 37.3352 5.91004C37.1104 6.16002 37.0483 6.45489 37.0292 6.63337C37.0198 9.59568 37.0101 12.5566 37.0007 15.5189C37.0054 15.8091 36.9766 16.3556 36.6834 16.9564C36.3743 17.5905 35.9362 17.9508 35.8245 18.0384C35.8245 18.0384 35.0787 18.6278 34.1035 18.706C34.0062 18.714 33.9028 18.7171 33.9028 18.7171C33.8773 18.7171 33.8518 18.7171 33.8264 18.7187C33.8009 18.7187 33.7754 18.7187 33.7499 18.7171C33.7499 18.7171 33.6479 18.714 33.5489 18.706C32.5737 18.6265 31.8279 18.0384 31.8279 18.0384C31.7148 17.9491 31.2781 17.5905 30.9691 16.9564C30.6759 16.3556 30.647 15.8091 30.652 15.5189C30.6423 12.5566 30.6329 9.59568 30.6232 6.63337C30.6041 6.45489 30.5437 6.16002 30.3172 5.91004C29.9126 5.46053 29.2655 5.47799 28.7572 5.4924C28.2218 5.50681 27.6626 5.52261 27.3358 5.93554C27.0792 6.25896 27.1 6.65886 27.1208 6.83263V16.1325C27.1208 16.9977 27.3693 18.1434 28.1994 19.232C29.1317 20.4542 30.4558 20.999 30.8638 21.1506C31.691 21.458 32.5052 21.5441 32.7538 21.568C33.1856 21.6109 33.5536 21.6126 33.8264 21.6046C34.0988 21.6126 34.4668 21.6109 34.8986 21.568C35.1472 21.5425 35.9617 21.4566 36.7887 21.1506C37.1966 20.999 38.5208 20.4542 39.453 19.232C40.2817 18.1434 40.5319 16.9977 40.5319 16.1325V6.83263C40.5525 6.65886 40.5732 6.25896 40.3166 5.93554Z" fill="url(#paint5_linear_80_65)"/>
<path d="M77.2197 10.4053C76.7702 8.91206 75.8523 7.59594 74.6063 6.65894C73.1926 5.59751 71.44 5.04157 69.6791 5C67.9182 5.04157 66.1653 5.59751 64.7519 6.65894C63.5042 7.59594 62.5863 8.91206 62.1385 10.4053C60.8556 14.692 62.7853 20.161 67.4035 21.3705C68.1493 21.5647 68.9159 21.6476 69.6791 21.6271C70.444 21.6476 71.2106 21.5647 71.9547 21.3705C76.5726 20.161 78.5026 14.692 77.2197 10.4053ZM73.7904 15.1906C73.3076 17.2209 71.9594 19.4025 69.6774 19.4263C67.3955 19.4025 66.0475 17.2209 65.5645 15.1906C65.0991 13.2354 65.1853 10.9327 66.28 9.18781C67.0385 7.97839 68.3294 7.26282 69.6758 7.2534C71.024 7.26282 72.313 7.98005 73.0715 9.18781C74.1665 10.9327 74.2524 13.2354 73.7871 15.1906H73.7904Z" fill="url(#paint6_linear_80_65)"/>
<defs>
<linearGradient id="paint0_linear_80_65" x1="20.7395" y1="15.1789" x2="9.81578" y2="6.91302" gradientUnits="userSpaceOnUse">
<stop offset="0.33" stop-color="#9C8837"/>
<stop offset="0.56" stop-color="#F7E59E"/>
<stop offset="0.6" stop-color="#F0DE96"/>
<stop offset="0.67" stop-color="#DECB80"/>
<stop offset="0.75" stop-color="#C0AC5D"/>
<stop offset="0.79" stop-color="#B39F4D"/>
</linearGradient>
<linearGradient id="paint1_linear_80_65" x1="16.6616" y1="20.5678" x2="5.73797" y2="12.3022" gradientUnits="userSpaceOnUse">
<stop offset="0.33" stop-color="#9C8837"/>
<stop offset="0.56" stop-color="#F7E59E"/>
<stop offset="0.6" stop-color="#F0DE96"/>
<stop offset="0.67" stop-color="#DECB80"/>
<stop offset="0.75" stop-color="#C0AC5D"/>
<stop offset="0.79" stop-color="#B39F4D"/>
</linearGradient>
<linearGradient id="paint2_linear_80_65" x1="21.3511" y1="17.4042" x2="8.76796" y2="7.88065" gradientUnits="userSpaceOnUse">
<stop offset="0.33" stop-color="#9C8837"/>
<stop offset="0.56" stop-color="#F7E59E"/>
<stop offset="0.6" stop-color="#F0DE96"/>
<stop offset="0.67" stop-color="#DECB80"/>
<stop offset="0.75" stop-color="#C0AC5D"/>
<stop offset="0.79" stop-color="#B39F4D"/>
</linearGradient>
<linearGradient id="paint3_linear_80_65" x1="19.8271" y1="16.2151" x2="8.99637" y2="8.01691" gradientUnits="userSpaceOnUse">
<stop offset="0.33" stop-color="#9C8837"/>
<stop offset="0.56" stop-color="#F7E59E"/>
<stop offset="0.6" stop-color="#F0DE96"/>
<stop offset="0.67" stop-color="#DECB80"/>
<stop offset="0.75" stop-color="#C0AC5D"/>
<stop offset="0.79" stop-color="#B39F4D"/>
</linearGradient>
<linearGradient id="paint4_linear_80_65" x1="61.2059" y1="18.5472" x2="44.2299" y2="9.54359" gradientUnits="userSpaceOnUse">
<stop offset="0.33" stop-color="#9C8837"/>
<stop offset="0.56" stop-color="#F7E59E"/>
<stop offset="0.6" stop-color="#F0DE96"/>
<stop offset="0.67" stop-color="#DECB80"/>
<stop offset="0.75" stop-color="#C0AC5D"/>
<stop offset="0.79" stop-color="#B39F4D"/>
</linearGradient>
<linearGradient id="paint5_linear_80_65" x1="42.1842" y1="17.7163" x2="25.2085" y2="7.08759" gradientUnits="userSpaceOnUse">
<stop offset="0.33" stop-color="#9C8837"/>
<stop offset="0.56" stop-color="#F7E59E"/>
<stop offset="0.6" stop-color="#F0DE96"/>
<stop offset="0.67" stop-color="#DECB80"/>
<stop offset="0.75" stop-color="#C0AC5D"/>
<stop offset="0.79" stop-color="#B39F4D"/>
</linearGradient>
<linearGradient id="paint6_linear_80_65" x1="81.6528" y1="20.309" x2="60.545" y2="8.05792" gradientUnits="userSpaceOnUse">
<stop offset="0.33" stop-color="#9C8837"/>
<stop offset="0.56" stop-color="#F7E59E"/>
<stop offset="0.6" stop-color="#F0DE96"/>
<stop offset="0.67" stop-color="#DECB80"/>
<stop offset="0.75" stop-color="#C0AC5D"/>
<stop offset="0.79" stop-color="#B39F4D"/>
</linearGradient>
</defs>
</svg>
