<svg width="84" height="28" viewBox="0 0 84 28" fill="none" xmlns="http://www.w3.org/2000/svg">
<g clip-path="url(#clip0_80_63)">
<path fill-rule="evenodd" clip-rule="evenodd" d="M16.4536 5.17795C16.1863 4.74796 15.8405 4.37577 15.4326 4.07816C15.0179 3.79719 14.5664 3.57669 14.0883 3.4279C13.5706 3.25913 13.0357 3.1469 12.4913 3.09266C11.8558 3.03261 11.2201 3.00103 10.5814 3.00394H5.05668C4.51525 2.95551 4.04107 3.35889 4.0062 3.89778C4.0062 3.89778 4.0062 3.92937 4.0062 3.9462V12.8759C4.77167 14.5106 6.04308 15.8598 7.6377 16.7249V14.9316C7.58571 14.3504 8.0173 13.8377 8.60426 13.7892H10.2617C12.5202 13.7892 14.247 13.3165 15.4378 12.3746C16.6267 11.4323 17.2308 10.0379 17.2477 8.1843C17.2506 7.65228 17.1873 7.11942 17.0606 6.6009C16.9347 6.09715 16.7298 5.61832 16.4536 5.17795ZM13.2169 9.7681C13.024 10.0981 12.7358 10.3641 12.394 10.5327C12.0201 10.7108 11.6169 10.8166 11.2051 10.8448C10.7537 10.9022 10.2962 10.9309 9.84184 10.928H8.25054C7.8676 10.928 7.63207 10.622 7.63207 10.169V6.4864C7.60617 6.14286 7.9054 5.86189 8.25054 5.9022H9.84184C10.3565 5.9022 10.8428 5.91675 11.2972 5.94834C11.706 5.96518 12.1061 6.06286 12.4744 6.23451C12.8171 6.3831 13.1015 6.63811 13.2883 6.95856C13.499 7.38834 13.5963 7.86716 13.5707 8.34515C13.5792 8.8404 13.4583 9.33023 13.2169 9.76291V9.7681ZM7.64001 17.2632C6.27964 16.7733 5.03916 15.9976 4.0062 14.9865V19.3019C3.95691 19.6488 4.20726 19.9669 4.55868 20.0012H7.05597C7.7181 20.0012 7.64001 19.2967 7.64001 19.2967V17.2632ZM41.9587 7.70652H39.8064C39.3806 7.67782 38.9985 7.9615 38.9004 8.37051L36.3968 15.2359C36.3968 15.2359 34.1868 8.9838 34.0202 8.49977C33.9252 8.03861 33.5224 7.70652 33.051 7.70069H31.0653C30.3572 7.70069 30.3572 8.2506 30.4524 8.46527C30.5472 8.68015 33.2581 16.0803 34.3196 18.9127C34.4867 19.2624 34.6045 19.6317 34.6677 20.0125C34.5986 20.3876 34.4579 20.7484 34.2472 21.0694C34.167 21.2037 34.0749 21.3328 33.9716 21.4529C36.0172 20.8489 38.3913 18.6435 39.5855 16.2636C40.7875 12.9644 42.3736 8.56565 42.445 8.33914C42.5229 7.99311 42.5229 7.70652 41.9587 7.70652ZM32.36 22.1231C32.173 22.1202 31.9888 22.1034 31.8075 22.0799C31.58 22.046 31.1483 22.0799 31.1483 22.4639V24.1134C31.1483 24.7464 31.4591 24.7926 31.6177 24.835C32.1302 24.9472 32.6532 25.0012 33.1769 24.9985C33.7956 25.0154 34.4084 24.8892 34.9728 24.6319C35.4848 24.3738 35.9421 24.0132 36.3135 23.5747C36.7361 23.0967 37.0936 22.5645 37.3757 21.9911C37.6805 21.3839 37.971 20.711 38.2472 19.9748L38.5696 19.0989C37.928 19.7315 35.0995 22.3862 32.36 22.1231ZM29.0996 9.67938C28.982 9.40151 28.8206 9.14402 28.6254 8.91459C28.4235 8.70572 28.1967 8.51951 27.9493 8.36489C27.6812 8.1843 27.3968 8.02968 27.0999 7.90437C26.7948 7.78631 26.4841 7.69468 26.1651 7.62361C25.8028 7.54297 25.4315 7.49164 25.0601 7.46586C24.6633 7.42576 24.2167 7.40289 23.7248 7.40289C20.4307 7.40289 18.5575 8.4368 18.1 10.5042C18.0161 10.834 18.2464 11.1574 18.5863 11.1861H20.6148C21.1673 11.1861 21.1673 11.0173 21.377 10.5445C21.4691 10.287 21.6334 10.0605 21.8516 9.89426C22.3701 9.56194 22.9829 9.40442 23.5957 9.45056C24.171 9.39028 24.7464 9.53368 25.2267 9.85165C25.5921 10.1925 25.808 10.6615 25.8282 11.1603C25.8282 11.8422 25.6186 12.2915 24.7663 12.2915C22.7524 12.2196 20.586 12.4461 19.3654 13.1448C18.1397 13.8898 17.412 15.2272 17.4525 16.653C17.4408 17.1969 17.5504 17.7412 17.7803 18.2366C17.9933 18.6664 18.3069 19.0444 18.6893 19.3362C19.0952 19.6633 19.5614 19.9067 20.0624 20.0497C20.6257 20.2043 21.2099 20.2785 21.7939 20.2704C22.583 20.2843 23.3681 20.1729 24.1217 19.9406C24.7869 19.6685 25.4165 19.3165 25.9949 18.8898V19.2762C25.9949 19.6544 26.1106 19.9956 26.5474 19.9956H28.8956C29.3702 19.9956 29.4798 19.6604 29.4798 19.2419V12.0452C29.4829 11.5959 29.4512 11.1485 29.3877 10.7021C29.3332 10.3523 29.2384 10.0092 29.0996 9.67938ZM25.8888 16.7505C25.8888 16.7505 25.282 18.0161 23.1265 18.0161C22.6116 18.0396 22.099 17.8985 21.6674 17.6157C21.282 17.3172 21.0753 16.8451 21.1149 16.3612C21.0663 15.7052 21.4288 15.0892 22.0276 14.8113C22.8989 14.4763 23.8285 14.3217 24.764 14.3531C25.3712 14.2643 25.9147 14.7344 25.9118 15.3444L25.8888 16.7505Z" fill="#333333"/>
<path fill-rule="evenodd" clip-rule="evenodd" d="M79.5843 12.1219C80.1397 13.0099 80.1397 14.1359 79.5843 15.026C79.0318 15.8596 76.0198 19.0611 75.0269 20.0898C74.1635 20.9799 72.9982 21.8822 71.8448 21.8822H47.9276C44.6903 21.8822 44.498 20.7827 44.498 18.3312V8.32793C44.498 5.81598 45.2426 5.08301 47.4586 5.08301H71.8995C73.0418 5.08301 74.0658 5.66739 75.2142 6.84429C76.2182 7.84911 79.1844 11.5267 79.5843 12.1219Z" fill="#33CCCC"/>
<path fill-rule="evenodd" clip-rule="evenodd" d="M74.8431 15.9067C74.1182 17.8511 72.2076 19.0996 70.1273 18.9911C66.9443 18.9911 64.8208 16.8344 64.8208 13.6009C64.8208 10.3678 67.0305 8.10239 70.0147 8.10239C72.9986 8.10239 74.987 10.159 75.1135 13.475C75.1135 13.8985 75.0095 14.2741 74.4748 14.2741H67.7215C67.7672 16.0496 68.6225 17.0233 70.1471 17.0233C70.9759 17.043 71.7382 16.5819 72.1036 15.8466C72.2473 15.6369 72.4868 15.5166 72.7394 15.5195H74.4809C74.7018 15.511 74.8778 15.7088 74.8373 15.9264L74.8431 15.9067ZM49.9279 8.94989V8.88984C49.9279 8.56645 49.9279 8.25141 49.3756 8.25141H47.3696C46.9004 8.25141 46.8776 8.50325 46.8776 8.90145V11.5393C47.6686 10.4448 48.7164 9.55463 49.9279 8.94989ZM63.3594 18.4953V11.9858C63.3594 9.31962 62.1771 7.98828 59.8118 7.98828C59.1526 7.99618 58.511 8.1851 57.9555 8.53796C57.3427 8.91828 56.796 9.39418 56.3356 9.94702C56.1287 9.34788 55.7228 8.83848 55.1872 8.50059C54.5775 8.16554 53.8872 8.00183 53.1933 8.03045C52.1694 8.03651 51.1794 8.37735 50.3705 8.99915C50.1924 9.17643 46.8716 11.7484 46.8716 14.4316V18.5066C46.8716 18.6325 46.8054 19.1283 47.364 19.1283H49.4468C50.0943 19.1283 50.0341 18.7044 50.0341 18.53V11.9317C50.3822 11.4618 51.0934 10.3479 52.2696 10.3479C52.6525 10.3136 53.0269 10.488 53.2426 10.8032C53.4783 11.2725 53.5823 11.7968 53.5416 12.321V18.5182C53.5416 18.6443 53.4757 19.14 54.0338 19.14H56.0943C56.7388 19.14 56.6782 18.7162 56.6782 18.5381V11.9082C57.0547 11.4421 57.7832 10.3244 58.9171 10.3244C59.305 10.293 59.6792 10.4655 59.9068 10.78C60.1457 11.2498 60.2515 11.774 60.2089 12.2983V18.4953C60.2089 18.6217 60.1423 19.1165 60.7008 19.1165H62.7841C63.4372 19.0855 63.3594 18.6672 63.3594 18.4953ZM70.0262 10.153C68.7603 10.153 67.9056 11.0289 67.7185 12.4697H72.2473C72.1325 11.2095 71.4474 10.153 70.0262 10.153Z" fill="white"/>
</g>
<defs>
<clipPath id="clip0_80_63">
<rect width="76" height="22" fill="white" transform="translate(4 3)"/>
</clipPath>
</defs>
</svg>
