<svg width="84" height="28" viewBox="0 0 84 28" fill="none" xmlns="http://www.w3.org/2000/svg">
<g clip-path="url(#clip0_80_61)">
<path d="M7.18452 21.751C11.2953 21.751 14.1581 18.5844 14.1581 14.4604C14.1581 10.3364 11.2953 7.16983 7.18452 7.16983C3.07378 7.16983 0.210938 10.3364 0.210938 14.4604C0.210938 18.5844 3.07378 21.751 7.18452 21.751Z" fill="#20CC6D"/>
<path d="M28.1058 12.9496C28.1058 9.69218 26.0149 7.16983 22.9718 7.16983C21.5146 7.16983 20.3038 7.69916 19.4465 8.62068V8.17063C19.4465 7.67773 19.1679 7.42342 18.675 7.42342H16.832C16.3391 7.42342 16.0605 7.67773 16.0605 8.17063V22.8796C16.0605 23.3725 16.3391 23.6528 16.832 23.6528H18.675C19.1679 23.6528 19.4465 23.3725 19.4465 22.8796V17.2785C20.3038 18.2 21.5146 18.8347 22.9718 18.8347C26.0149 18.8347 28.1058 16.207 28.1058 12.9496ZM24.772 12.9496C24.772 14.5355 23.604 15.7355 22.1146 15.7355C20.6252 15.7355 19.4465 14.5355 19.4465 12.9496C19.4465 11.3745 20.6252 10.1637 22.1146 10.1637C23.604 10.1637 24.772 11.3745 24.772 12.9496Z" fill="black"/>
<path d="M28.7402 12.9496C28.7402 16.207 30.8836 18.8347 33.9373 18.8347C35.3948 18.8347 36.5949 18.2 37.4628 17.2785V17.7286C37.4628 18.2215 37.7414 18.5812 38.2343 18.5812H40.0141C40.5071 18.5812 40.7857 18.2215 40.7857 17.7286V8.17063C40.7857 7.67773 40.5071 7.42342 40.0141 7.42342H38.2343C37.7414 7.42342 37.4628 7.67773 37.4628 8.17063V8.62068C36.5949 7.69916 35.3948 7.16983 33.9373 7.16983C30.8836 7.16983 28.7402 9.69218 28.7402 12.9496ZM32.1372 12.9496C32.1372 11.3745 33.2945 10.1637 34.784 10.1637C36.2842 10.1637 37.4628 11.3745 37.4628 12.9496C37.4628 14.5355 36.2842 15.7355 34.784 15.7355C33.2945 15.7355 32.1372 14.5355 32.1372 12.9496Z" fill="black"/>
<path d="M44.0899 23.6529H46.0827C46.522 23.6529 46.8115 23.6529 46.9614 23.0296L52.1323 8.2885C52.1767 8.16327 52.1973 8.07061 52.1973 7.9468C52.1973 7.6036 51.9744 7.42343 51.5367 7.42343H49.5651C49.1153 7.42343 48.8259 7.61346 48.6972 8.04205L46.8114 14.1283L44.9577 8.04205C44.8291 7.61346 44.5396 7.42343 44.0899 7.42343H42.1182C41.6751 7.42343 41.4199 7.60842 41.4199 7.959C41.4199 8.07061 41.4434 8.16824 41.4859 8.2885L45.1397 18.5812L43.4898 22.7511C43.2755 23.2975 43.511 23.6529 44.0899 23.6529Z" fill="black"/>
<path d="M59.4081 7.16983C58.1436 7.16983 57.0196 7.6563 56.2696 8.56708V8.17063C56.2696 7.67773 55.991 7.42342 55.4981 7.42342H53.6013C53.1084 7.42342 52.8301 7.67773 52.8301 8.17063V17.7286C52.8301 18.2215 53.1084 18.5812 53.6013 18.5812H55.4981C55.991 18.5812 56.2696 18.2215 56.2696 17.7286V12.4996C56.2696 10.978 57.265 10.1637 58.3795 10.1637C59.3761 10.1637 60.1688 11.0851 60.1688 12.0817V17.7286C60.1688 18.2215 60.4475 18.5812 60.9404 18.5812H62.8368C63.3298 18.5812 63.6074 18.2215 63.6074 17.7286V11.5352C63.6074 8.90999 61.8406 7.16983 59.4081 7.16983Z" fill="black"/>
<path d="M81.4631 14.4819V10.378H83.1022C83.5948 10.378 83.8947 10.0994 83.8947 9.60648V8.17065C83.8947 7.67774 83.5948 7.42343 83.1022 7.42343H81.4631V4.71303C81.4631 4.27897 81.2098 4.00387 80.7936 4.00004C80.7407 3.99955 80.6849 4.00346 80.6269 4.01193L78.7088 4.28443C78.2375 4.35943 78.0017 4.63803 78.0017 5.10949V7.42343H77.1113C76.6184 7.42343 76.2871 7.67774 76.2871 8.17065V9.60648C76.2871 10.0994 76.6184 10.378 77.1113 10.378H78.0017V14.8355C78.0017 17.3214 79.4588 18.8347 81.827 18.8347C82.4055 18.8347 82.9627 18.7419 83.4341 18.5812C83.8414 18.4419 83.8947 18.05 83.8947 17.6214V16.5178C83.8947 16.0034 83.7235 15.757 83.2093 15.7784H82.8771C81.859 15.7784 81.4631 15.3713 81.4631 14.4819Z" fill="black"/>
<path d="M67.7556 13.9033H75.4221C75.883 13.9033 76.2063 13.6782 76.2491 13.2175C76.2707 13.0675 76.2875 12.9067 76.2875 12.7675C76.2875 9.64935 73.7884 7.16983 70.3916 7.16983C66.9305 7.16983 64.2422 9.69221 64.2422 12.9496C64.2422 16.207 66.8665 18.8347 70.7023 18.8347C72.6739 18.8347 74.1948 18.0393 75.3305 16.9785C75.6947 16.6356 75.6735 16.2499 75.3517 15.8856L74.8912 15.3712C74.5697 15.0069 74.216 14.9962 73.809 15.2748C72.9516 15.8749 71.9347 16.1642 70.7454 16.1642C69.0952 16.1642 68.0022 15.307 67.7556 13.9033ZM70.3488 9.73506C71.624 9.73506 72.5553 10.5066 72.8232 11.7281H67.8092C68.1414 10.4851 69.0952 9.73506 70.3488 9.73506Z" fill="black"/>
</g>
<defs>
<clipPath id="clip0_80_61">
<rect width="84" height="19.6528" fill="white" transform="translate(0 4)"/>
</clipPath>
</defs>
</svg>
