<svg width="24" height="24" viewBox="0 0 24 24" fill="none" xmlns="http://www.w3.org/2000/svg">
<g clip-path="url(#clip0_64_3)">
<path fill-rule="evenodd" clip-rule="evenodd" d="M14.8135 6.87433C14.3733 6.87433 13.8539 6.97699 13.2552 7.1823C12.6566 7.38768 12.2252 7.49041 11.961 7.4905C11.7556 7.4905 11.3404 7.3995 10.7153 7.2175C10.0903 7.0355 9.55762 6.9445 9.11744 6.9445C8.08447 6.9445 7.22905 7.37891 6.55117 8.24772C5.8733 9.1161 5.53436 10.24 5.53436 11.6193C5.53701 12.3828 5.64967 13.1419 5.86886 13.8733C6.11009 14.6724 6.44397 15.4406 6.86369 16.1622C7.30975 16.9428 7.75875 17.5282 8.21069 17.9185C8.66256 18.3087 9.11741 18.5039 9.57522 18.5039C9.88044 18.5039 10.2781 18.4026 10.7682 18.2001C11.2583 17.9976 11.6882 17.8964 12.0579 17.8964C12.4277 17.8964 12.881 17.9933 13.4181 18.187C13.9551 18.3808 14.3762 18.4777 14.6814 18.4776C15.0688 18.4776 15.4561 18.3309 15.8435 18.0373C16.2308 17.7438 16.6182 17.3006 17.0056 16.7079C17.2507 16.3375 17.4727 15.9524 17.6702 15.5546C17.8479 15.1973 17.9965 14.8263 18.1149 14.4453C17.5807 14.287 17.1053 13.9084 16.6886 13.3096C16.2746 12.7196 16.056 12.0146 16.0636 11.2938C16.0653 10.8048 16.175 10.3223 16.3849 9.88066C16.5991 9.41988 17.032 8.91371 17.6834 8.36215C17.2667 7.84558 16.8266 7.46843 16.363 7.23068C15.8826 6.98911 15.3511 6.86687 14.8135 6.87433H14.8135ZM14.6638 3.47613C13.6132 3.71644 12.8605 4.16249 12.4056 4.81427C11.9508 5.46571 11.7175 6.23743 11.7058 7.12943C12.1636 7.10602 12.5304 7.03263 12.8063 6.90925C13.1095 6.76672 13.384 6.56983 13.6162 6.32833C13.9777 5.97674 14.2625 5.55406 14.4526 5.08694C14.6287 4.64091 14.7167 4.23013 14.7167 3.8546C14.7167 3.79591 14.7137 3.73727 14.7079 3.67835C14.6999 3.60966 14.6851 3.54193 14.6638 3.47613ZM12.0004 0.402161C18.4155 0.402161 23.616 5.60247 23.616 12.0179C23.616 18.4331 18.4155 23.6334 12.0004 23.6334C5.58527 23.6334 0.384766 18.4331 0.384766 12.0179C0.384766 5.60252 5.58527 0.402208 12.0004 0.402208V0.402161Z" fill="url(#paint0_linear_64_3)"/>
</g>
<defs>
<linearGradient id="paint0_linear_64_3" x1="12.0004" y1="0.402161" x2="12.0004" y2="23.6334" gradientUnits="userSpaceOnUse">
<stop stop-color="#0085FF"/>
<stop offset="1" stop-color="#1A3EDD"/>
</linearGradient>
<clipPath id="clip0_64_3">
<rect width="24" height="24" fill="white"/>
</clipPath>
</defs>
</svg>
