<svg width="24" height="24" viewBox="0 0 24 24" fill="none" xmlns="http://www.w3.org/2000/svg">
<g clip-path="url(#clip0_64_7)">
<path d="M12 24C18.6274 24 24 18.6274 24 12C24 5.37258 18.6274 0 12 0C5.37258 0 0 5.37258 0 12C0 18.6274 5.37258 24 12 24Z" fill="url(#paint0_linear_64_7)"/>
<path d="M3.51609 11.3541C3.50339 11.3012 3.50634 11.2454 3.51342 11.2162C3.53138 11.1326 3.58814 11.0393 3.7537 11.0393C3.90727 11.0393 3.99764 11.1348 3.99764 11.2777V11.4402H4.65244V11.2558C4.65244 10.6847 4.13756 10.5938 3.76641 10.5938C3.30009 10.5938 2.91909 10.7485 2.84939 11.1772C2.83031 11.2949 2.82708 11.3984 2.85464 11.5311C2.96831 12.0678 3.90131 12.2229 4.03702 12.5625C4.06242 12.6257 4.05473 12.7068 4.04213 12.7564C4.02061 12.8446 3.96136 12.9337 3.78577 12.9337C3.62175 12.9337 3.52369 12.8382 3.52369 12.6947L3.52275 12.4421H2.81836V12.6428C2.81836 13.2298 3.27933 13.4063 3.77269 13.4063C4.24697 13.4063 4.6365 13.2446 4.70006 12.8053C4.73166 12.5789 4.70794 12.4315 4.6973 12.3756C4.58644 11.8246 3.59081 11.6614 3.51609 11.3541ZM12.0535 11.3606C12.0419 11.3087 12.0452 11.2537 12.0513 11.2249C12.07 11.1408 12.1265 11.0492 12.2892 11.0492C12.4408 11.0492 12.5297 11.1437 12.5297 11.2856V11.4461H13.1769V11.2631C13.1769 10.6975 12.6698 10.6087 12.3026 10.6087C11.8403 10.6087 11.4626 10.7611 11.3936 11.1867C11.3754 11.3025 11.3709 11.4053 11.3999 11.5365C11.5123 12.0672 12.4362 12.2211 12.5702 12.5567C12.5939 12.6203 12.5872 12.7013 12.5751 12.7491C12.555 12.8364 12.4962 12.9243 12.3221 12.9243C12.1587 12.9243 12.0604 12.8304 12.0604 12.6888L12.0602 12.4369H11.3636V12.6372C11.3636 13.2174 11.8181 13.3925 12.3076 13.3925C12.7765 13.3925 13.1638 13.2323 13.2259 12.798C13.2555 12.5736 13.2331 12.4275 13.2212 12.3724C13.1127 11.8281 12.1281 11.6644 12.0535 11.3606ZM18.0144 12.7909L17.3962 10.6774H16.422V13.2751H17.0664L17.029 11.094L17.6929 13.2751H18.6272V10.6774H17.9786L18.0144 12.7909ZM5.6288 10.6774L5.14252 13.3025H5.85164L6.21811 10.8724L6.57577 13.3025H7.27997L6.79575 10.6774H5.6288ZM9.59395 10.6774L9.26278 12.7294L8.9318 10.6774H7.86084L7.80403 13.3025H8.46014L8.47786 10.8724L8.92927 13.3025H9.59494L10.0468 10.8724L10.0646 13.3025H10.7223L10.6636 10.6774H9.59395ZM15.6941 10.6774H15.0302V12.6194C15.0312 12.6532 15.0302 12.6913 15.0243 12.7192C15.0105 12.7844 14.9552 12.9098 14.772 12.9098C14.5913 12.9098 14.5345 12.7843 14.5217 12.7192C14.5151 12.6913 14.5143 12.6532 14.5151 12.6194V10.6774H13.8514V12.5591C13.8506 12.6076 13.8543 12.7067 13.8572 12.7327C13.903 13.223 14.2895 13.3822 14.772 13.3822C15.2556 13.3822 15.6418 13.223 15.6885 12.7327C15.6922 12.7067 15.6969 12.6076 15.6941 12.5591V10.6774H15.6941ZM20.2527 11.829V12.2119H20.5217V12.5917C20.5225 12.6257 20.5207 12.6623 20.5148 12.6916C20.5042 12.7624 20.4368 12.8831 20.2459 12.8831C20.056 12.8831 19.9899 12.7624 19.9785 12.6916C19.9736 12.6623 19.9716 12.6257 19.9716 12.5917V11.3919C19.9716 11.3495 19.9744 11.3031 19.9835 11.2679C19.9965 11.2039 20.0532 11.0779 20.2445 11.0779C20.4453 11.0779 20.4954 11.2108 20.5069 11.2679C20.5145 11.3057 20.5148 11.3692 20.5148 11.3692V11.5148H21.176V11.4287C21.176 11.4287 21.179 11.3388 21.171 11.255C21.1213 10.7626 20.7156 10.6068 20.2503 10.6068C19.7843 10.6068 19.3868 10.764 19.3288 11.255C19.3236 11.2999 19.3156 11.3807 19.3156 11.4287V12.5324C19.3156 12.5805 19.3171 12.6177 19.326 12.7055C19.3692 13.1844 19.7843 13.3542 20.2485 13.3542C20.7156 13.3542 21.1277 13.1844 21.1716 12.7055C21.1794 12.6177 21.1802 12.5805 21.1813 12.5324V11.829H20.2527Z" fill="white"/>
</g>
<defs>
<linearGradient id="paint0_linear_64_7" x1="12" y1="0" x2="12" y2="24" gradientUnits="userSpaceOnUse">
<stop stop-color="#00A6FF"/>
<stop offset="1" stop-color="#3E1ADD"/>
</linearGradient>
<clipPath id="clip0_64_7">
<rect width="24" height="24" fill="white"/>
</clipPath>
</defs>
</svg>
