<svg width="24" height="24" viewBox="0 0 24 24" fill="none" xmlns="http://www.w3.org/2000/svg">
<g clip-path="url(#clip0_65_13)">
<rect width="24" height="24" rx="12" fill="url(#paint0_linear_65_13)"/>
<path fill-rule="evenodd" clip-rule="evenodd" d="M4.00584 12.2394C4 12.1442 4 12.051 4 11.9559C4 11.8943 4.00195 11.8309 4.00195 11.7694C4.06934 10.0183 4.67417 8.44573 5.72532 7.08121C7.48835 4.88597 10.0406 3.76548 12.8844 4.04113C14.7051 4.23954 16.3074 4.99497 17.6478 6.3079C19.1292 7.79321 19.9422 9.70295 20.0157 11.7694C20.0216 11.8626 20.0216 11.9578 20.0216 12.051C20.0216 12.1124 20.0216 12.1759 20.0197 12.2394C19.9522 13.9886 19.3474 15.561 18.2964 16.9255C16.5333 19.1209 13.983 20.2414 11.1393 19.9677C9.31683 19.7692 7.71449 19.0137 6.37382 17.6989C4.89228 16.2136 4.08126 14.3039 4.00584 12.2394ZM19.8628 12.2394C19.962 9.07635 18.076 6.04807 15.1055 4.77892C14.1754 4.38223 13.1719 4.15816 12.0832 4.14028C11.7996 4.14818 11.4744 4.15804 11.1908 4.18979C8.60081 4.44159 6.13783 6.14709 4.98753 8.51689C4.48184 9.51038 4.20619 10.5933 4.15461 11.7692C4.06143 14.9324 5.94538 17.9606 8.91612 19.2278C9.84624 19.6244 10.8497 19.8505 11.9383 19.8684C12.2221 19.8584 12.547 19.8506 12.8307 19.8188C15.4227 19.5669 17.8836 17.8615 19.034 15.4896C19.5396 14.496 19.8172 13.4133 19.8668 12.2393L19.8628 12.2394ZM18.2685 7.73373L17.8539 8.01729L17.7746 7.98165C17.6537 7.83883 17.5467 7.63665 17.3959 7.51355H17.374L17.1618 7.69809L17.2055 7.75161C17.1651 7.73937 17.124 7.72942 17.0824 7.72181C17.0471 7.71723 17.0125 7.70858 16.9793 7.69602L16.9636 7.67619L17.3958 7.29349C17.5663 7.46404 17.6894 7.65843 17.838 7.84285C17.9232 7.8072 18.0047 7.7437 18.08 7.68033C17.8876 7.37487 17.6338 7.06954 17.3739 6.81164L17.3422 6.81761C17.1219 7.01394 16.9336 7.23011 16.7173 7.41453C16.4379 7.15469 16.1642 6.88901 15.8489 6.6827L15.8211 6.65095C15.9342 6.48831 16.0411 6.32566 16.1581 6.1691C16.3247 6.29404 16.5051 6.43089 16.6856 6.56567C16.749 6.50619 16.8105 6.42481 16.8603 6.35741V6.33163C16.6043 6.10159 16.3306 5.90331 16.047 5.7229H16.0094C15.8566 5.96279 15.69 6.19684 15.561 6.44269L15.5372 6.46045C15.2142 6.26411 14.8808 6.07373 14.5299 5.93092C14.6014 5.75052 14.6608 5.56209 14.7502 5.38558C14.9623 5.47085 15.1605 5.58788 15.3708 5.67315L15.5017 5.4273C15.4483 5.36392 15.3668 5.33607 15.2955 5.29641C15.0555 5.17938 14.8097 5.07039 14.5579 4.98499L14.5341 4.99886L14.2467 5.80793L14.2287 5.81791C14.0403 5.75842 13.85 5.69699 13.6616 5.64736C13.4871 5.59177 13.2966 5.57389 13.1122 5.53824C13.13 5.34592 13.1797 5.15153 13.2035 4.95324L13.2212 4.94534C13.4315 4.99886 13.6537 5.03061 13.8599 5.08413C13.8855 4.98888 13.9174 4.8957 13.9352 4.79656C13.6078 4.69921 13.2718 4.6341 12.9318 4.60217C12.8959 4.8659 12.8662 5.13365 12.8287 5.39944C12.7908 5.34993 12.7611 5.29045 12.7352 5.23486C12.7334 5.22046 12.7294 5.20643 12.7233 5.19325C12.7552 4.94935 12.7652 4.69353 12.8068 4.45948C12.8524 4.44159 12.878 4.46349 12.9237 4.46349C13.3303 4.51143 13.7323 4.59301 14.1254 4.70739C14.072 4.88597 14.0164 5.06637 13.9669 5.2469C13.8457 5.23692 13.7248 5.18352 13.598 5.16564C13.508 5.14253 13.4166 5.12594 13.3242 5.11601C13.2886 5.20517 13.2886 5.3104 13.2649 5.40747C13.3424 5.43533 13.4274 5.43922 13.5049 5.46696C13.7211 5.52048 13.9352 5.57401 14.1473 5.64152C14.2505 5.36782 14.3238 5.08036 14.427 4.80459C14.8672 4.93548 15.2778 5.12987 15.6863 5.34604L15.7003 5.35991C15.609 5.52462 15.5156 5.69711 15.4246 5.86365C15.2322 5.7684 15.0437 5.65539 14.8413 5.57997C14.8097 5.58398 14.8097 5.61962 14.7959 5.64152L14.7047 5.84978C14.9662 5.98858 15.2362 6.10159 15.488 6.26423C15.6583 6.02033 15.7993 5.75453 15.9599 5.5127C16.3485 5.74079 16.7173 6.02434 17.0724 6.32579L17.0684 6.35364L16.7115 6.75423H16.6719C16.5264 6.6229 16.3748 6.49848 16.2176 6.38138L16.1898 6.37554L16.0192 6.60557C16.2495 6.79997 16.4953 7.00616 16.7254 7.22232L17.3521 6.60156C17.6971 6.93864 18.0084 7.31551 18.2821 7.70417L18.2685 7.73373ZM18.445 8.28905L18.3575 8.33661C18.3159 8.30486 18.2722 8.27518 18.2306 8.24343C18.3259 8.18991 18.4191 8.13431 18.5121 8.0769C18.6991 8.36841 18.8604 8.67563 18.9942 8.99509C18.9703 8.96334 18.9464 8.93366 18.9187 8.90981C18.8514 8.79486 18.7462 8.69365 18.653 8.59256C18.5974 8.4894 18.5399 8.38442 18.4725 8.28917L18.445 8.28905ZM5.62216 8.22153L6.06435 8.48137C6.03856 8.51701 5.99878 8.54876 5.9691 8.58453C5.78663 8.48332 5.60623 8.38624 5.42777 8.27907C5.48117 8.16205 5.54869 8.04904 5.62216 7.93797C5.81838 7.62267 6.04854 7.32913 6.29633 7.04557H6.31811C6.44498 7.16856 6.59777 7.28947 6.7227 7.4065C6.59777 7.59882 6.42722 7.7892 6.29633 7.98165L6.30035 7.99941L6.33404 8.02325C6.2916 8.05646 6.25182 8.09295 6.21507 8.13237C6.173 8.10391 6.13135 8.07483 6.09014 8.04515V8.02325C6.23088 7.82759 6.37436 7.63391 6.52053 7.44226C6.47089 7.37086 6.39158 7.32925 6.31823 7.2677H6.28259C6.03065 7.56914 5.79271 7.8825 5.62216 8.22153ZM5.49322 11.1942C5.48103 11.2799 5.47109 11.3658 5.46341 11.452C5.40989 11.4699 5.33848 11.4599 5.279 11.456L4.88839 11.4204C4.88437 11.2181 4.93194 11.0178 4.9598 10.8155L4.97573 10.8096C4.99945 10.8908 5.01928 10.9762 5.05906 11.0515C5.04908 11.127 5.04118 11.2023 5.03716 11.2756C5.13047 11.2974 5.22559 11.3074 5.32474 11.3112L5.34067 11.2121H5.3723C5.41986 11.2279 5.45745 11.2121 5.49322 11.1942ZM5.46341 8.92563C5.43166 8.91371 5.39797 8.90191 5.37425 8.88208C5.3425 8.87417 5.30673 8.85033 5.2751 8.86018C5.21363 8.98123 5.1561 9.10424 5.10261 9.22901C5.01539 9.31429 4.93206 9.39956 4.85871 9.49481C4.96186 9.20529 5.07877 8.92173 5.22158 8.64815L5.24335 8.64012C5.36038 8.70569 5.48531 8.76311 5.6083 8.82454C5.55866 8.85617 5.5111 8.88998 5.46341 8.92563ZM12.438 5.4571C12.1983 5.44586 11.9581 5.44456 11.7183 5.45321C11.6965 5.25091 11.6905 5.04861 11.6905 4.8642C11.9165 4.83634 12.115 4.86821 12.343 4.86018C12.3608 4.76505 12.3747 4.6619 12.3528 4.56665L12.343 4.55278C12.0336 4.53502 11.6865 4.53502 11.3712 4.5765L11.3493 4.5984C11.3712 4.87794 11.3949 5.16953 11.4307 5.44518L11.3949 5.48083C11.0162 5.50272 10.6613 5.59773 10.3141 5.66926C10.2467 5.48484 10.207 5.29641 10.1516 5.11199L10.1793 5.08815C10.3716 5.05251 10.566 5.01285 10.7545 4.9592C10.7427 4.86006 10.7188 4.76493 10.693 4.66968C10.3638 4.7153 10.0584 4.80058 9.75695 4.90373V4.9592C9.83626 5.22889 9.94136 5.48873 10.0028 5.76438C9.73906 5.85769 9.48324 5.95683 9.23326 6.07373C9.21774 6.06386 9.20003 6.05798 9.1817 6.0566C9.16336 6.05522 9.14497 6.05839 9.12815 6.06583C9.06672 6.11935 9.00322 6.16704 8.94775 6.21862C8.84265 6.05196 8.75336 5.87143 8.66821 5.69699C8.86442 5.59189 9.06879 5.50662 9.26501 5.41331C9.25308 5.31417 9.20759 5.21101 9.14409 5.12975C8.82477 5.26454 8.50946 5.40735 8.21203 5.60576C8.35278 5.86353 8.51347 6.10938 8.66821 6.36131C8.36676 6.57358 8.05145 6.76189 7.7758 7.00981L7.6589 7.11296C7.52995 6.98402 7.40697 6.83537 7.27218 6.68659C7.37133 6.56567 7.50222 6.47444 7.62326 6.3753C7.69065 6.31776 7.78189 6.26825 7.84332 6.20073C7.79381 6.11935 7.73627 6.04807 7.67289 5.9707C7.34566 6.18285 7.05614 6.43077 6.76857 6.7361C6.95688 6.92855 7.2009 7.17233 7.38921 7.36076L7.30406 7.45406C7.27231 7.46598 7.2425 7.47778 7.21282 7.48764C7.1374 7.52133 7.0621 7.55515 6.98863 7.59079C7.02828 7.54311 7.07001 7.49761 7.11161 7.45199L7.19092 7.36076C6.98862 7.14058 6.77842 6.97404 6.57016 6.7361C6.9132 6.35729 7.31379 6.05987 7.7005 5.76828H7.72629L8.02773 6.20864V6.25024C7.8432 6.38503 7.65489 6.52383 7.48835 6.67649V6.70034C7.54784 6.77965 7.60525 6.83524 7.67277 6.91054C7.93455 6.70824 8.19427 6.49804 8.46992 6.31751C8.31129 6.0696 8.16252 5.81779 8.00985 5.56987C8.42041 5.32804 8.82489 5.10189 9.25321 4.93135C9.32461 5.10189 9.40003 5.28242 9.45952 5.46282L9.45551 5.4807C9.25722 5.56598 9.04896 5.64736 8.86053 5.7583C8.88839 5.85355 8.95177 5.9308 8.99544 6.02009C9.27173 5.89134 9.55215 5.77165 9.83626 5.66123C9.75099 5.37755 9.64394 5.10591 9.56268 4.81834C9.97713 4.6934 10.3995 4.57042 10.8318 4.50899C10.8715 4.68744 10.8774 4.88585 10.935 5.06236C10.818 5.10591 10.6871 5.10591 10.57 5.14362C10.4848 5.15554 10.3995 5.1733 10.3242 5.21491L10.3856 5.49457C10.5165 5.49457 10.6335 5.43107 10.7644 5.42718C10.9311 5.38545 11.1055 5.36769 11.2721 5.33594C11.2643 5.04448 11.2106 4.75094 11.1868 4.46337L11.1968 4.44549C11.6291 4.41386 12.0693 4.39196 12.5015 4.42761C12.5193 4.60813 12.4699 4.80045 12.4778 4.97696C12.4878 5.00275 12.4559 4.99886 12.4382 5.00275C12.2538 4.99485 12.0237 4.97696 11.8532 4.99874C11.8393 5.08012 11.8432 5.19702 11.8532 5.2902C12.0772 5.30213 12.2934 5.31003 12.5096 5.32001L12.5036 5.33582C12.4817 5.37584 12.4598 5.41745 12.438 5.4571ZM19.1312 11.1903L19.1469 11.2856C19.2461 11.2796 19.3493 11.2717 19.4383 11.244L19.4324 11.1824C19.4561 11.1705 19.486 11.1666 19.5077 11.1508C19.5199 11.135 19.5296 11.1071 19.5473 11.1031C19.5692 11.2102 19.5792 11.3093 19.587 11.4065C19.3986 11.4205 19.2004 11.4521 19.0199 11.4384C19.0099 11.3333 19.0002 11.2261 18.9862 11.1211C18.9962 11.119 19.0061 11.1152 19.014 11.1132C19.0419 11.1487 19.0835 11.1784 19.1312 11.1903ZM18.5878 11.9241C18.5849 11.603 18.5556 11.2826 18.5003 10.9663C18.5519 11.0158 18.6056 11.0653 18.6609 11.0931C18.6928 11.3133 18.7205 11.5334 18.7225 11.7694L18.7384 12.0033L18.7562 12.0152L19.5751 12.0212C19.5891 12.0331 19.6147 12.0252 19.6188 12.047C19.6147 12.5646 19.5435 13.0604 19.454 13.5323L19.4403 13.5461C19.2598 13.5005 19.0713 13.4728 18.8907 13.4331C18.8551 13.3796 18.9126 13.33 18.9047 13.2706C18.9448 13.093 18.972 12.9127 18.9859 12.7311C18.8908 12.7102 18.7939 12.6983 18.6965 12.6955C18.639 13.0424 18.5854 13.3875 18.4941 13.7168C18.5616 13.7702 18.6647 13.7663 18.7519 13.8021C18.9484 13.8517 19.1387 13.9052 19.3309 13.9646L19.3409 13.9786C19.1921 14.4505 19.0296 14.9186 18.8015 15.3588L18.7778 15.3688C18.621 15.2775 18.4507 15.206 18.2919 15.121C18.3632 14.9086 18.4764 14.7164 18.5476 14.5001C18.4545 14.4585 18.3632 14.4089 18.2662 14.3969C18.1493 14.7063 17.9905 15.0037 17.8378 15.3013C18.0899 15.45 18.3456 15.579 18.5936 15.7278C18.54 15.8447 18.4725 15.9578 18.4012 16.0708C18.2028 16.3839 17.9729 16.6776 17.725 16.961H17.7031C17.5762 16.8401 17.4234 16.7172 17.2985 16.6001C17.4234 16.4079 17.5941 16.2195 17.725 16.0251L17.7209 16.0073L17.4969 15.8486C17.3066 16.0826 17.1142 16.3304 16.9116 16.5565L16.8306 16.6458C17.033 16.8661 17.2431 17.0327 17.4515 17.2705C17.1084 17.6494 16.7079 17.947 16.321 18.2384H16.2954L15.9938 17.7982V17.7564C16.1782 17.6217 16.3665 17.4829 16.5332 17.3301V17.3082C16.4738 17.2269 16.4163 17.1733 16.3488 17.0961C16.087 17.2982 15.8273 17.5106 15.5516 17.6891C15.7101 17.9369 15.8588 18.1887 16.0116 18.4366C15.601 18.6806 15.1966 18.9047 14.7701 19.0752C14.6967 18.9047 14.6214 18.7243 14.562 18.5456L14.5658 18.5259C14.7642 18.4406 14.9723 18.3612 15.1608 18.2482C15.1329 18.1532 15.0717 18.0779 15.0261 17.9866C14.7493 18.115 14.4689 18.2354 14.1853 18.3476C14.2705 18.631 14.3775 18.9009 14.459 19.1884C14.0444 19.3153 13.6219 19.4362 13.1897 19.4997C13.15 19.3194 13.146 19.121 13.0865 18.9445C13.2035 18.901 13.3343 18.901 13.4512 18.8652C13.5365 18.8514 13.6218 18.8335 13.6993 18.7917L13.6359 18.5142C13.505 18.5142 13.3879 18.5758 13.2572 18.5817C13.0904 18.6214 12.916 18.6393 12.7495 18.6708C12.7572 18.9644 12.8128 19.2558 12.8347 19.5435L12.8248 19.5612C12.3945 19.5929 11.9522 19.6168 11.5199 19.579C11.5021 19.4005 11.5516 19.2063 11.5436 19.0316C11.5336 19.004 11.5655 19.0079 11.5832 19.004C11.7678 19.0137 11.9977 19.0316 12.1682 19.0077C12.182 18.9265 12.1782 18.8093 12.1682 18.7163C11.8768 18.7025 11.5971 18.6925 11.3176 18.6747C11.2679 18.9581 11.264 19.2696 11.2144 19.5492C11.1688 19.5669 11.143 19.5432 11.0975 19.5432C10.6911 19.495 10.2892 19.414 9.89575 19.3011C9.95134 19.1209 10.0047 18.9402 10.0544 18.7599C10.1754 18.7699 10.2963 18.8233 10.4232 18.8412C10.5127 18.866 10.6044 18.8826 10.6969 18.8908C10.7326 18.8015 10.7326 18.6984 10.7564 18.5994C10.679 18.5715 10.5938 18.5675 10.5164 18.5398C10.3022 18.4864 10.086 18.4328 9.87385 18.3653C9.77081 18.639 9.69929 18.9265 9.59418 19.2021C9.15394 19.0712 8.74545 18.8768 8.33489 18.6627L8.32102 18.6488L8.59668 18.145C8.78912 18.2384 8.97938 18.3512 9.18168 18.4287C9.21148 18.4227 9.21148 18.3871 9.22535 18.3653L9.31659 18.1572C9.0548 18.0181 8.78511 17.9051 8.5333 17.7444C8.36275 17.9865 8.222 18.2522 8.06131 18.4962C7.67459 18.2659 7.30381 17.9825 6.94885 17.6811L6.95481 17.6532L7.30977 17.2526H7.34943C7.49576 17.3836 7.64725 17.5086 7.80354 17.6275L7.8314 17.6315L8.00195 17.4013C7.77179 17.2091 7.52594 17.0007 7.29591 16.7845L6.67125 17.4072C6.32419 17.0682 6.01277 16.6913 5.73919 16.3049L5.75306 16.273L6.19731 15.9714C6.34207 16.1142 6.45508 16.3541 6.62563 16.4932H6.6474L6.85956 16.3085C6.6474 16.0467 6.44511 15.781 6.28246 15.4974L6.26458 15.4854C6.01277 15.6382 5.75695 15.7769 5.50903 15.9297C5.24111 15.5153 5.0278 15.068 4.8744 14.599C4.91004 14.5674 4.96563 14.5674 4.99738 14.5396C5.12633 14.49 5.26708 14.4465 5.40198 14.4047C5.48324 14.6169 5.56256 14.8331 5.67569 15.0356C5.77884 15.0356 5.8601 14.9581 5.95523 14.9184C5.81425 14.6037 5.68916 14.282 5.58044 13.9546C5.30284 14.036 5.02317 14.1173 4.74363 14.2066C4.57308 13.7067 4.48379 13.1456 4.43428 12.6001C4.62271 12.5882 4.821 12.5565 5.00152 12.5683C5.02731 12.8163 5.04519 13.0779 5.10857 13.316L5.12244 13.3339C5.22559 13.3299 5.32072 13.3021 5.41001 13.2763C5.36634 12.9272 5.30296 12.602 5.29895 12.2392L5.28313 12.0051L5.26537 11.9913L4.44632 11.9874C4.4344 11.9735 4.40667 11.9814 4.40265 11.9595C4.40472 11.6244 4.43635 11.2991 4.48197 10.9838C4.53354 10.9799 4.58512 10.962 4.63269 10.9501C4.60884 11.0929 4.59498 11.2396 4.57709 11.3784C4.5732 11.5311 4.54145 11.6798 4.56919 11.8325C4.85275 11.8523 5.14032 11.8464 5.43179 11.8602L5.43373 12.0824C5.43775 12.5326 5.49516 12.9748 5.59041 13.3931L5.57253 13.411C5.38422 13.4368 5.19384 13.4785 5.00943 13.5221C4.9559 13.2623 4.92014 12.9827 4.87452 12.7228C4.77538 12.7269 4.67222 12.7348 4.58305 12.7625C4.62271 13.1987 4.70799 13.5954 4.82112 14C5.06903 13.9641 5.30296 13.873 5.54492 13.8155C5.59455 13.8115 5.65002 13.756 5.69758 13.7977C5.78882 14.2161 5.96922 14.5988 6.15765 14.9756L6.14768 14.9993L5.6499 15.2514L5.62606 15.2454C5.51901 15.0311 5.41986 14.809 5.32462 14.5849L5.05492 14.6839C5.10054 14.9001 5.2116 15.0985 5.30673 15.3007C5.3841 15.4395 5.45563 15.5881 5.55063 15.719H5.57642L6.32005 15.3007L6.3321 15.3087C6.54023 15.6637 6.79216 16.0106 7.05784 16.3299L6.62551 16.7126C6.45496 16.5421 6.33197 16.3477 6.18527 16.1633C6.09805 16.1989 6.01861 16.2623 5.94137 16.3258C6.13564 16.6314 6.38757 16.9388 6.64728 17.1945L6.67903 17.1907C6.89921 16.9923 7.08959 16.7761 7.30381 16.5917C7.58336 16.8514 7.85901 17.1172 8.17237 17.3254L8.20011 17.3572C8.0871 17.5178 7.97993 17.6803 7.86302 17.8371C7.68736 17.7054 7.51154 17.5738 7.33556 17.4425C7.27413 17.5 7.21063 17.5813 7.16112 17.6487V17.6766C7.41694 17.9044 7.6926 18.1028 7.97616 18.2833H8.0118C8.16447 18.0453 8.33112 17.8112 8.46201 17.5634L8.48379 17.5457C8.55313 17.5873 8.62259 17.6289 8.69399 17.6706C8.71382 17.6963 8.7356 17.7219 8.76139 17.7438C8.78316 17.7538 8.78912 17.7775 8.80494 17.7954C8.80895 17.8034 8.82477 17.8034 8.82477 17.8154C8.9458 17.9066 9.06672 17.9956 9.21148 18.0375C9.28885 18.0691 9.37412 18.0751 9.45149 18.0928L9.48312 18.095C9.41573 18.2695 9.35819 18.4519 9.27097 18.6205C9.05881 18.5353 8.86248 18.4181 8.6502 18.3328L8.51931 18.5809C8.57283 18.6422 8.65409 18.6699 8.7255 18.7097C8.96551 18.8268 9.21136 18.9358 9.46524 19.0212L9.48701 19.0072L9.77459 18.1983L9.79247 18.1883C9.9809 18.2477 10.1713 18.3112 10.3597 18.3608C10.5362 18.4145 10.7246 18.4323 10.9091 18.468C10.8912 18.6624 10.8417 18.8546 10.8178 19.053L10.7999 19.061C10.5897 19.0074 10.3697 18.9757 10.1614 18.922C10.1356 19.0172 10.1039 19.1104 10.086 19.2094C10.4134 19.3069 10.7495 19.3721 11.0896 19.4041C11.1292 19.1104 11.161 18.8148 11.2066 18.5214C11.5616 18.5573 11.9483 18.567 12.3034 18.5533C12.3271 18.7554 12.3312 18.9576 12.3312 19.1423C12.1051 19.1701 11.9088 19.1383 11.6786 19.1482C11.6608 19.2414 11.647 19.3445 11.6688 19.4397L11.6786 19.4535C11.9881 19.4712 12.335 19.4712 12.6503 19.4316L12.6722 19.4078C12.6503 19.1282 12.6288 18.8367 12.591 18.5632L12.6288 18.5254C13.0054 18.5035 13.3606 18.4083 13.7074 18.337C13.7749 18.5214 13.8164 18.7097 13.8702 18.8963L13.8423 18.9182C13.6499 18.9538 13.4555 18.9935 13.2671 19.0489C13.2811 19.1481 13.3027 19.2413 13.3305 19.3365C13.6576 19.2909 13.9631 19.2057 14.2647 19.1025V19.0489C14.1854 18.7792 14.08 18.5176 14.0189 18.2439C14.1913 18.1824 14.3619 18.119 14.5284 18.0475C14.5681 18.0415 14.6097 18.0337 14.6513 18.0318C14.7169 18.0258 14.7782 17.9861 14.8416 17.9681C14.9331 17.9278 15.0192 17.8758 15.0975 17.8135C15.1881 17.977 15.2741 18.143 15.3553 18.3113C15.1571 18.4147 14.9547 18.4997 14.7565 18.593C14.7703 18.6921 14.8141 18.7972 14.8774 18.8765C15.1968 18.7418 15.5121 18.599 15.8095 18.4006C15.6686 18.1446 15.5079 17.8969 15.3553 17.645C15.6568 17.4329 15.9702 17.2445 16.2457 16.9967L16.3626 16.8935C16.4935 17.0242 16.6147 17.1729 16.7495 17.3198C16.6504 17.4429 16.5194 17.5319 16.3985 17.6313C16.331 17.6888 16.2417 17.7382 16.1782 17.8057C16.2278 17.887 16.2854 17.9604 16.3488 18.0358C16.6781 17.8254 16.9655 17.5777 17.2531 17.2703C17.0471 17.0611 16.8403 16.8529 16.6324 16.6456C16.9119 16.3443 17.2036 16.011 17.4414 15.66H17.477C17.6258 15.7632 17.7844 15.8544 17.9332 15.9616V15.9853C17.7907 16.1795 17.6465 16.3725 17.5008 16.5643C17.5504 16.6378 17.6316 16.6775 17.7032 16.7408H17.7388C17.9906 16.4393 18.2287 16.1241 18.4012 15.7869L17.6576 15.3507V15.3091C17.8776 14.9638 18.0362 14.5891 18.185 14.2162L18.2028 14.2024C18.3775 14.274 18.5618 14.3293 18.7424 14.3968C18.6749 14.613 18.5719 14.8152 18.4806 15.0255C18.5182 15.0849 18.5975 15.0849 18.6472 15.1245C18.679 15.1345 18.7147 15.1564 18.7462 15.1482C18.9187 14.8054 19.0617 14.4502 19.1608 14.0714C18.8811 13.9861 18.5974 13.9009 18.3199 13.8156C18.4309 13.4011 18.5181 13.0006 18.5577 12.5563C18.6114 12.5384 18.6849 12.5463 18.7424 12.5503L19.133 12.5881C19.139 12.826 19.0715 13.06 19.0477 13.298C19.133 13.3296 19.2283 13.3376 19.3174 13.3575C19.3949 13.1274 19.4127 12.8657 19.4443 12.6277C19.4483 12.475 19.4802 12.3263 19.4543 12.1736C19.1706 12.1558 18.8812 12.1597 18.5897 12.1459L18.5878 11.9241ZM10.3002 17.9169C11.3651 18.2125 12.5927 18.2225 13.6556 17.9291C13.6675 17.9351 13.6793 17.941 13.6934 17.9448C13.7548 17.9588 13.8084 17.9944 13.8737 18.0063C12.8108 18.3416 11.6546 18.3872 10.4866 18.1135C10.3577 18.0841 10.2301 18.0497 10.1039 18.0104C10.1714 17.9825 10.2367 17.9507 10.3002 17.9169ZM5.86801 11.7694C5.78274 13.8358 6.78815 15.813 8.42418 17.0008C8.4282 17.0287 8.43416 17.0544 8.44206 17.0783C8.44206 17.1159 8.44608 17.1536 8.45398 17.1892C7.42668 16.4715 6.58391 15.4423 6.16155 14.3018C5.91363 13.6633 5.75293 12.9674 5.7252 12.2394H5.71133C5.70564 12.0245 5.71092 11.8093 5.72714 11.5949C5.77678 11.6286 5.82239 11.6623 5.87191 11.6941L5.86801 11.7694ZM18.1513 12.2394C18.1684 11.8469 18.1465 11.4536 18.086 11.0654C18.1336 11.0615 18.1792 11.0357 18.2188 11.004C18.2608 11.2572 18.2867 11.5129 18.2963 11.7694H18.3101C18.3457 13.2984 17.8479 14.6925 16.9555 15.8724C16.5153 16.4176 16.0097 16.8798 15.4564 17.2466C15.4641 17.221 15.4801 17.1973 15.4882 17.1694C15.492 17.1198 15.5119 17.076 15.5239 17.0285C15.6217 16.9596 15.7183 16.8889 15.8135 16.8164C17.2371 15.6643 18.0583 14.0617 18.1535 12.2394H18.1513ZM10.7901 5.97873C10.3657 6.05999 9.95912 6.18893 9.59029 6.36143C9.55854 6.3753 9.52691 6.39111 9.49516 6.4051C9.47132 6.39111 9.45161 6.37724 9.42972 6.36544C9.41585 6.35547 9.40393 6.33965 9.39407 6.33175C9.38245 6.32613 9.37175 6.31879 9.36232 6.30997C9.91448 6.04769 10.5027 5.86922 11.1075 5.78044C11.0261 5.82399 10.9468 5.86766 10.8675 5.9173C10.8429 5.93923 10.817 5.95974 10.7901 5.97873ZM14.453 11.7278C14.4193 11.7337 14.3974 11.7556 14.3815 11.7774C14.3755 11.7874 14.3677 11.7992 14.3618 11.8111L14.3499 11.8368C14.2724 11.9161 14.1952 11.9815 14.0939 11.9934C13.9768 11.9757 13.8736 11.9161 13.7765 11.8427C13.7555 11.8349 13.735 11.8256 13.7152 11.815C13.6933 11.8029 13.6715 11.7891 13.6497 11.7773C13.4772 11.6562 13.2331 11.6841 13.035 11.7138C12.9338 11.7138 12.8445 11.7574 12.7672 11.811C12.7405 11.8169 12.7159 11.8299 12.6959 11.8486C12.6758 11.8647 12.6565 11.8819 12.6382 11.9001C12.6287 11.907 12.62 11.915 12.6125 11.924C12.6045 11.9338 12.5925 11.9477 12.5888 11.9635L12.5866 11.9735C12.5866 11.9795 12.5846 11.9854 12.5846 11.9933C12.5866 12.0151 12.6043 12.031 12.6362 12.023L12.65 12.0211L12.6759 12.0111L12.7075 12.027L12.7097 11.9774C12.7097 11.9774 12.7156 11.9714 12.7256 11.9655C12.7354 11.9595 12.7473 11.9535 12.7593 11.9476C12.8206 11.9039 12.8762 11.8782 12.9415 11.8584C13.0049 11.8365 13.0784 11.8227 13.1718 11.8028C13.3363 11.8088 13.4396 11.8247 13.5525 11.8684C13.6278 11.904 13.6853 11.9438 13.733 11.9814L13.7608 12.0072L13.7369 11.9972C13.7197 11.99 13.7018 11.9847 13.6835 11.9814C13.4932 11.92 13.2907 11.8862 13.0785 11.9079C12.902 11.9397 12.7276 12.027 12.6126 12.1578C12.6104 12.1618 12.6086 12.1638 12.6026 12.1776C12.594 12.1882 12.5873 12.2003 12.5829 12.2133C12.5781 12.2306 12.5803 12.2491 12.5889 12.2648C12.5813 12.2679 12.5744 12.2726 12.5689 12.2787C12.5592 12.2947 12.5556 12.3138 12.559 12.3322C12.5612 12.3461 12.567 12.36 12.5689 12.3738C12.5829 12.4096 12.6068 12.4214 12.6285 12.4294C12.6363 12.4334 12.6463 12.4354 12.6562 12.4394C12.6675 12.443 12.6783 12.4483 12.688 12.4552C12.8049 12.475 12.9081 12.5147 13.0233 12.5405C13.2392 12.6059 13.4892 12.5821 13.6816 12.481C13.7906 12.4354 13.8998 12.3699 13.9988 12.2985L14.0187 12.2787L14.0384 12.2648C14.0444 12.2569 14.0465 12.2549 14.0584 12.2431L14.0761 12.2133C14.074 12.1934 14.0702 12.1796 14.0584 12.1676L14.0465 12.1577L14.0265 12.1438L14.0146 12.1359L13.9887 12.12L13.9768 12.1121C14.0423 12.114 14.1216 12.112 14.1533 12.108C14.1969 12.0863 14.2385 12.0763 14.2742 12.0603C14.3138 12.0445 14.3497 12.0207 14.3773 11.9731C14.3833 11.9691 14.3895 11.9652 14.3933 11.9612L14.4052 11.9453C14.4132 11.9353 14.4192 11.9275 14.4349 11.9156C14.4429 11.8997 14.4548 11.8838 14.4648 11.868C14.4748 11.8501 14.4865 11.8324 14.4927 11.8124C14.5064 11.7826 14.4905 11.751 14.4648 11.7291L14.453 11.7278ZM12.7554 12.3366C12.7395 12.3326 12.7217 12.3307 12.7058 12.3247C12.682 12.3187 12.6614 12.3038 12.6483 12.2831L12.6582 12.2732C12.6742 12.2395 12.7038 12.2176 12.7454 12.192L12.7654 12.1741C12.7584 12.2026 12.7564 12.2321 12.7594 12.2613C12.7632 12.2871 12.7692 12.3148 12.7751 12.3406L12.7554 12.3366ZM13.7191 12.3345C13.7113 12.3386 13.7034 12.3405 13.6975 12.3445L13.6715 12.3584C13.6626 12.3631 13.6533 12.3671 13.6437 12.3703L13.6278 12.3742C13.4652 12.4814 13.2352 12.4654 13.0328 12.4218C12.9653 12.4118 12.9159 12.3563 12.884 12.2928C12.8802 12.2828 12.8802 12.273 12.8821 12.2572C12.8821 12.2393 12.8861 12.2235 12.888 12.2056C12.89 12.1738 12.8861 12.1363 12.8443 12.1164C13.0665 11.9836 13.3798 11.9896 13.6079 12.0906C13.6198 12.0985 13.6316 12.1065 13.6458 12.1124C13.6574 12.1184 13.6734 12.1243 13.6852 12.1302C13.7111 12.144 13.727 12.156 13.7368 12.17C13.7368 12.2036 13.7448 12.2412 13.7448 12.2749C13.745 12.3088 13.7391 12.3268 13.7191 12.3345ZM13.86 12.2493C13.846 12.2572 13.8363 12.2512 13.8321 12.2354C13.8262 12.2017 13.86 12.2275 13.8758 12.2254C13.8759 12.2335 13.864 12.2434 13.86 12.2493ZM14.4964 11.5156C14.4489 11.5216 14.4033 11.5314 14.3576 11.5393C14.312 11.5472 14.2664 11.5532 14.2227 11.5472C14.1579 11.5442 14.0936 11.5349 14.0305 11.5195C14.01 11.5084 13.9888 11.4984 13.9672 11.4897C13.9453 11.4818 13.9235 11.4758 13.9016 11.4678C13.8582 11.4559 13.8144 11.442 13.7747 11.4164C13.6638 11.3727 13.5447 11.3469 13.4317 11.3013C13.3482 11.2894 13.2711 11.2953 13.1817 11.3092C13.1283 11.3311 13.0685 11.349 13.0092 11.3667C12.9516 11.3865 12.8923 11.4103 12.8386 11.452C12.8289 11.4758 12.807 11.4897 12.7852 11.5036L12.7675 11.5155C12.7615 11.5195 12.7555 11.5234 12.7515 11.5274C12.7409 11.5369 12.7321 11.5483 12.7259 11.5611C12.684 11.5968 12.6444 11.6385 12.6009 11.6741C12.5591 11.7118 12.5116 11.7435 12.4561 11.7594C12.4463 11.7654 12.4264 11.7773 12.4204 11.7991C12.4344 11.8228 12.462 11.8269 12.4838 11.8248H12.5216C12.5335 11.8248 12.5435 11.8248 12.5592 11.8269C12.607 11.8111 12.6467 11.7832 12.6823 11.7495C12.718 11.7158 12.7517 11.6802 12.7873 11.6464C12.8569 11.5671 12.9401 11.5016 13.0451 11.4679C13.0788 11.466 13.1066 11.4541 13.1325 11.4402L13.1722 11.4204C13.1841 11.4144 13.1959 11.4104 13.2098 11.4046C13.2335 11.4105 13.2576 11.4105 13.2813 11.4105C13.307 11.4086 13.3329 11.4065 13.3586 11.4065C13.4082 11.4046 13.4557 11.4086 13.4973 11.4363C13.5926 11.4541 13.6701 11.4919 13.777 11.5196C13.8029 11.5374 13.8326 11.5493 13.8605 11.5612C13.8883 11.5732 13.9158 11.583 13.9358 11.5949L13.9495 11.597H13.9635C13.9675 11.597 13.9713 11.597 13.9854 11.603C14.0686 11.6148 14.1501 11.6308 14.2292 11.6347C14.3067 11.6387 14.3838 11.6287 14.4632 11.591C14.4772 11.595 14.4851 11.591 14.4911 11.5831L14.503 11.5732L14.5149 11.5572C14.5149 11.5533 14.5171 11.5474 14.5171 11.5435C14.5165 11.5334 14.5143 11.5235 14.4964 11.5156ZM11.2184 14.1808C11.2561 14.173 11.2938 14.163 11.3295 14.1529C11.3672 14.1432 11.4028 14.1372 11.4386 14.1352C11.4783 14.1252 11.5199 14.1292 11.5595 14.1411C11.6011 14.1511 11.6408 14.169 11.6844 14.183C11.7043 14.179 11.7123 14.1511 11.7082 14.1314C11.695 14.114 11.678 14.0997 11.6587 14.0895C11.5416 13.9746 11.3393 14.0043 11.2025 14.0539C11.1786 14.0558 11.153 14.0658 11.1272 14.0698C11.1033 14.0736 11.0835 14.0718 11.0676 14.0499C11.0358 14.0242 11.03 13.9786 11.0358 13.933C11.014 13.9091 10.9783 13.9172 10.9546 13.9389C10.9308 14.0142 10.9665 14.0818 11.0081 14.1292C11.0698 14.1927 11.1451 14.1949 11.2184 14.1808ZM12.5807 15.1328C12.4598 15.1722 12.3289 15.2121 12.1921 15.2178C12.1268 15.2338 12.0612 15.2318 11.9938 15.2218C11.9283 15.2121 11.8629 15.1962 11.7995 15.1862C11.7514 15.1822 11.7029 15.1822 11.6548 15.1862C11.6091 15.1902 11.5635 15.1981 11.5179 15.204C11.4267 15.2159 11.3375 15.2239 11.2403 15.202C11.2126 15.202 11.1908 15.1901 11.167 15.1783C11.1555 15.1709 11.1435 15.1642 11.1312 15.1583C11.1193 15.1543 11.1054 15.1484 11.0896 15.1484C11.0638 15.1346 11.048 15.1623 11.046 15.1762C11.0381 15.194 11.044 15.2081 11.052 15.2199C11.056 15.2239 11.0599 15.2299 11.0639 15.2356C11.0678 15.2396 11.0718 15.2436 11.0758 15.2518C11.2027 15.3547 11.3992 15.3608 11.5518 15.323C11.6073 15.3011 11.6649 15.2993 11.7264 15.3033C11.7859 15.3071 11.8473 15.3153 11.9049 15.3153C12.0159 15.349 12.1289 15.3449 12.2401 15.3272C12.3491 15.3094 12.4602 15.2775 12.5652 15.2497C12.5851 15.2419 12.6108 15.2357 12.6307 15.226C12.644 15.2211 12.6555 15.2126 12.6639 15.2013C12.6724 15.1901 12.6774 15.1766 12.6783 15.1626C12.6661 15.1288 12.6146 15.0991 12.5807 15.1328ZM13.0132 14.7977C13.0013 14.7839 12.9895 14.7698 12.9754 14.756C12.9475 14.7282 12.912 14.7045 12.8585 14.7045L12.8465 14.7082C12.8009 14.7382 12.8206 14.7778 12.8325 14.7975L12.8406 14.8095C12.8425 14.8135 12.8425 14.8175 12.8406 14.8234C12.779 14.8511 12.7097 14.8691 12.6422 14.881C12.555 14.8967 12.4697 14.881 12.3825 14.8591L12.2516 14.8234C12.2059 14.8135 12.1603 14.8035 12.1125 14.8015C12.057 14.8035 12.0114 14.8253 11.9718 14.845C11.954 14.8549 11.9341 14.8649 11.9142 14.8728C11.8965 14.8805 11.8778 14.8859 11.8586 14.8888C11.8051 14.865 11.7496 14.8412 11.6881 14.8254C11.6265 14.8096 11.5591 14.8035 11.4898 14.8176C11.4323 14.8254 11.3768 14.8413 11.3233 14.8552C11.2717 14.8692 11.2221 14.883 11.1745 14.8871C11.1229 14.8871 11.0713 14.8948 11.0218 14.893C10.9862 14.893 10.9525 14.8871 10.9206 14.8612C10.9227 14.8552 10.9245 14.8434 10.9227 14.8333C10.9226 14.8254 10.9205 14.8177 10.9167 14.8107C10.9129 14.8038 10.9074 14.798 10.9008 14.7936C10.8611 14.7759 10.8294 14.7859 10.8036 14.8058C10.7917 14.8136 10.7818 14.8236 10.7718 14.8334L10.758 14.8474L10.7461 14.8593L10.7383 14.8693C10.7349 14.8789 10.7294 14.8877 10.7223 14.895C10.7144 14.9049 10.7065 14.9127 10.6986 14.9209C10.6809 14.9406 10.6609 14.9665 10.6708 15.0159C10.6846 15.0378 10.7124 15.0615 10.7481 15.0575L10.762 15.0515L10.7937 15.0199C10.8024 15.011 10.8125 15.0036 10.8235 14.998C10.8394 14.994 10.8572 14.998 10.8751 15.008C10.9881 15.0753 11.1011 15.0636 11.2083 15.0336C11.2599 15.0199 11.3115 15 11.3629 14.9821C11.4145 14.9664 11.464 14.9524 11.5196 14.9464C11.5712 14.9327 11.6188 14.9424 11.6663 14.9604C11.7179 14.9782 11.7655 15.0058 11.8131 15.0277C11.8627 15.0454 11.9063 15.0396 11.946 15.0239C11.9658 15.0159 11.9837 15.0059 11.9995 14.9961C12.0153 14.9861 12.0313 14.9742 12.0451 14.9624C12.0946 14.9187 12.1819 14.9327 12.2552 14.9583C12.3604 15.0318 12.523 15.0456 12.652 15.018C12.7017 15.002 12.757 14.9901 12.8105 14.9783C12.8624 14.9664 12.9139 14.9543 12.9651 14.9346L13.017 14.9643C13.0504 14.9843 13.0842 14.9643 13.0963 14.9365L13.0982 14.9187C13.0863 14.889 13.0723 14.8553 13.0446 14.8315C13.0351 14.8214 13.0232 14.8095 13.0132 14.7977ZM11.6806 14.0361C11.7063 14.0481 11.736 14.058 11.7658 14.0658C11.7955 14.0736 11.8253 14.0798 11.859 14.0858C11.9204 14.0798 11.9859 14.0658 12.0455 14.0342L12.0553 14.0183V13.9904C12.0553 13.9785 12.0513 13.9627 12.0255 13.9469C11.9878 13.9449 11.9482 13.9489 11.9105 13.9489C11.8728 13.9509 11.835 13.9528 11.7975 13.9469C11.6943 13.9369 11.6309 13.8656 11.6031 13.7684C11.5595 13.6356 11.5752 13.5126 11.6051 13.3896C11.619 13.3262 11.6348 13.2647 11.6487 13.2013C11.6606 13.1397 11.6706 13.0763 11.6745 12.997C11.6706 12.9118 11.6567 12.8186 11.6506 12.7233C11.6447 12.6301 11.6447 12.537 11.6706 12.4477C11.6646 12.3742 11.6685 12.3049 11.6725 12.2373C11.6765 12.17 11.6785 12.1045 11.6706 12.0371C11.6763 12.027 11.6798 12.0157 11.6808 12.0041C11.6819 11.9924 11.6804 11.9807 11.6765 11.9697C11.6745 11.9597 11.6706 11.9499 11.6686 11.9381C11.6646 11.9281 11.6646 11.9202 11.6646 11.9102L11.6587 11.8964C11.6487 11.8885 11.6448 11.8806 11.6408 11.8666L11.6348 11.8566H11.6229C11.609 11.8566 11.5992 11.8587 11.5911 11.8645L11.5773 11.8764L11.5436 11.8922L11.5655 11.9022L11.5595 11.9161C11.5516 12.0489 11.5714 12.1759 11.5634 12.2928C11.5615 12.3761 11.5436 12.4514 11.5357 12.5269C11.5237 12.6042 11.5218 12.6816 11.5456 12.7629C11.5497 12.8144 11.5556 12.866 11.5595 12.9175C11.5655 12.9671 11.5674 13.0187 11.5615 13.0682C11.5515 13.1177 11.5436 13.1714 11.5318 13.2249C11.5218 13.2765 11.5099 13.328 11.4901 13.3796C11.4623 13.56 11.4425 13.7504 11.5456 13.9111C11.5735 13.9726 11.623 14.0124 11.6806 14.0361ZM14.8217 6.36934L14.8514 6.395C15.0142 6.51604 15.1907 6.60326 15.3791 6.69048C15.1989 6.57402 15.0129 6.46683 14.8217 6.36934ZM12.5807 12.7569C12.5947 12.7669 12.6126 12.7569 12.6126 12.7391C12.5986 12.7135 12.6046 12.6916 12.5949 12.6638C12.5829 12.6301 12.5512 12.6082 12.5433 12.5726C12.4817 12.4696 12.4498 12.3566 12.4162 12.2434C12.4024 12.2157 12.3805 12.1919 12.3508 12.1899C12.3414 12.1965 12.3339 12.2054 12.3289 12.2157C12.3329 12.3069 12.3568 12.4021 12.3923 12.4873C12.4421 12.5825 12.4817 12.6995 12.5807 12.7569ZM12.0971 14.1136C12.1052 14.1192 12.1152 14.1213 12.1249 14.1196C12.1427 14.1116 12.1643 14.1074 12.1922 14.1074H12.2677C12.3311 14.1037 12.3984 14.1037 12.4619 14.0955C12.5275 14.0858 12.591 14.0676 12.6406 14.0262C12.7238 13.9846 12.7259 13.8835 12.7141 13.8001L12.6922 13.7703C12.6466 13.7664 12.6266 13.7902 12.6187 13.8219C12.6142 13.8368 12.6108 13.8521 12.6087 13.8675C12.6047 13.8814 12.6028 13.8954 12.5987 13.9052C12.5253 14.0065 12.3828 14.0124 12.2617 14.0043L12.107 14.0421C12.1033 14.0461 12.0993 14.0481 12.0951 14.0521L12.0813 14.0618C12.0714 14.0718 12.0654 14.0837 12.0793 14.1037L12.0971 14.1136ZM11.8253 14.3216C11.7996 14.3254 11.8035 14.3535 11.7955 14.3713C11.869 14.4129 11.9741 14.4545 12.0515 14.387C12.0613 14.3673 12.0832 14.3513 12.0772 14.3254C12.0793 14.3077 12.0653 14.3057 12.0515 14.3057C11.9959 14.3435 11.8947 14.3395 11.8253 14.3216ZM12.3152 14.528C12.2873 14.512 12.2596 14.4943 12.2299 14.4783C12.2 14.4632 12.1678 14.4532 12.1347 14.4486C12.0832 14.4327 12.0415 14.4446 12.0019 14.4624C11.9841 14.4704 11.9642 14.4804 11.9464 14.4902C11.9286 14.4983 11.9127 14.5062 11.8948 14.5102C11.8095 14.4566 11.7242 14.4665 11.643 14.4962C11.6014 14.5121 11.5617 14.5299 11.52 14.5499C11.4813 14.5676 11.4415 14.5829 11.4009 14.5955C11.3889 14.6026 11.3751 14.606 11.3612 14.6052C11.3474 14.6052 11.3314 14.6014 11.3177 14.5992C11.2879 14.5933 11.2521 14.5895 11.2284 14.6211C11.2205 14.6311 11.2224 14.6411 11.2263 14.649C11.2263 14.653 11.2284 14.6568 11.2402 14.6709C11.3195 14.7046 11.4008 14.7025 11.4802 14.6728C11.504 14.6669 11.5258 14.6569 11.5476 14.6472C11.5695 14.6372 11.5892 14.6272 11.609 14.6172C11.6487 14.5995 11.6864 14.5838 11.7301 14.5856L11.74 14.5837C11.7539 14.5815 11.7679 14.5856 11.7836 14.5934L11.8094 14.6034C11.8185 14.6083 11.8288 14.611 11.8392 14.6112C11.8451 14.6112 11.853 14.6134 11.861 14.6152C11.8689 14.6171 11.8787 14.6211 11.8867 14.6252C11.9046 14.6311 11.9264 14.6371 11.9522 14.6292C12.0335 14.5617 12.1108 14.5776 12.1921 14.6092C12.2339 14.6252 12.2755 14.6449 12.3192 14.6608C12.3626 14.6748 12.4082 14.6845 12.458 14.6807L12.4717 14.6727L12.4895 14.6708C12.4955 14.6708 12.5014 14.6708 12.5095 14.6686C12.5172 14.6666 12.5232 14.6629 12.5292 14.6508C12.5332 14.6311 12.5272 14.5974 12.4975 14.5855C12.4261 14.5913 12.3708 14.5636 12.3152 14.528ZM19.6268 10.758C19.6268 10.6529 19.5911 10.5457 19.5774 10.4407C19.5475 10.4011 19.5574 10.3476 19.5355 10.3098C19.5278 10.2088 19.4583 10.1353 19.4383 10.0402C19.379 9.89138 19.3075 9.76256 19.2242 9.61768C19.2162 9.50868 19.2043 9.41538 19.1764 9.31624C19.1587 9.29848 19.1548 9.28449 19.1408 9.2666C19.137 9.24884 19.123 9.23303 19.1191 9.21113C19.107 9.20128 19.1052 9.18145 19.0932 9.16758C19.0496 9.07829 18.9921 8.97526 18.9187 8.90981C18.8474 8.78877 18.7341 8.68367 18.6391 8.57857C18.6172 8.56081 18.5776 8.54086 18.5657 8.51701C18.4585 8.40595 18.3236 8.31082 18.1967 8.21363C18.1653 8.20071 18.1359 8.18333 18.1095 8.16205C18.0379 8.11448 17.9549 8.06887 17.8774 8.02726C17.7108 7.95792 17.5602 7.88056 17.3856 7.81706C17.2865 7.78141 17.1896 7.73969 17.0824 7.72181C16.9892 7.7139 16.9137 7.65843 16.8324 7.62863C16.7571 7.60673 16.7053 7.5453 16.644 7.50953C16.5824 7.45199 16.5091 7.41623 16.4515 7.36477C16.3981 7.32913 16.3426 7.3014 16.3028 7.25566C16.1243 7.11686 15.9856 6.88877 15.7753 6.7777C15.6444 6.73999 15.5056 6.6726 15.3747 6.69048C15.1903 6.60326 15.0142 6.51592 14.8514 6.395C14.798 6.34549 14.742 6.30377 14.6826 6.26022C14.4545 6.02824 14.1611 5.8656 13.8258 5.8617C13.7724 5.86949 13.7186 5.89138 13.667 5.87946C13.5224 5.63155 13.2249 5.60576 12.979 5.51854C12.8541 5.47085 12.7868 5.34993 12.7352 5.23486C12.7315 5.20116 12.7093 5.17537 12.7071 5.13571C12.6955 5.10992 12.6695 5.09204 12.6458 5.08024C12.6099 5.06431 12.5723 5.08608 12.5466 5.10798C12.5209 5.1834 12.5314 5.26636 12.5036 5.33582C12.4739 5.3874 12.4435 5.44713 12.4157 5.49469C12.3581 5.58191 12.2531 5.65137 12.1698 5.66524C12.0886 5.61963 11.9974 5.60576 11.9082 5.58593C11.8745 5.57997 11.8288 5.58593 11.7971 5.57802C11.5988 5.58593 11.3944 5.62157 11.2398 5.71086C11.1089 5.78032 10.9903 5.842 10.8675 5.9173C10.7643 6.01644 10.6311 6.05987 10.5279 6.15305C10.4526 6.19672 10.403 6.23638 10.3297 6.27603C10.1512 6.40291 9.91521 6.49804 9.68712 6.47237C9.58992 6.48624 9.50502 6.40705 9.42972 6.36544C9.41585 6.35547 9.40393 6.33965 9.39407 6.33175C9.32072 6.2961 9.31245 6.20876 9.26878 6.15512C9.23301 6.13723 9.25491 6.08967 9.22511 6.06583C9.20982 6.05897 9.19326 6.05542 9.17651 6.05542C9.15976 6.05542 9.14344 6.05897 9.12815 6.06583C9.00127 6.17494 8.86807 6.26216 8.80664 6.41094C8.75117 6.54378 8.68365 6.68063 8.7075 6.84522C8.65397 6.89084 8.58062 6.9165 8.52308 6.96224C8.48342 6.99789 8.42199 7.03158 8.37832 7.0772C8.32674 7.13474 8.2613 7.19422 8.22565 7.26356C8.23161 7.28132 8.21179 7.28132 8.20582 7.28741C8.07299 7.29142 7.92214 7.29337 7.77544 7.30918C7.57521 7.33497 7.39712 7.42414 7.21282 7.48764C7.03424 7.565 6.85737 7.65028 6.69667 7.75344C6.6193 7.78908 6.5479 7.85258 6.48245 7.90209C6.39523 7.98347 6.28806 8.0449 6.21081 8.13808C6.15327 8.19355 6.0978 8.24915 6.06009 8.3225C6.07992 8.37603 6.01642 8.42955 6.06995 8.47115C6.0343 8.52869 5.95499 8.57626 5.93115 8.64779C5.68323 8.75082 5.47704 8.91139 5.26683 9.0761C5.07049 9.25858 4.88012 9.43302 4.74521 9.66512C4.71541 9.68093 4.73134 9.7167 4.70154 9.7246C4.6957 9.74249 4.67782 9.75234 4.66784 9.76828C4.62429 9.87143 4.56274 9.96267 4.52904 10.0717C4.50325 10.1034 4.50119 10.1451 4.48537 10.1807C4.47941 10.1985 4.4715 10.2203 4.46761 10.2401L4.4518 10.3254C4.44389 10.3452 4.45776 10.371 4.43391 10.383C4.42394 10.4067 4.40813 10.4405 4.42601 10.4642C4.41409 10.5276 4.44377 10.5713 4.46761 10.6169C4.46566 10.6586 4.42394 10.6863 4.40813 10.722C4.38027 10.7557 4.35655 10.7994 4.32881 10.8331C4.31093 10.8905 4.36445 10.9382 4.39815 10.9738C4.48537 11.0017 4.57466 10.9639 4.65799 10.9422C4.77295 10.9164 4.86819 10.8529 4.97719 10.8113C5.01089 10.9382 5.04264 11.081 5.15966 11.1683C5.22109 11.204 5.30089 11.2142 5.3723 11.2121C5.44565 11.2379 5.49675 11.1841 5.55234 11.1643C5.56025 11.1643 5.56426 11.1703 5.56231 11.1782C5.54638 11.3229 5.60392 11.4538 5.68128 11.5629C5.77045 11.6205 5.83991 11.68 5.93504 11.7335C5.92713 11.8068 5.94501 11.8763 5.95694 11.9379C5.98066 11.9735 5.98066 12.0251 6.00645 12.0607C6.09172 12.2412 6.26239 12.3423 6.42698 12.4356C6.55191 12.4793 6.65701 12.4951 6.79387 12.4555C6.80177 12.4476 6.81966 12.4416 6.82951 12.4455C6.8553 12.5407 6.889 12.6299 6.93267 12.7171C6.95846 12.7469 6.97828 12.7786 6.99605 12.8043C7.01587 12.8619 7.06551 12.9015 7.0992 12.9491C7.15078 13.0205 7.238 13.0462 7.28374 13.1256C7.32145 13.2367 7.41463 13.3358 7.52764 13.3735C7.53956 13.3953 7.57922 13.3855 7.57326 13.4171C7.53555 13.4587 7.53555 13.5202 7.50587 13.5697C7.50976 13.6669 7.49979 13.7919 7.5454 13.881C7.54346 13.9147 7.5673 13.9307 7.57326 13.9642C7.57533 13.9664 7.58117 13.9742 7.58907 13.9742C7.60489 14.0517 7.67033 14.0874 7.71997 14.133C7.7398 14.2123 7.79928 14.2738 7.85877 14.3274C7.89842 14.3533 7.95 14.369 7.99562 14.3867C7.99562 14.4104 7.99562 14.4323 8.00353 14.4523C8.01739 14.5198 8.03515 14.5851 8.05705 14.6485C8.06496 14.6981 8.09671 14.7457 8.1225 14.7814C8.13831 14.8292 8.17809 14.8648 8.19597 14.9082C8.16811 14.9519 8.14829 15.0035 8.12651 15.0491C8.08685 15.1782 8.08284 15.2891 8.11654 15.42C8.12444 15.4378 8.12444 15.4597 8.14233 15.4756C8.1939 15.6244 8.3327 15.7353 8.47357 15.8027C8.50921 15.8521 8.52904 15.9037 8.53306 15.9652C8.55483 16.0704 8.51919 16.1714 8.50131 16.2726C8.49729 16.326 8.48938 16.3935 8.47357 16.4432C8.4715 16.4551 8.47552 16.4651 8.46761 16.4729C8.46566 16.5522 8.44778 16.6157 8.43793 16.691C8.43586 16.7169 8.43987 16.7288 8.43002 16.7446C8.43002 16.8515 8.40435 16.9771 8.44206 17.0783C8.43817 17.1873 8.48561 17.2858 8.50751 17.387C8.58488 17.5061 8.6502 17.6408 8.76127 17.7539C8.78304 17.7539 8.78912 17.7775 8.80494 17.7954C8.80895 17.8034 8.82477 17.8034 8.82477 17.8154C8.9458 17.9066 9.06672 17.9956 9.21148 18.0375C9.28885 18.0691 9.37412 18.0751 9.45149 18.0928C9.59224 18.1009 9.76461 18.1107 9.89757 18.0732C10.3001 17.988 10.5896 17.7023 10.9544 17.5339C11.0735 17.496 11.1865 17.4346 11.3234 17.4404C11.3531 17.4663 11.3571 17.5217 11.3888 17.5357C11.4285 17.6229 11.5138 17.6803 11.599 17.7141C11.6645 17.742 11.7477 17.742 11.8291 17.7498C11.9263 17.752 12.0314 17.7341 12.1147 17.6823C12.1663 17.6725 12.1741 17.6229 12.2197 17.5972C12.3072 17.6626 12.4241 17.6766 12.5371 17.6766C12.5846 17.6982 12.642 17.7022 12.6976 17.6963C12.8105 17.6584 12.8958 17.5753 12.9536 17.4722C12.9752 17.4344 12.997 17.4781 13.0149 17.4899C13.0308 17.5037 13.0567 17.5077 13.0625 17.5256C13.1637 17.6188 13.2589 17.7081 13.374 17.7874L13.5228 17.8746C13.5843 17.8846 13.636 17.927 13.6934 17.9448C13.7707 17.9628 13.8339 18.0114 13.9234 18.0114C13.9311 18.0114 13.9393 18.0254 13.9471 18.0136C13.9946 18.0234 14.0463 18.0293 14.0939 18.0471C14.1652 18.0433 14.2367 18.0648 14.308 18.0611C14.3436 18.0591 14.3755 18.0551 14.4092 18.0648C14.4905 18.0591 14.5682 18.0376 14.6513 18.0318C14.7169 18.0258 14.7782 17.9861 14.8416 17.9681C14.9864 17.9028 15.129 17.8072 15.2262 17.6803C15.2955 17.6566 15.2896 17.5753 15.3371 17.5357C15.359 17.4564 15.3967 17.3751 15.4443 17.3056C15.4363 17.2976 15.4463 17.2897 15.4521 17.2879C15.4502 17.2423 15.4763 17.2092 15.4882 17.1694C15.4942 17.1038 15.5256 17.0457 15.5314 16.9804C15.5733 16.8157 15.5851 16.6095 15.583 16.4589C15.6067 16.3795 15.5889 16.328 15.5989 16.2467C15.5911 16.2049 15.5911 16.1692 15.5852 16.1256C15.5771 16.0762 15.5889 16.0305 15.6009 15.9827C15.6186 15.9352 15.6427 15.8955 15.6605 15.8481C15.6605 15.8202 15.6883 15.8044 15.6883 15.7746C15.7496 15.6911 15.7855 15.5941 15.8468 15.5187C15.8528 15.485 15.8728 15.4593 15.8787 15.4274C15.9044 15.3758 15.9263 15.3265 15.9343 15.2668C15.9421 15.2491 15.9321 15.2212 15.944 15.2015C15.9403 15.1222 15.95 15.029 15.9343 14.9515C15.9321 14.8683 15.8906 14.805 15.8865 14.7256C15.9421 14.6641 15.958 14.5848 15.9858 14.5095C15.9877 14.4439 16.0114 14.3826 16.0015 14.317C16.0234 14.2774 16.057 14.2654 16.071 14.2198C16.0967 14.1129 16.1226 13.9819 16.0927 13.8668C16.0967 13.8233 16.0651 13.7894 16.071 13.7478C16.1104 13.7499 16.1501 13.7637 16.1939 13.7696C16.3011 13.7657 16.412 13.7975 16.5172 13.7577C16.5648 13.72 16.6163 13.7736 16.6738 13.7696C16.7313 13.7538 16.7728 13.7975 16.8363 13.7815C16.87 13.7717 16.8682 13.7359 16.876 13.7043C16.7928 13.6606 16.7847 13.5774 16.7354 13.5099C16.6798 13.4028 16.767 13.2919 16.7788 13.1807C16.7788 13.1669 16.7965 13.1609 16.7928 13.143C16.8403 13.0637 16.8621 12.9705 16.8977 12.8893C16.9018 12.8714 16.9215 12.8535 16.9196 12.8357C16.9553 12.7822 16.9772 12.7207 16.999 12.6592C17.0246 12.5997 17.0346 12.5244 17.0524 12.4629C17.082 12.3637 17.0783 12.2744 17.0701 12.1655C17.0682 12.0742 17.0385 11.9889 17.0067 11.9117C16.993 11.8997 16.989 11.878 16.9848 11.864C16.997 11.8779 17.0245 11.8501 17.0445 11.864C17.1951 11.86 17.3004 11.745 17.3854 11.628C17.3817 11.6162 17.3935 11.6122 17.3994 11.6043C17.4054 11.5666 17.4351 11.5348 17.4431 11.4932C17.4212 11.4219 17.5065 11.4 17.54 11.3564C17.5937 11.2355 17.6393 11.1046 17.6216 10.9558C17.6313 10.924 17.665 10.9221 17.6891 10.8963C17.6988 10.8903 17.7167 10.8844 17.7285 10.8944C17.7425 10.8865 17.7622 10.9042 17.7801 10.9102C17.8594 10.9816 17.9288 11.1125 18.0597 11.0648C18.1432 11.0708 18.2225 11.0093 18.2741 10.9479C18.276 10.9142 18.3175 10.9063 18.3175 10.8725C18.3215 10.8507 18.3235 10.823 18.3453 10.8091C18.3672 10.8289 18.3932 10.8607 18.4109 10.8865C18.5019 10.9579 18.5894 11.0689 18.6906 11.1066C18.734 11.1423 18.8035 11.1244 18.8551 11.1482C18.9087 11.1305 18.9625 11.1311 19.014 11.1132C19.0459 11.1529 19.0973 11.186 19.1507 11.1939C19.1803 11.2077 19.22 11.2137 19.2479 11.2256C19.3034 11.2276 19.351 11.2038 19.4084 11.1998C19.4321 11.17 19.478 11.1705 19.5077 11.1508C19.5199 11.135 19.5296 11.1071 19.5473 11.1031C19.5692 11.127 19.6007 11.1523 19.6405 11.1523C19.6642 11.176 19.6821 11.1403 19.6999 11.1345C19.6843 11.0079 19.625 10.8948 19.6268 10.758ZM16.7453 7.79321C16.8703 7.84285 17.1421 7.79918 17.3762 7.92009C17.5883 8.02909 17.8024 8.07872 17.9989 8.22348C18.1118 8.30681 18.2308 8.39014 18.3458 8.4714C18.4331 8.56263 18.562 8.67966 18.6632 8.75106C18.7664 8.84437 18.8198 8.97319 18.917 9.06248C18.9347 9.12391 18.9963 9.16162 19.0022 9.22719C19.0319 9.243 19.0182 9.27877 19.0459 9.29653C19.0775 9.34993 19.0993 9.40954 19.0993 9.47304C18.6987 9.13985 18.3816 8.72333 17.8916 8.50327C17.0685 8.00147 15.3532 8.26131 14.9445 7.65052V7.62473C15.3612 7.88846 15.7556 7.80514 16.2317 7.78348C16.319 7.78944 16.3983 7.79735 16.4755 7.78348C16.5372 7.75757 16.6818 7.76949 16.7453 7.79321ZM16.5649 7.64249C16.3269 7.67424 14.9426 7.7774 14.9685 7.38266C15.2857 7.29738 15.6091 7.22999 15.9403 7.26563C16.0513 7.23996 16.5075 7.54931 16.5649 7.64249ZM15.986 7.10713C15.877 7.14678 15.7439 7.11309 15.6288 7.12489C15.4641 7.1407 15.3017 7.19033 15.1392 7.20031C15.0955 7.20432 14.808 7.27171 14.7962 7.29154C14.7881 7.30541 14.8378 7.42633 14.8416 7.46002C14.7583 7.56123 14.4649 7.68215 14.332 7.66634C14.1714 7.6802 14.0266 7.58495 13.868 7.59286C13.5409 7.6088 13.3208 7.7892 13.0372 7.84273C13.1503 7.67023 13.3624 7.48776 13.5212 7.35687C14.2012 6.79765 14.2608 7.27354 14.9688 6.96626C15.3851 6.78379 15.6567 6.75009 15.986 7.10713ZM17.3186 9.55028C17.2908 9.57607 17.2471 9.57413 17.2174 9.59992C17.1778 9.48289 17.0983 9.49481 17.033 9.41951C17.1262 9.41355 17.3939 9.4492 17.4533 9.52462C17.4059 9.52255 17.3661 9.55223 17.3186 9.55028ZM17.9352 10.1651C17.5583 10.1651 17.4177 10.4962 17.1083 10.6092C17.1003 10.3772 16.904 10.1848 17.1161 9.86559C17.158 9.80611 17.2213 9.75648 17.2867 9.72278C17.6677 9.52048 17.8282 9.86559 17.9352 10.1651ZM16.6065 9.22901C16.6065 9.22901 16.5828 9.22111 16.5828 9.22707C16.4796 9.18534 16.2138 9.18741 16.1069 9.21709C15.492 9.38375 14.9505 8.98511 14.564 8.55278C14.5105 8.49135 14.4449 8.47152 14.3934 8.41994C14.5918 8.36642 14.792 8.27713 15.0002 8.26533C15.2185 8.25341 15.4523 8.33868 15.6685 8.36836C15.8926 8.39817 16.1107 8.38624 16.335 8.40206C16.5075 8.41398 16.7832 8.47541 16.92 8.58051C16.9834 8.63015 17.0766 8.67576 17.1303 8.73525C17.2532 8.8721 17.3385 9.02477 17.4991 9.12793C17.2749 9.3638 16.8881 9.29848 16.6065 9.22901ZM14.8555 9.04058C14.9271 9.10408 15.0143 9.14167 15.0936 9.19727C15.2937 9.30431 15.9085 9.47097 16.1089 9.34981C16.1089 9.35784 16.1208 9.34592 16.1229 9.34202C16.4559 9.24288 16.9181 9.37974 17.0825 9.69492C16.924 9.84759 16.7791 10.5338 17.0072 10.6508C16.6445 10.9265 16.5354 10.2146 16.0533 10.276C15.992 10.1987 15.722 9.9825 15.6211 10.0123C15.5695 10.0281 15.5318 10.1015 15.4823 10.1253C15.3651 10.1828 14.9842 10.153 14.8833 10.0658C14.8454 10.0341 14.8633 9.95476 14.8574 9.90914C14.8396 9.7881 14.6036 9.08219 14.5442 8.97319C14.4508 8.80264 14.3281 8.69158 14.2209 8.53295C14.4311 8.58051 14.6868 8.88792 14.8555 9.04058ZM14.9964 10.5696C14.913 10.5538 14.8693 10.4744 14.798 10.4406C14.802 10.3831 14.8396 10.276 14.8596 10.2204C15.0996 10.3395 15.4823 10.3552 15.6826 10.155C15.726 10.1708 15.9127 10.3157 15.9442 10.3533C15.9422 10.3889 15.9838 10.4068 15.992 10.4405C16.0176 10.4603 16.0216 10.498 16.0473 10.5179C16.0653 10.5714 16.0752 10.6309 16.0752 10.6884L16.0592 10.7062C15.978 10.617 15.9286 10.5238 15.8292 10.4424C15.7895 10.4107 15.7439 10.3968 15.7242 10.3433L15.6608 10.3215C15.6093 10.3433 15.6112 10.4028 15.5815 10.4405C15.6189 10.6092 15.1133 10.6688 14.9964 10.5696ZM14.9964 14.986C15.0184 14.988 15.0403 14.9817 15.0577 14.9682C15.1549 14.877 15.1986 14.7539 15.288 14.6666C15.3196 14.6925 15.2758 14.7103 15.2721 14.7382C15.2581 14.7975 15.2187 14.8431 15.1986 14.8987C15.1649 14.9681 15.1093 15.0296 15.0914 15.1109C14.9824 15.2577 14.8514 15.4024 14.7464 15.5371C14.7028 15.5908 14.6552 15.6461 14.6136 15.7039C14.5997 15.7197 14.5878 15.737 14.5779 15.7555C14.5501 15.7871 14.5223 15.8109 14.4986 15.8445C14.4906 15.8742 14.5064 15.8924 14.5223 15.9139C14.5461 15.9219 14.572 15.9239 14.6017 15.9179C14.7622 15.7354 14.905 15.5333 15.0598 15.3448C15.1191 15.3111 15.141 15.2356 15.1807 15.188C15.2241 15.1108 15.2957 15.0392 15.3313 14.948C15.3491 14.954 15.3472 14.9799 15.3453 14.9976C15.3331 15.0473 15.3034 15.0689 15.2857 15.1126C15.2401 15.1919 15.1785 15.2694 15.1311 15.3487C15.0558 15.4597 14.9605 15.5369 14.8992 15.6519C14.8139 15.7571 14.7446 15.8622 14.6571 15.9433C14.5899 16.0149 14.5283 16.1061 14.4569 16.1636C14.35 16.2805 14.2348 16.4114 14.1159 16.5027C14.0781 16.5443 14.0266 16.572 13.991 16.6098C13.9294 16.6911 13.8342 16.7307 13.7649 16.806C13.7155 16.8238 13.6758 16.7823 13.628 16.7704C13.6004 16.7467 13.5467 16.7447 13.5448 16.6969C13.632 16.6294 13.7292 16.5541 13.8105 16.4808C13.882 16.3995 13.983 16.3105 14.0545 16.2192C14.0564 16.1933 14.0882 16.1696 14.0723 16.1399C14.0563 16.12 14.0366 16.1002 14.0126 16.118C13.9136 16.2052 13.8067 16.3342 13.7055 16.4214C13.6698 16.4433 13.6421 16.477 13.6083 16.4929C13.6063 16.5126 13.5786 16.5166 13.5667 16.5264C13.5211 16.572 13.4655 16.6098 13.4139 16.6475C13.3605 16.6653 13.2948 16.6295 13.2474 16.6097C13.2055 16.5978 13.1421 16.5878 13.1205 16.5541C13.2434 16.4806 13.3306 16.3816 13.4398 16.2984C13.5745 16.205 13.6657 16.0484 13.7967 15.9512C14.0268 15.7151 14.2011 15.4891 14.3955 15.2351C14.5345 15.0291 14.6594 14.8485 14.7782 14.6323C14.7881 14.6067 14.7981 14.5748 14.8218 14.5511C14.8338 14.5174 14.8515 14.4877 14.8597 14.4479C14.8853 14.4042 14.8934 14.3567 14.925 14.313C14.9387 14.2914 14.9428 14.2596 14.9746 14.2517C15.0003 14.2695 15.0043 14.2893 15.03 14.313C15.0856 14.3826 15.1571 14.4401 15.2005 14.5174C15.1927 14.563 15.1571 14.6027 15.1372 14.6464C15.0753 14.7443 15.0177 14.8448 14.9647 14.9478C14.9724 14.9622 14.9805 14.9782 14.9964 14.986ZM14.9645 16.4753C14.9686 16.6221 14.9289 16.7668 14.9012 16.9118C14.8925 16.9192 14.8858 16.9287 14.8816 16.9394C14.8775 16.9501 14.876 16.9617 14.8774 16.9731C14.8752 16.989 14.8634 17.003 14.8575 17.0187C14.8338 17.0862 14.7881 17.1496 14.7169 17.1695C14.6037 17.1814 14.4728 17.1814 14.3756 17.1377C14.326 17.1239 14.2864 17.0961 14.2447 17.0883C14.1416 17.0287 14.0029 16.9574 13.9077 16.8939C13.9811 16.8243 14.0545 16.7789 14.118 16.7092C14.3104 16.5626 14.473 16.3702 14.6375 16.2036C14.7465 16.0728 14.8597 15.9596 14.9606 15.8209C15.0063 15.7556 15.0738 15.686 15.1094 15.6185C15.1056 15.6622 15.076 15.6741 15.0738 15.7178C15.0501 15.7793 15.0262 15.8427 15.0122 15.9062C15.0003 15.9934 14.9806 16.0925 14.9806 16.1839C14.9605 16.2771 14.9805 16.3783 14.9645 16.4753ZM9.84417 16.5606C9.87397 16.6142 9.90755 16.6598 9.96119 16.7034C10.0563 16.7968 10.1516 16.8939 10.2507 16.9731C10.2507 16.995 10.223 17.0068 10.2051 17.0149C10.1535 17.0149 10.1119 16.9731 10.0682 16.9513C9.99489 16.876 9.90767 16.8581 9.85013 16.771C9.81242 16.7294 9.77471 16.6935 9.73906 16.662C9.73906 16.6423 9.73116 16.652 9.72118 16.6363C9.69551 16.5964 9.65184 16.5668 9.61413 16.5271C9.57849 16.4915 9.54662 16.4399 9.50708 16.4042C9.50915 16.3865 9.48725 16.3805 9.48531 16.3646C9.44176 16.307 9.39407 16.2774 9.36038 16.2158C9.31476 16.1721 9.2869 16.1108 9.2453 16.063C9.2155 15.9937 9.16197 15.9284 9.12827 15.8608C9.12037 15.8349 9.10443 15.8172 9.10054 15.7915C9.07682 15.7756 9.08472 15.7437 9.06088 15.7259C9.04896 15.6606 8.99544 15.609 8.97962 15.5375C8.95629 15.4848 8.93899 15.4296 8.92804 15.373C8.91223 15.3134 8.88243 15.244 8.86856 15.1965C8.88449 15.1587 8.91223 15.1272 8.93206 15.0953H8.95189C8.97962 15.2063 9.04105 15.2975 9.06684 15.4027C9.12244 15.5196 9.17195 15.6386 9.22742 15.7517C9.25917 15.7617 9.27109 15.8211 9.31269 15.8033C9.33848 15.7955 9.3504 15.7696 9.35831 15.7437C9.3504 15.6983 9.33653 15.6547 9.31476 15.6188C9.30685 15.5654 9.27316 15.5197 9.25126 15.4722C9.25126 15.4443 9.21951 15.4385 9.22353 15.4106C9.21562 15.375 9.18983 15.3372 9.18387 15.2957C9.15808 15.2341 9.13034 15.1548 9.10261 15.0935C9.09665 15.0419 9.07682 14.9963 9.07086 14.9447C9.14421 14.8832 9.21951 14.8079 9.28885 14.7503C9.31062 14.78 9.30272 14.8238 9.33252 14.8513C9.38008 15.0734 9.50502 15.2599 9.59625 15.4603C9.76096 15.7121 9.9354 15.9758 10.1614 16.1961C10.2864 16.3387 10.4211 16.4755 10.5739 16.5905C10.6315 16.6363 10.7008 16.6798 10.7543 16.7236C10.7564 16.7314 10.7543 16.7413 10.7464 16.7413C10.679 16.775 10.6076 16.8166 10.5383 16.8503C10.5304 16.8503 10.5204 16.8523 10.5223 16.8603C10.5025 16.8503 10.5046 16.8879 10.4846 16.8781C10.4609 16.8958 10.4271 16.8781 10.3994 16.8661C10.3102 16.8105 10.2546 16.749 10.1674 16.6737C10.1393 16.642 10.1057 16.6158 10.0682 16.5962C10.0405 16.5665 10.0028 16.5468 9.97701 16.5249C9.94136 16.513 9.90755 16.5012 9.86996 16.503C9.85013 16.517 9.83821 16.5367 9.84417 16.5606ZM9.07074 16.3424C9.06867 16.2512 9.05079 16.1759 9.06076 16.0807L9.07074 16.0669C9.17389 16.2057 9.26707 16.3544 9.39395 16.4912C9.45149 16.5628 9.51304 16.644 9.59029 16.7034C9.69734 16.8283 9.82045 16.9593 9.9691 17.0506C9.99294 17.0762 10.0247 17.0902 10.0465 17.1081C10.0108 17.1577 9.95134 17.1756 9.89964 17.1953C9.88188 17.219 9.84806 17.2252 9.82239 17.2369C9.70731 17.2788 9.62009 17.3441 9.50307 17.3738L9.47327 17.3957C9.38604 17.4313 9.27097 17.4353 9.18971 17.3879C9.16599 17.3799 9.16781 17.3582 9.14616 17.356C9.13229 17.3441 9.1183 17.3303 9.10261 17.3184C9.03509 17.1776 9.05103 17.0188 9.05298 16.8503C9.06879 16.6934 9.04495 16.5012 9.07074 16.3424ZM8.59668 15.1544C8.61055 15.1051 8.62843 15.0594 8.63439 15.0098C8.6721 14.9363 8.6839 14.881 8.73754 14.8136C8.74274 14.8012 8.75093 14.7902 8.76139 14.7817C8.88827 14.6052 9.03509 14.4586 9.22742 14.3395L9.2453 14.3495V14.4724C9.24141 14.4943 9.23475 14.5155 9.22547 14.5357V14.5497C9.2155 14.5575 9.20564 14.5694 9.20771 14.5854C9.08083 14.7519 8.87659 14.8551 8.76552 15.0416C8.72781 15.0791 8.70202 15.1347 8.6901 15.1881C8.66638 15.2081 8.68414 15.2497 8.66042 15.2656C8.65847 15.2834 8.65446 15.2973 8.65446 15.3212C8.63865 15.3272 8.64655 15.3369 8.63463 15.3449C8.567 15.3212 8.61067 15.222 8.59668 15.1544ZM10.675 16.4656C10.4946 16.3247 10.3439 16.1522 10.1853 15.9916C10.0207 15.7795 9.85804 15.593 9.73116 15.3649C9.65768 15.2024 9.58238 15.0834 9.5229 14.9209C9.50708 14.8593 9.48519 14.7978 9.45952 14.7384C9.42582 14.6391 9.38021 14.5322 9.41597 14.4191C9.41792 14.3715 9.41597 14.3257 9.40794 14.2822C9.42181 14.2526 9.38617 14.2386 9.39407 14.201L9.40794 14.2129L9.41001 14.2107C9.41792 14.2187 9.41208 14.2366 9.41998 14.2526C9.42664 14.2582 9.43202 14.2652 9.43579 14.273C9.43957 14.2809 9.44164 14.2895 9.44188 14.2982C9.48944 14.4448 9.5926 14.5679 9.65209 14.7125C9.71352 14.8374 9.78894 14.9484 9.8702 15.0597C9.89806 15.0913 9.91971 15.131 9.95146 15.1587C9.99708 15.1647 10.0071 15.2181 10.0406 15.2422C10.2231 15.4424 10.4393 15.5674 10.6456 15.73C10.7228 15.8134 10.824 15.8708 10.8874 15.958C10.9846 16.0374 11.0541 16.1346 11.1592 16.2058C11.3534 16.412 11.6629 16.3527 11.9305 16.3724C12.1566 16.3626 12.3728 16.3208 12.5671 16.2336C12.6543 16.2296 12.7159 16.178 12.7912 16.1443C12.8647 16.0849 12.928 16.0214 12.9796 15.9421L13.0015 15.9343C13.0947 15.8568 13.18 15.7559 13.2633 15.6744C13.3727 15.5818 13.4798 15.4866 13.5846 15.3887C13.6796 15.3372 13.7471 15.2441 13.8204 15.1706C13.9493 15.0656 14.0426 14.9088 14.1497 14.78C14.1954 14.7065 14.2547 14.6332 14.2926 14.5519C14.3301 14.4985 14.3419 14.4231 14.3955 14.3954C14.4214 14.4111 14.4054 14.4469 14.4314 14.4667C14.4491 14.4885 14.4491 14.5282 14.4789 14.5441C14.4929 14.5798 14.4989 14.6194 14.5226 14.6491C14.5286 14.6988 14.5901 14.7523 14.5286 14.79C14.4314 14.9605 14.3042 15.1091 14.1955 15.2718C14.122 15.365 14.0446 15.4465 13.9674 15.5415C13.8455 15.6899 13.7128 15.8291 13.5706 15.958C13.4515 16.1186 13.2871 16.2317 13.1363 16.3646C13.0887 16.3983 13.0572 16.4339 12.9975 16.4578C12.9499 16.4837 12.9082 16.5312 12.8469 16.5393C12.6445 16.555 12.4344 16.6046 12.2539 16.7118C12.1923 16.6978 12.1467 16.6739 12.0873 16.6581C11.9842 16.6365 11.8771 16.6344 11.7919 16.684C11.7482 16.684 11.7205 16.6404 11.6829 16.6265C11.5638 16.5809 11.4311 16.555 11.3079 16.5809C11.2188 16.5906 11.1216 16.6065 11.0363 16.6365C10.9828 16.6621 10.9412 16.6065 10.8896 16.6046C10.8099 16.5646 10.7504 16.5112 10.675 16.4656ZM14.8259 14.2345C14.8139 14.2265 14.8237 14.2383 14.8159 14.2443C14.7999 14.2721 14.7822 14.2999 14.7762 14.3355C14.7525 14.3833 14.7328 14.4289 14.7087 14.4724C14.7027 14.502 14.6711 14.5202 14.6571 14.5499C14.6234 14.5202 14.5899 14.4902 14.5837 14.4486C14.5611 14.4004 14.5465 14.3488 14.5402 14.2959C14.5065 14.2383 14.5522 14.173 14.5243 14.1114C14.5502 14.0439 14.5721 13.9746 14.6077 13.9072C14.6215 13.8716 14.6294 13.8279 14.6571 13.8021L14.6593 13.814C14.6731 13.8179 14.6731 13.8377 14.685 13.8497C14.7246 13.9488 14.7981 14.0361 14.8575 14.1252C14.8574 14.1648 14.8296 14.1949 14.8259 14.2345ZM14.7008 12.7272C14.6948 12.8562 14.663 13.0048 14.6452 13.1418C14.6275 13.225 14.6115 13.3024 14.5858 13.3857C14.5699 13.5007 14.5225 13.6059 14.5024 13.7208L14.4568 13.8973C14.4408 13.931 14.4231 13.9687 14.4134 14.0065C14.3874 14.0558 14.3597 14.1214 14.3299 14.169C14.3239 14.1909 14.3102 14.2086 14.3002 14.2265C14.2546 14.31 14.1771 14.3853 14.1556 14.4805C14.1476 14.4962 14.1337 14.5081 14.1316 14.5239C14.1139 14.5359 14.1079 14.5536 14.094 14.5715C14.09 14.5895 14.0703 14.6112 14.0603 14.6252C13.9294 14.7957 13.8245 14.9682 13.6538 15.1051C13.616 15.1526 13.5666 15.1963 13.5289 15.2357C13.5051 15.2519 13.4873 15.2656 13.4695 15.2716C13.3643 15.3806 13.2492 15.46 13.1362 15.5672C12.9874 15.686 12.8408 15.8428 12.6922 15.9697C12.591 16.0569 12.47 16.1203 12.3312 16.1442C12.0476 16.2316 11.7481 16.2137 11.4585 16.1978C11.3238 16.18 11.2345 16.0847 11.1432 15.9976C11.0878 15.932 11.0025 15.8647 10.9469 15.7873C10.8676 15.704 10.7465 15.6247 10.6674 15.5432C10.6337 15.5241 10.6013 15.5029 10.5702 15.4798C10.5324 15.4382 10.4868 15.4165 10.4433 15.3808C10.2847 15.2659 10.1538 15.139 10.0227 14.9902C9.97518 14.9743 9.96727 14.9268 9.93358 14.895C9.91971 14.8553 9.882 14.8334 9.87215 14.786C9.85439 14.7503 9.82264 14.7085 9.80475 14.6669C9.80281 14.6472 9.78699 14.639 9.77896 14.6193C9.7314 14.5281 9.68177 14.4209 9.62824 14.3257C9.59053 14.2603 9.58263 14.185 9.54686 14.1175C9.52509 14.056 9.49139 13.9984 9.47351 13.9371C9.44577 13.8776 9.41998 13.8161 9.40016 13.7547C9.32887 13.4969 9.24153 13.2311 9.21574 12.9535C9.20187 12.9416 9.21781 12.9138 9.19992 12.8979C9.18411 12.7651 9.16817 12.662 9.16428 12.535C9.14445 12.4001 9.15041 12.2157 9.15832 12.0829C9.26148 12.0451 9.36658 11.9976 9.442 11.9044C9.48555 11.8767 9.51341 11.831 9.56097 11.7993C9.59078 11.7893 9.6224 11.7854 9.65415 11.7815C9.64637 11.8231 9.61061 11.8589 9.59078 11.8965C9.54321 11.9877 9.45988 12.067 9.46183 12.1821C9.48567 12.2158 9.50952 12.2416 9.551 12.2455C9.60258 12.2534 9.6443 12.2594 9.69783 12.2515C9.678 12.2634 9.68992 12.2813 9.68992 12.2971C9.71571 12.3229 9.75135 12.307 9.7831 12.307C9.77909 12.321 9.77714 12.3427 9.7831 12.3567C9.9556 12.5609 10.1916 12.6621 10.4713 12.6621C10.4851 12.682 10.5129 12.6641 10.5327 12.6641C10.5466 12.6562 10.5585 12.6601 10.5743 12.6601C10.7945 12.6165 11.0106 12.5311 11.2267 12.4637C11.2723 12.43 11.3497 12.4062 11.3339 12.3369C11.2486 12.21 11.1078 12.1504 10.9928 12.0711C10.9134 12.0453 10.8261 12.0077 10.7448 11.9976C10.5961 11.9739 10.4078 11.9837 10.251 12.0274C10.0943 12.0849 9.95158 12.1642 9.80475 12.2176C9.79283 12.2197 9.77702 12.2276 9.76704 12.2255C9.76108 12.2136 9.78286 12.2057 9.79283 12.1998C9.9039 12.1245 9.89988 12.1264 10.0071 12.051C10.0169 12.045 10.1617 11.9538 10.1776 11.9498C10.3106 11.8843 10.3878 11.8486 10.5801 11.8664C10.6396 11.8903 10.7012 11.9001 10.7547 11.9279C10.7621 11.9291 10.7697 11.9282 10.7767 11.9254C10.7837 11.9226 10.7898 11.918 10.7944 11.9121C10.7984 11.8505 10.7745 11.8286 10.725 11.7871C10.6318 11.7634 10.5644 11.7356 10.4335 11.7435C10.3463 11.7613 10.259 11.7692 10.1777 11.8129C10.1281 11.8287 10.0865 11.8526 10.0488 11.8803C9.96946 11.92 9.9556 11.9557 9.87823 11.9914C9.84648 12.0231 9.7651 12.0728 9.73347 12.1024C9.69187 12.1163 9.63031 12.144 9.59272 12.1381C9.59066 12.1004 9.62837 12.0825 9.63627 12.0428C9.64625 12.031 9.66413 12.0251 9.6561 12.0012C9.68785 11.9634 9.72556 11.9179 9.74928 11.8744C9.8247 11.8089 9.87227 11.7514 9.97737 11.6978C10.136 11.6304 10.3085 11.6364 10.4335 11.6324C10.7152 11.6582 10.8818 11.6978 11.0661 11.6899C11.193 11.6662 11.3279 11.6582 11.429 11.5729C11.4467 11.5552 11.4449 11.5273 11.4548 11.5055C11.4311 11.4757 11.4053 11.4757 11.3774 11.4917C11.2088 11.5749 11.1493 11.555 11.0046 11.565C10.8617 11.571 10.7566 11.5552 10.6517 11.5511C10.5048 11.5334 10.3918 11.4878 10.2451 11.5134C10.1995 11.5055 10.0944 11.5611 10.0547 11.5491C10.0567 11.3945 10.1876 11.2615 10.2749 11.1267C10.3642 11.0613 10.4593 10.9918 10.5664 10.9502C10.632 10.8986 10.7211 10.8669 10.7627 10.7896C10.8262 10.7419 10.8678 10.6687 10.9154 10.6052C10.9312 10.5694 10.9312 10.5357 10.9312 10.4921L10.9372 10.4743C11.0482 10.4068 11.1494 10.3336 11.2565 10.2601C11.2645 10.2501 11.2882 10.2343 11.2902 10.2204C11.3419 10.1788 11.4053 10.1292 11.4409 10.0736C11.4727 10.038 11.4886 10.0836 11.5183 10.0934C11.5341 10.1331 11.5797 10.1371 11.6135 10.1529C11.6729 10.1768 11.7383 10.1846 11.7999 10.2024C11.9901 10.2124 12.2024 10.2342 12.3949 10.2421H12.4108C12.5337 10.2579 12.6705 10.26 12.7954 10.2858C12.9839 10.3214 13.1723 10.3353 13.3606 10.3948C13.5112 10.4344 13.66 10.482 13.8068 10.5395C13.8702 10.5713 13.9494 10.6069 14.001 10.6565C14.1204 10.7324 14.2309 10.8216 14.3303 10.9223C14.3522 10.9541 14.3759 10.9818 14.3978 11.0155C14.4494 11.069 14.4812 11.1266 14.5187 11.1821C14.5424 11.2277 14.584 11.2694 14.5902 11.3229C14.6199 11.3448 14.594 11.3884 14.6237 11.4122C14.6199 11.4399 14.6515 11.444 14.6674 11.4578L14.709 11.4638C14.7149 11.6126 14.7389 11.7791 14.7349 11.9379C14.7568 12.1818 14.7189 12.4157 14.709 12.6617C14.7008 12.6817 14.7008 12.7134 14.7008 12.7272ZM9.1183 11.692C9.152 11.571 9.3841 11.0931 9.51304 11.0791C9.54078 11.0753 9.52691 11.1209 9.5229 11.1327C9.50085 11.2015 9.48362 11.2717 9.47132 11.3429C9.45551 11.4341 9.4555 11.5234 9.46937 11.6145C9.48519 11.7178 9.3206 11.801 9.31269 11.8466C9.27899 11.8685 9.16599 11.9517 9.15808 11.8764L9.1481 11.8486C9.16599 11.7852 9.09652 11.7635 9.1183 11.692ZM8.96563 12.6003C8.95773 12.5984 8.96953 12.5725 8.95773 12.5647C8.93654 12.4997 8.91135 12.4362 8.8823 12.3743C8.86053 12.3764 8.87038 12.3465 8.85262 12.3387C8.85055 12.305 8.87646 12.289 8.88826 12.2613C8.90019 12.2633 8.90213 12.2513 8.91199 12.2494L8.92987 12.2434C8.92987 12.2513 8.9278 12.2612 8.93181 12.2673C8.93778 12.2633 8.93778 12.2594 8.94374 12.2513C8.92987 12.2513 8.93778 12.2434 8.93778 12.2375C8.93778 12.2375 8.93583 12.2355 8.93778 12.2336V12.2375C8.94283 12.2395 8.94816 12.2409 8.95359 12.2415C8.95554 12.2515 8.96551 12.2455 8.97354 12.2515C8.99921 12.2674 8.97938 12.313 8.99531 12.3407C8.98935 12.4518 8.99921 12.5351 9.00918 12.6401C9.02305 12.662 9.0132 12.7096 9.01916 12.7413C9.01916 12.7592 8.99933 12.7533 8.99142 12.7513C8.95773 12.7095 8.98948 12.64 8.96563 12.6003ZM8.92999 11.8666C8.8705 11.8943 8.84666 11.9736 8.77331 11.9736C8.20023 11.9776 8.5333 11.4125 8.807 11.4323C8.87647 11.4382 8.95979 11.4639 9.02719 11.45L9.03911 11.4718C8.98546 11.5651 8.96162 11.8289 8.92999 11.8666ZM9.03899 10.5716C8.96563 10.6767 8.90615 10.7799 8.84265 10.8908C8.84265 10.8869 8.82477 10.8908 8.82477 10.8908C8.82671 10.8531 8.81284 10.7996 8.83863 10.766C8.92196 10.1076 9.88176 10.1235 10.3657 10.1017C10.5025 10.0958 10.6592 10.0541 10.7901 10.0739C10.9726 10.0977 11.1193 10.0065 11.2879 9.9707C11.28 10.0203 11.2323 10.052 11.2045 10.0897L11.1827 10.1075C11.153 10.1254 11.0696 10.183 11.0558 10.2027C10.4509 10.8294 9.47923 9.93493 9.03899 10.5716ZM10.7326 10.5836C10.6155 10.772 10.439 10.8255 10.2686 10.9425C10.0821 10.891 9.88383 11.6326 9.63591 11.6168L9.61413 11.5949C9.57046 11.2161 9.78274 10.6569 10.2111 10.5895C10.3856 10.5618 10.5383 10.6232 10.7227 10.5558L10.7326 10.5836ZM9.1183 10.1591C8.74156 10.415 8.0236 10.764 7.63092 10.3395C7.92835 10.3018 8.04148 10.3137 8.30521 10.1412C8.65616 9.90914 9.20357 9.39153 9.67362 9.61962L9.68749 9.6296C9.84015 9.64347 10.1416 9.84175 10.2904 9.92313C10.0386 10.052 9.52484 9.88153 9.1183 10.1591ZM8.92792 11.2816C8.87829 11.2479 8.93583 11.0872 8.95371 11.0396C9.1402 10.5438 9.29092 10.5141 9.77872 10.4962V10.5022C9.8303 10.5002 9.87993 10.516 9.9275 10.5259C9.91156 10.5517 9.87397 10.5675 9.84611 10.5815C9.77471 10.6192 9.74697 10.6946 9.68153 10.7362C9.45149 10.881 9.32863 11.0654 9.14421 11.2519C9.07074 11.224 8.99544 11.3272 8.92792 11.2816ZM9.86193 12.3047C9.88978 12.2989 9.92531 12.271 9.94319 12.2968V12.3682C9.93528 12.3663 9.92336 12.3663 9.91934 12.3563C9.89668 12.3435 9.87708 12.3259 9.86193 12.3047ZM10.8912 12.3268C10.8952 12.3643 10.8933 12.3961 10.8773 12.4238C10.8673 12.4377 10.8634 12.4456 10.8614 12.4495C10.8336 12.4814 10.8059 12.4932 10.7722 12.5011C10.7366 12.5111 10.6989 12.5188 10.6691 12.5269C10.5222 12.5823 10.316 12.5447 10.1732 12.4971C10.1534 12.4872 10.1336 12.4793 10.1137 12.4693C10.1024 12.4644 10.0922 12.4569 10.0841 12.4476C10.0914 12.43 10.0928 12.4104 10.0881 12.392C10.0802 12.3642 10.0761 12.3365 10.0681 12.3086C10.0681 12.2967 10.0702 12.2869 10.0741 12.2749C10.0781 12.263 10.0841 12.2512 10.0879 12.2412C10.2148 12.17 10.3536 12.1065 10.5084 12.0985C10.5797 12.0951 10.6512 12.1018 10.7206 12.1184C10.7821 12.1322 10.8435 12.1521 10.9031 12.17C10.8905 12.1784 10.8814 12.191 10.8773 12.2056C10.8794 12.2473 10.8873 12.2889 10.8912 12.3268ZM11.0003 12.2691C11.0003 12.2533 10.9943 12.2294 10.9845 12.2097C11.0548 12.2502 11.12 12.2988 11.1789 12.3545C11.175 12.3582 11.1702 12.3609 11.165 12.3624C11.1592 12.3664 11.1532 12.3684 11.1452 12.3724C11.1392 12.3743 11.1313 12.3783 11.1233 12.3823C11.1061 12.3901 11.0882 12.396 11.0698 12.4001L11.0222 12.412C11.0162 12.3903 11.0182 12.3685 11.0182 12.3487C11.0181 12.3226 11.0162 12.2949 11.0003 12.2691ZM12.9357 9.72278C13.4512 9.9707 13.9987 9.81 14.3933 10.29C14.5341 10.4606 14.6373 10.6926 14.6214 10.9226L14.6273 10.9563L14.6293 10.99L14.6115 11.0119C14.5262 10.9524 14.4727 10.8571 14.3953 10.7859C13.8759 10.3079 13.3167 10.2047 12.6287 10.1175C12.4818 10.0998 11.5954 10.0719 11.5775 9.93712C11.5754 9.92715 11.7977 9.5088 11.8234 9.43934C11.8393 9.40163 11.8611 9.36794 11.867 9.32828C11.8809 9.28059 11.9047 9.23911 11.9086 9.18936L11.9383 9.11807C12.1327 9.2132 12.3449 9.64553 12.8149 9.59006C12.8207 9.6594 12.902 9.6712 12.9357 9.72278ZM12.8901 9.3818C13.5624 9.42742 13.6616 9.15566 14.3915 9.47693C14.5223 9.53447 14.6689 9.65733 14.7028 9.80209C14.7364 9.93895 14.7643 10.28 14.6552 10.3871C14.6056 10.2839 14.4887 10.1709 14.4152 10.0797C14.1018 9.6712 12.9576 9.85173 12.8901 9.3818ZM14.2546 8.78671C14.3022 8.83634 14.3578 8.88196 14.3934 8.94339C14.4312 9.00689 14.5739 9.32816 14.5522 9.38959C14.2169 9.25274 13.9432 9.10408 13.5645 9.17938C13.1502 9.26064 12.5315 9.32816 12.3331 8.8423C12.2855 8.72527 12.1962 8.30693 12.1903 8.29294C12.1943 8.21752 12.1922 8.14027 12.2062 8.06485C12.2538 8.12045 12.2834 8.19173 12.3508 8.22749C12.4321 8.31277 12.5411 8.38028 12.6524 8.40997C13.1402 8.54876 13.7529 8.19976 14.1476 8.64803C14.1853 8.69158 14.2149 8.74316 14.2546 8.78671ZM12.2696 7.87654C12.2715 7.84674 12.2339 7.82496 12.2458 7.79723C12.3349 7.60089 12.448 7.46014 12.5036 7.24191C12.6068 6.82746 12.5315 6.79376 12.5036 6.41702C12.7077 6.32372 13.1144 6.74024 13.1361 6.93658C13.1183 7.05555 13.1026 7.17452 13.0985 7.29349C13.0885 7.65247 12.6405 8.27907 12.2696 7.87654ZM14.7761 6.51811C14.8851 6.60144 15.0042 6.65496 15.1132 6.73428L15.0935 6.75009C14.8038 6.87697 14.4289 7.04959 14.1058 6.92271C13.8302 6.97623 13.6556 7.0317 13.4553 7.24191C13.3818 7.2975 13.3264 7.3728 13.2412 7.40857C13.2906 7.09715 13.2728 6.75605 13.3818 6.45668C13.7153 5.56026 14.2902 6.15524 14.7761 6.51811ZM12.5907 5.53253C12.6104 5.49883 12.6204 5.46112 12.6423 5.42937C12.6742 5.44129 12.6939 5.48095 12.7158 5.50674C12.9516 5.75465 13.3464 5.64554 13.5129 5.93907C13.511 5.94114 13.4992 5.96097 13.5051 5.96291C13.3723 6.06412 13.2671 6.23066 13.2392 6.39525L13.1699 6.57382C13.1382 6.58173 13.1223 6.554 13.1026 6.53417C12.9835 6.41313 12.7158 6.26642 12.5433 6.25061C12.4598 6.2427 12.3727 6.26642 12.2893 6.2427C11.7539 6.08578 12.4955 5.68325 12.5907 5.53253ZM12.0255 5.78239L12.0315 5.79626C11.9898 5.91328 11.9462 5.92119 11.9462 6.06996C11.9462 6.21278 12.1821 6.46057 12.3289 6.41897C12.5192 6.67674 12.3132 7.33716 12.1802 7.59298C12.085 7.70405 11.8629 7.65052 11.7816 7.54943C11.7678 7.51574 11.738 7.48995 11.7202 7.45613C11.6568 7.30553 11.5536 7.2222 11.397 7.17853C11.288 7.12902 11.1789 7.1924 11.1035 7.04959C11.0459 6.94838 11.0082 6.82746 10.9329 6.73233C10.7902 6.54986 10.3756 6.54195 10.344 6.44682C10.9308 6.07775 11.2858 5.66536 12.0255 5.78239ZM10.2725 6.67479C10.2823 6.65107 10.3042 6.66287 10.322 6.6709C10.4211 6.71056 10.5104 6.72248 10.6155 6.74827C10.8714 6.80775 10.915 7.11114 11.1133 7.30346C11.1728 7.361 11.27 7.33911 11.3433 7.34701L11.3275 7.38667C11.1649 7.50163 10.8714 7.58106 10.7624 7.33108C10.6871 7.16247 10.3539 7.2379 10.2865 6.90276C10.2744 6.84534 10.2488 6.73221 10.2725 6.67479ZM10.1158 6.5737L10.1178 6.65496C10.1178 6.67272 10.0999 6.67881 10.0921 6.68866C10.0761 6.68075 10.0504 6.66676 10.0286 6.65691C10.0047 6.649 9.98503 6.63501 9.9691 6.62711C10.0128 6.60533 10.0663 6.59341 10.1158 6.5737ZM8.83085 7.02769C8.89629 6.99606 8.89228 6.8929 8.85262 6.84534C8.85858 6.76797 8.85457 6.70642 8.86844 6.62917L8.8705 6.61336C8.92403 6.4388 9.01527 6.38333 9.14616 6.27822C9.19177 6.32177 9.2037 6.38734 9.25321 6.42894C9.42181 6.56969 9.60817 6.61141 9.77677 6.72637C9.82045 6.76213 10.0584 6.86115 10.1159 6.8732C10.1358 6.96431 10.1457 7.06747 10.2051 7.14277C10.3558 7.32122 10.4174 7.3312 10.6077 7.41842C10.7386 7.66232 11.0539 7.77144 11.2898 7.6088C11.3216 7.5869 11.4723 7.46404 11.4842 7.46002C11.5319 7.5116 11.6369 7.52352 11.631 7.61074C11.736 7.80903 11.8987 7.86657 12.1128 7.84273C12.1181 7.86738 12.1154 7.8931 12.105 7.91608C12.103 7.95184 12.0931 7.98359 12.0851 8.01729C12.0176 8.3326 12.1406 8.90774 12.3668 9.14763C12.4956 9.28449 12.6026 9.31015 12.7773 9.36368C12.7596 9.39737 12.797 9.44299 12.7614 9.46087C12.3271 9.39944 12.105 9.03657 12.0573 9.02465C12.0096 8.97502 11.9641 8.91954 11.978 8.84814C12.0434 8.24732 11.1966 8.16399 10.8991 8.56847C10.8574 8.62601 10.6056 8.52881 10.5322 8.50303C10.4687 8.37213 10.1455 8.23929 10.0147 8.16789C10.0286 7.67412 9.32254 6.95823 8.82282 7.29531C8.80299 7.34093 8.72769 7.40431 8.69789 7.46197C8.69789 7.46197 8.46384 7.33704 8.39645 7.32512L8.37856 7.29531C8.53524 7.14678 8.64229 7.11114 8.83085 7.02769ZM10.2567 8.67771C10.4074 8.64998 10.5739 8.67382 10.7148 8.73537C10.7822 8.76311 10.8218 8.89594 10.9052 8.80872C10.935 8.77697 10.9587 8.73926 10.9845 8.70362C11.1114 8.53307 11.514 8.3922 11.6865 8.55095C11.7104 8.57285 11.7798 8.63818 11.7679 8.67589C11.7658 8.68185 11.7579 8.68185 11.752 8.68185L11.746 8.6917C11.6865 8.67394 11.623 8.69571 11.5635 8.71165C10.8873 8.89607 11.2026 9.69723 10.0584 9.24507C9.99696 9.22123 9.73712 9.10226 9.69941 9.06662C9.88176 8.92368 10.0167 8.72333 10.2567 8.67771ZM9.68943 8.86614C9.50903 8.97319 8.97354 8.67175 8.74545 8.63209C8.82075 8.50923 9.09251 8.35644 9.23727 8.37225C9.43361 8.39415 9.79843 8.25535 9.94526 8.32274C10.0622 8.3742 10.1753 8.42979 10.2823 8.5012C9.82434 8.63209 9.94732 8.71335 9.68943 8.86614ZM8.69789 7.84479L8.65823 7.85477C8.50155 7.82107 8.35472 7.75161 8.19622 7.73373C7.80342 7.69006 7.34542 7.73969 6.97853 7.8864C6.80396 7.95573 6.63938 8.0668 6.46481 8.13821C6.61371 7.78932 8.47771 6.97818 8.69789 7.84479ZM8.15267 7.88056C8.26957 7.89041 8.66224 8.03128 8.69789 8.02921L8.70385 8.06485C8.27553 8.80252 7.40101 8.62005 6.6811 8.58051C6.51651 8.57261 6.35582 8.57857 6.19135 8.57857C6.76431 8.06485 7.36731 7.81499 8.15267 7.88056ZM4.57503 10.4585C4.57503 10.1571 4.79314 9.84577 4.9598 9.61172C5.18399 9.3003 5.65185 8.92745 6.00888 8.78671C6.7783 8.48332 8.18831 9.31818 8.80506 8.15816C8.80104 8.05111 8.87647 7.94004 8.85274 7.81706C8.83681 7.71986 8.77939 7.64845 8.76345 7.5633C8.87245 7.55333 8.87659 7.40261 8.99556 7.38679C9.44772 7.32135 9.74709 7.76159 9.86606 8.1404C9.69357 8.1404 9.52898 8.21582 9.36038 8.21971C9.05492 8.22567 8.77538 8.28321 8.58098 8.55886C8.55519 8.57078 8.41834 8.73537 8.41238 8.76311C8.36482 8.7968 8.4243 8.8822 8.48379 8.87016C8.60483 8.84838 8.68207 8.7889 8.81297 8.82052C9.00541 8.8642 9.17195 8.98317 9.36427 9.03085C9.36427 9.07842 9.38604 9.14982 9.43568 9.1716C9.54479 9.21722 9.67374 9.22318 9.78274 9.28862C10.0842 9.47109 10.6732 9.70709 10.9746 9.43338C11.0836 9.33424 11.6865 8.61044 11.8393 8.94947L11.8215 9.01492C11.7044 9.49688 11.3078 9.96693 10.7546 9.89345C10.0585 9.80428 9.77106 9.14386 8.91223 9.52656C8.40654 9.75465 8.17845 10.2663 7.54589 10.1472C7.44079 10.1294 7.31586 10.0897 7.23849 10.0124C7.39322 9.58994 7.54589 9.25286 7.97421 9.0446C8.07141 8.99898 8.23198 8.91565 8.34304 8.93147C8.36883 8.91565 8.36883 8.87393 8.36287 8.84814L8.31336 8.80459C8.10705 8.8204 8.02968 8.89582 7.85925 8.93743C7.78785 9.01285 7.64905 9.02465 7.55781 9.0862C7.53397 9.10408 7.37339 9.17938 7.3476 9.17938C7.05614 9.17938 6.89544 8.99898 6.50082 9.07623C6.3838 9.09995 6.22517 9.12379 6.12201 9.18522C5.85828 9.34385 5.59844 9.47474 5.34262 9.65125C5.09458 9.81998 4.61663 10.4347 4.57503 10.4585ZM5.37814 11.0277C5.31075 11.0336 5.22146 11.0396 5.18776 10.9721C5.13229 10.8986 5.12633 10.7935 5.11842 10.7024C5.17 10.6745 5.18776 10.617 5.23545 10.5833C5.26525 10.5575 5.28496 10.5218 5.30673 10.4882C5.34457 10.4643 5.34055 10.4227 5.37814 10.4049C5.32656 10.5278 5.32255 10.6587 5.32255 10.7856C5.32668 10.873 5.36026 10.9424 5.37814 11.0277ZM5.52095 10.8294C5.43373 10.2721 5.85414 10.3674 5.9354 10.29C6.00888 10.3613 6.03455 10.4566 6.12785 10.522C5.87203 10.3793 5.6083 10.7601 5.79466 10.8115C5.8938 10.8393 5.92555 10.639 6.04051 10.7025C6.19317 10.7877 5.95329 11.0733 5.76486 11.0554C5.65975 11.0456 5.53884 10.9365 5.52095 10.8294ZM5.86607 10.0897C5.75111 10.1175 5.63007 10.1453 5.5448 10.2305C5.52898 10.2226 5.52898 10.2483 5.52691 10.2405C5.57253 10.1652 5.64199 10.0998 5.70148 10.0363C5.755 10.0045 5.79867 9.94503 5.85025 9.90537L5.8522 9.90732C5.85013 9.96875 5.85013 10.0282 5.86607 10.0897ZM5.71328 11.2439C6.12578 11.2914 6.35776 10.8889 6.14756 10.5438C6.30424 10.631 6.60167 10.7382 6.64339 10.9226C6.81783 11.7 5.72325 11.7753 5.71328 11.2439ZM6.74849 12.281C6.4788 12.3584 6.05438 12.0668 6.10401 11.7713C6.73463 11.8764 7.03607 10.9087 6.60969 10.5974C6.45703 10.4864 6.24682 10.4486 6.12785 10.292C5.69552 9.72473 6.47491 9.61378 6.48878 9.56415C6.49668 9.53642 6.48282 9.47888 6.46104 9.461C6.30643 9.33023 5.6201 9.87362 5.48933 9.98651C5.47351 10.0361 5.41597 10.056 5.39809 10.1035C5.15808 10.3118 4.97366 10.764 4.59096 10.7799C4.87659 10.1651 6.10997 9.1042 6.82392 9.22707C7.00833 9.25882 7.22644 9.352 7.40892 9.34799V9.36781C7.33751 9.45114 7.11745 9.89138 7.12134 9.99636C6.97865 10.1114 7.30783 10.2482 7.37522 10.274C7.40101 10.3395 7.46451 10.3731 7.50623 10.4247C7.11149 10.508 7.01441 9.90914 6.79825 10.1372C6.71103 10.2304 6.74667 10.2978 6.71893 10.4089C6.70507 10.5061 6.80019 10.6449 6.84581 10.7222C6.96478 10.8273 7.0104 10.9819 7.09762 11.1089C7.10553 11.3767 7.26221 11.3667 7.10163 11.8129C7.08777 11.8526 7.05796 11.8903 7.05796 11.9338C6.97658 12.045 6.88936 12.2414 6.74849 12.281ZM7.39894 13.0128C7.25223 12.8702 6.925 12.5686 6.99045 12.3227C7.01028 12.2553 7.15504 12.1125 7.19664 11.9896C7.29578 11.702 7.36914 11.4878 7.27401 11.1824C7.18083 10.889 6.96867 10.6927 6.87343 10.417C6.8952 10.3675 6.87939 10.308 6.91515 10.2644L6.93291 10.2426C7.02025 10.3319 7.03996 10.4389 7.15893 10.5123C7.28982 10.5935 7.52983 10.6551 7.6606 10.544C7.94027 10.7087 8.45192 10.7463 8.73548 10.5719H8.7474C8.69582 10.8574 8.65616 10.9586 8.74338 11.2521C8.32297 11.3671 8.15631 12.0196 8.53318 12.1366C8.56687 12.1981 8.64826 12.1802 8.70373 12.2C8.70774 12.2356 8.64826 12.3131 8.63037 12.3428C8.51931 12.5312 8.52916 12.9338 8.20984 12.9417C7.96594 12.9476 8.01958 12.3151 7.69235 12.434C7.32352 12.5669 7.62301 13.015 7.9382 13.0408C7.9719 13.0448 8.0017 13.0329 8.0354 13.0369C8.04331 13.2115 7.85305 13.3601 7.69235 13.261C7.49419 13.2687 7.50003 13.112 7.39894 13.0128ZM7.88091 12.8581C7.87288 12.8702 7.85305 12.866 7.84307 12.8621C7.76571 12.8186 7.72216 12.7391 7.68846 12.6559C7.69844 12.6123 7.72812 12.5944 7.76388 12.5686C7.83334 12.5825 7.81741 12.6717 7.8432 12.7232C7.8511 12.7688 7.86302 12.8144 7.88091 12.8581ZM7.77374 13.7821C7.76645 13.8 7.75783 13.8172 7.74795 13.8337C7.74004 13.8495 7.73602 13.8635 7.72216 13.8674C7.72021 13.8616 7.69235 13.8417 7.69235 13.8179C7.65464 13.7188 7.66669 13.58 7.72021 13.4749C7.72215 13.4545 7.73125 13.4356 7.74588 13.4213C7.83322 13.4095 7.94027 13.4352 8.02554 13.3976C8.09099 13.3599 8.13259 13.3044 8.16641 13.2329C8.16836 13.2131 8.18223 13.2052 8.18819 13.1873C8.20205 13.1853 8.204 13.1675 8.20996 13.1536C8.21203 13.1279 8.20011 13.0922 8.222 13.0802C8.32504 13.0664 8.4361 13.0565 8.50763 12.9811C8.62259 12.8799 8.69205 12.7312 8.73767 12.5905C8.75348 12.5766 8.75555 12.5508 8.76345 12.5289C8.76942 12.517 8.77939 12.5389 8.77939 12.523C8.78328 12.5586 8.80506 12.5765 8.80907 12.6123C8.81698 12.7233 8.80311 12.8046 8.75944 12.8899C8.70385 12.9811 8.59096 13.0506 8.52746 13.1436C8.48184 13.1952 8.41445 13.221 8.36287 13.2567C8.2537 13.3446 8.14194 13.4293 8.02773 13.5105C7.94234 13.5978 7.84721 13.6871 7.77374 13.7821ZM8.07712 14.0302C8.05328 14.0736 8.05146 14.1292 8.02554 14.169C8.02165 14.1867 8.01764 14.2106 8.00778 14.2206C7.98199 14.2283 7.95219 14.2128 7.93236 14.2009C7.92044 14.1771 7.90852 14.1749 7.90463 14.1433C7.87298 14.0866 7.86044 14.0212 7.86886 13.9568C7.92044 13.8061 8.04744 13.7229 8.15254 13.6138C8.26349 13.5305 8.38063 13.4432 8.48561 13.356C8.53318 13.3421 8.55495 13.3025 8.59862 13.2806C8.69193 13.1953 8.7592 13.1239 8.84654 13.0287C8.88218 12.989 8.90992 12.9355 8.93181 12.8918C8.99726 12.8879 9.01514 12.9453 9.04288 12.9851C9.08059 13.0802 9.09239 13.1932 9.03886 13.2825C9.03096 13.2945 9.01307 13.2984 9.01502 13.3122C8.92585 13.4212 8.77915 13.4531 8.65409 13.5224C8.54705 13.5661 8.43197 13.6137 8.35861 13.697C8.24779 13.7981 8.11289 13.8754 8.07712 14.0302ZM8.19415 14.6152C8.18624 14.5895 8.18223 14.5618 8.16641 14.5417C8.16045 14.4645 8.13466 14.3911 8.15254 14.3176C8.15838 14.2561 8.19208 14.2086 8.19609 14.1492C8.20205 14.1432 8.20984 14.1432 8.20984 14.1352C8.22578 14.1135 8.22772 14.0798 8.24354 14.0558C8.3546 13.9033 8.51128 13.7505 8.69181 13.6752C8.79885 13.6356 8.88413 13.578 8.98923 13.5364C9.00115 13.5086 9.03886 13.5126 9.05066 13.4908C9.08436 13.467 9.09628 13.4313 9.12998 13.4134C9.14385 13.4254 9.14981 13.4511 9.16367 13.4729C9.17961 13.5741 9.21525 13.6693 9.24493 13.7664C9.2588 13.8319 9.29651 13.8973 9.26878 13.9687C9.26282 14.0282 9.25491 14.0919 9.21525 14.1335C9.18156 14.191 9.13789 14.2207 9.07645 14.2484C9.0784 14.2662 9.05066 14.2644 9.04276 14.2781C8.81756 14.4294 8.633 14.6337 8.50532 14.8731V14.8908C8.49936 14.9008 8.48951 14.9167 8.48355 14.9287C8.46328 14.9784 8.44863 15.0303 8.43987 15.0833C8.43197 15.0852 8.43197 15.0952 8.42394 15.0952C8.42795 15.103 8.41202 15.0971 8.42199 15.1089C8.39219 15.0833 8.39414 15.0436 8.38039 15C8.35849 14.9346 8.3883 14.8215 8.29706 14.7899C8.24813 14.7416 8.21266 14.6814 8.19415 14.6152ZM11.2998 16.9414C11.2086 16.9492 11.1252 16.999 11.044 17.0327C10.9766 17.0761 10.8894 17.0961 10.8199 17.1417C10.7148 17.1773 10.6236 17.2467 10.5384 17.3042C10.461 17.3361 10.3956 17.3876 10.3123 17.4114C10.3163 17.4191 10.3023 17.4191 10.2965 17.4191C10.2212 17.4528 10.1617 17.4966 10.0843 17.5223C10.0586 17.5427 10.0289 17.5576 9.99708 17.566C9.96922 17.57 9.94355 17.5837 9.91375 17.5897C9.89185 17.6016 9.85816 17.5877 9.83833 17.6037C9.75901 17.6096 9.68761 17.6413 9.61231 17.659C9.59248 17.6671 9.56462 17.689 9.57667 17.7146C9.57861 17.7206 9.58664 17.7246 9.59248 17.7206C9.6381 17.7584 9.70148 17.7684 9.76498 17.7584C9.87409 17.7407 10.003 17.7247 10.0922 17.675C10.235 17.5977 10.3817 17.5343 10.5284 17.4646C10.5542 17.4609 10.58 17.429 10.6077 17.429C10.6255 17.4112 10.6534 17.4033 10.6751 17.3794C10.8199 17.2744 11.0083 17.2128 11.167 17.1237C11.2047 17.1217 11.2343 17.09 11.274 17.0958C11.28 17.1077 11.2561 17.1155 11.2661 17.1336C11.2483 17.1671 11.2305 17.2069 11.2463 17.2346V17.2883C11.161 17.312 11.0796 17.3555 10.9943 17.3695C10.911 17.4032 10.8278 17.4468 10.7485 17.4886C10.7406 17.5083 10.7029 17.5083 10.693 17.5262C10.5641 17.5858 10.4688 17.6671 10.346 17.7286C10.3381 17.7523 10.3103 17.7443 10.3003 17.7583C10.2547 17.782 10.1993 17.8217 10.1535 17.8318C10.0821 17.8752 10.0187 17.8911 9.93747 17.919C9.74502 17.9724 9.54078 17.9743 9.33653 17.9349C9.25527 17.9269 9.17195 17.8734 9.08862 17.8415C8.98948 17.7602 8.85262 17.7146 8.79715 17.5877C8.76346 17.5581 8.73961 17.5105 8.69996 17.4887C8.69789 17.4668 8.67806 17.4609 8.67611 17.4451C8.60483 17.3735 8.60276 17.2526 8.57296 17.1576C8.57697 17.0385 8.52539 16.9118 8.56103 16.7967C8.56699 16.7292 8.57101 16.6479 8.59084 16.5805C8.61261 16.4853 8.62453 16.3861 8.64035 16.2931C8.65422 16.289 8.64229 16.2671 8.65032 16.2572C8.65032 16.2137 8.6721 16.1779 8.66821 16.1343C8.68207 16.1144 8.68207 16.0925 8.68402 16.0668C8.68998 16.0648 8.69789 16.0628 8.69789 16.0568C8.72173 16.0768 8.75543 16.1202 8.79703 16.1105C8.8227 16.1005 8.84265 16.0668 8.84265 16.037C8.84058 16.031 8.83073 16.0211 8.84265 16.0192C8.83267 16.0052 8.84058 15.9756 8.82477 15.9714C8.80494 15.8208 8.63049 15.7296 8.49753 15.6521C8.35277 15.5848 8.2377 15.4599 8.24366 15.2794C8.24366 15.2518 8.24573 15.216 8.25363 15.1844C8.25558 15.1922 8.26945 15.1822 8.26945 15.1963C8.28331 15.2519 8.33282 15.3291 8.38842 15.3825C8.43197 15.4104 8.45386 15.4541 8.50544 15.4678C8.59473 15.5431 8.71966 15.5671 8.77915 15.6781C8.82671 15.7397 8.85846 15.8031 8.8862 15.8744C8.90809 15.9656 8.90992 16.0468 8.91989 16.1343C8.92585 16.2215 8.93972 16.3206 8.91989 16.4158C8.91989 16.4377 8.92184 16.4574 8.91783 16.4811C8.88814 16.4933 8.92184 16.5208 8.91989 16.5427C8.91393 16.5923 8.91783 16.6539 8.90797 16.7033C8.9278 16.872 8.8643 17.0544 8.92975 17.211C8.92573 17.2526 8.96344 17.2744 8.95347 17.3219C8.97926 17.3676 8.98911 17.4212 9.03874 17.4528C9.04872 17.4706 9.04872 17.4985 9.07645 17.4925C9.10017 17.5084 9.10614 17.5362 9.13789 17.5362C9.20735 17.544 9.27681 17.5718 9.34821 17.5699C9.60404 17.5242 9.82616 17.3774 10.062 17.2802C10.2326 17.1752 10.4031 17.0681 10.5837 16.9888C10.7245 16.8956 10.887 16.8519 11.0418 16.7806C11.123 16.7487 11.2083 16.741 11.2916 16.7131C11.3789 16.7191 11.484 16.6872 11.5673 16.735C11.6189 16.745 11.6624 16.7726 11.7161 16.7904C11.7121 16.85 11.728 16.9194 11.7338 16.9709C11.5793 16.9989 11.4544 16.9058 11.2998 16.9414ZM11.5893 17.5245C11.5516 17.5045 11.514 17.4729 11.4922 17.4352C11.4366 17.3763 11.4029 17.2999 11.397 17.219C11.5081 17.1318 11.6667 17.1437 11.8076 17.1597C11.8393 17.2013 11.8432 17.2569 11.8849 17.2906C11.8909 17.3065 11.9086 17.3222 11.9186 17.3362C11.9622 17.3996 12.0178 17.4493 12.0753 17.5047C11.9343 17.5898 11.7301 17.5859 11.5893 17.5245ZM12.8148 17.3735C12.7951 17.3954 12.7851 17.4213 12.7772 17.4491C12.7335 17.4985 12.674 17.5323 12.6045 17.5284C12.3904 17.5222 12.2019 17.4272 12.0612 17.2724C11.9839 17.2009 11.9363 17.1218 11.9045 17.0184C11.8847 16.9591 11.841 16.8838 11.8827 16.8262C11.964 16.8063 12.0473 16.8085 12.1208 16.8459C12.1405 16.84 12.1386 16.8619 12.1584 16.8579C12.2974 16.9194 12.3767 17.0979 12.5174 17.1653C12.5293 17.1812 12.5433 17.1912 12.561 17.2009C12.6463 17.2446 12.7355 17.2902 12.8267 17.324C12.8347 17.3361 12.813 17.3558 12.8148 17.3735ZM15.5813 15.6343C15.5119 15.7236 15.4881 15.8208 15.4464 15.922C15.4386 16.0011 15.393 16.0746 15.4247 16.1599C15.4425 16.3542 15.4107 16.5267 15.4088 16.7292C15.3929 16.8698 15.3532 16.9989 15.3235 17.1297C15.2798 17.2288 15.2579 17.3359 15.1847 17.4212C15.1528 17.5343 15.0676 17.6134 14.9785 17.6909C14.9249 17.7346 14.8594 17.7602 14.808 17.8018C14.6631 17.8694 14.4827 17.9108 14.3081 17.8831C14.1594 17.8911 14.0187 17.8397 13.8619 17.8218C13.745 17.7762 13.6161 17.7265 13.505 17.673C13.4315 17.6214 13.3425 17.5699 13.2869 17.5065C13.1797 17.423 13.0945 17.2981 12.9616 17.2465C12.8585 17.1672 12.7732 17.0999 12.6542 17.0603C12.6365 17.0503 12.6264 17.0324 12.6164 17.0284C12.6204 17.0147 12.6483 17.0265 12.67 17.0265C12.7037 17.0065 12.7413 17.0442 12.7832 17.0362C12.7929 17.0542 12.8029 17.0424 12.8148 17.0502C12.902 17.0759 12.9754 17.1077 13.0548 17.1514C13.0726 17.1592 13.0885 17.193 13.1144 17.1948C13.15 17.2464 13.2076 17.2801 13.267 17.312C13.3285 17.3654 13.3901 17.4032 13.4575 17.4448C13.5208 17.4982 13.6062 17.542 13.6715 17.5876C13.7212 17.5976 13.7528 17.6373 13.8065 17.6452C14.0124 17.7286 14.2387 17.798 14.4786 17.782C14.5441 17.788 14.6154 17.7898 14.677 17.7583C14.7264 17.7027 14.8138 17.6828 14.8138 17.6015C14.7602 17.5581 14.7107 17.6294 14.6511 17.6115C14.4826 17.6412 14.316 17.6234 14.1592 17.5858C14.0939 17.5836 14.0343 17.5521 13.969 17.5362C13.9134 17.5083 13.8459 17.4925 13.7846 17.4569C13.6791 17.4024 13.5782 17.3394 13.483 17.2684C13.4117 17.2168 13.3362 17.1752 13.2727 17.1197C13.2133 17.0721 13.1518 17.0165 13.0842 16.9908C12.9574 16.9212 12.8105 16.8697 12.6599 16.8756C12.5846 16.8756 12.5131 16.8697 12.4518 16.9035C12.4239 16.8897 12.3943 16.8678 12.3803 16.8441C12.3803 16.8441 12.3743 16.8341 12.3803 16.8282C12.4458 16.8025 12.5112 16.7726 12.5827 16.7648C12.6421 16.7292 12.7215 16.7311 12.7849 16.7132C12.9496 16.6933 13.0923 16.7469 13.243 16.7845C13.4117 16.8501 13.5801 16.9273 13.7388 17.0029C13.9945 17.1138 14.2107 17.2963 14.4984 17.3438C14.4962 17.3519 14.5022 17.3558 14.5062 17.3578C14.5281 17.3578 14.5458 17.3578 14.5637 17.3598C14.5956 17.3617 14.6193 17.3795 14.6472 17.3598C14.6728 17.3676 14.7085 17.3498 14.7344 17.342C14.7878 17.3301 14.8572 17.3301 14.8869 17.2727C14.9168 17.1914 14.9744 17.1239 15.0119 17.0465C15.0338 17.0149 15.0178 16.9593 15.0555 16.9296C15.1131 16.7372 15.1171 16.5191 15.1348 16.3109C15.1211 16.2751 15.1289 16.2294 15.1348 16.186C15.1448 16.1404 15.1389 16.0967 15.1389 16.0492C15.1545 16.0135 15.1605 15.9757 15.1705 15.9402C15.1882 15.8093 15.2577 15.6983 15.3133 15.583C15.3549 15.488 15.3767 15.3848 15.4085 15.2876C15.4105 15.2657 15.4105 15.2498 15.4362 15.2358C15.468 15.1905 15.5037 15.1289 15.5553 15.1089C15.6268 15.0417 15.6883 14.9901 15.7555 14.9267C15.7614 14.9445 15.7695 14.9701 15.7695 14.988C15.8135 15.2357 15.7041 15.4441 15.5813 15.6343ZM15.752 14.6489C15.7123 14.7005 15.6785 14.768 15.6388 14.8176C15.5952 14.8511 15.5495 14.8869 15.5079 14.9245C15.498 14.9086 15.5119 14.8929 15.5039 14.867C15.4961 14.8036 15.4723 14.7421 15.4583 14.6767C15.4107 14.5102 15.278 14.3833 15.1708 14.2562C15.0262 14.1037 14.8812 13.943 14.7962 13.7486C14.7543 13.6752 14.7366 13.5899 14.7246 13.4968C14.7643 13.3202 14.8059 13.1437 14.8318 12.9593C14.8416 12.882 14.8655 12.8026 14.8597 12.7253C14.8575 12.7213 14.8734 12.7153 14.8597 12.7134C14.8675 12.7134 14.8734 12.7054 14.8675 12.6974L14.8734 12.7053V12.7231C14.8774 12.7826 14.8953 12.8282 14.9031 12.8798C14.925 12.9352 14.9091 12.977 14.9447 13.0284C14.9469 13.074 14.9706 13.1117 14.9825 13.1553C15.0182 13.2565 15.1035 13.3477 15.1788 13.429C15.2284 13.4825 15.278 13.5401 15.3375 13.5797C15.4387 13.6966 15.5656 13.8098 15.6687 13.9387C15.7381 14.0161 15.7878 14.1052 15.8234 14.2024C15.8888 14.3473 15.861 14.5417 15.752 14.6489ZM15.752 12.5428C15.7439 12.5725 15.7736 12.63 15.7241 12.63C15.5832 12.63 15.4285 12.4972 15.3155 12.4198C15.2382 12.4635 15.1549 12.7054 15.1609 12.7946C15.1609 12.87 15.1233 12.9532 15.1312 13.0366C15.1234 13.0405 15.1274 13.0524 15.1193 13.0564C14.9446 12.8164 15.1452 12.2314 14.9687 12.0052C15.0856 11.7554 15.1274 11.8426 15.2244 11.7276C15.5337 11.7276 15.7024 11.8724 15.8471 12.1263C15.7955 12.1819 15.7837 12.2672 15.7142 12.3047C15.6982 12.3782 15.7161 12.4774 15.752 12.5428ZM15.9442 14.0798C15.9404 14.0758 15.9304 14.0758 15.9245 14.0736C15.8651 13.8992 15.5495 13.5938 15.4107 13.451C15.403 13.3797 15.2542 13.1259 15.3058 13.0722C15.5495 13.3519 16.0394 13.6335 15.9442 14.0798ZM15.9404 13.5045C15.8511 13.3024 15.5239 13.1615 15.3711 12.8522C15.3751 12.8025 15.3514 12.7748 15.3711 12.7253C15.3888 12.6797 15.3274 12.6817 15.3492 12.64C15.4484 12.6598 15.5239 12.7451 15.6248 12.7709C15.7023 12.7927 15.7776 12.7788 15.8569 12.7907C15.9541 12.7273 15.8906 12.6163 15.9185 12.5349C16.2754 12.6003 16.2041 13.0901 16.2595 13.338C16.2873 13.4629 16.3587 13.5284 16.3985 13.6335C16.2615 13.6652 15.9998 13.6414 15.9404 13.5045ZM16.9141 12.3842C16.8724 12.6082 16.7396 12.7827 16.6979 12.989C16.6682 13.1992 16.4838 13.3619 16.5989 13.5879C16.3945 13.564 16.3986 12.9969 16.3708 12.8522C16.353 12.7609 16.3232 12.6776 16.2676 12.6023C16.226 12.5447 16.0851 12.4396 16.0158 12.4158C15.9583 12.394 15.9086 12.4019 15.867 12.3642C15.8949 12.2928 15.9502 12.2353 15.9839 12.1659C16.1049 11.914 15.8908 11.8366 16.216 11.6364C16.6065 11.5174 16.9953 11.9875 16.9141 12.3842ZM16.1703 11.4898C16.1107 11.5374 16.0553 11.5354 16.0097 11.6048C15.9838 11.6425 15.9561 11.6901 15.9245 11.7197C15.9304 11.7396 15.9185 11.7574 15.9007 11.7634L15.8788 11.7991L15.8551 11.8426C15.8232 11.8387 15.7816 11.801 15.7599 11.7792C15.6965 11.6702 15.2999 11.5511 15.1828 11.579C15.1115 11.5969 14.9746 11.7357 14.9131 11.7813L14.8912 11.7734L14.8852 11.7377L14.8833 11.7556C14.8614 11.5176 14.8336 10.9287 14.7683 10.7243C14.784 10.7085 14.798 10.6846 14.798 10.6609C14.8377 10.6708 14.8655 10.7086 14.9089 10.7065C15.1392 10.8513 15.5398 10.782 15.6904 10.5499C15.7201 10.5578 15.7617 10.5737 15.7757 10.6055C15.8807 10.6728 15.9263 10.7997 15.9838 10.9069C15.9741 10.9545 16.0157 10.9902 16.0117 11.0358L16.0553 11.0735C16.1366 11.0478 16.1426 10.9467 16.1982 10.8911C16.2357 10.7087 16.2198 10.6096 16.1603 10.433C16.2675 10.425 16.4796 10.5837 16.4756 10.6947C16.4679 10.891 16.6661 11.4364 16.8724 11.4801C16.8922 11.5059 16.9318 11.494 16.9457 11.5257C16.9975 11.5496 17.0588 11.5416 17.1144 11.5594C17.1581 11.5396 17.2097 11.5634 17.2532 11.5376C16.9597 11.9994 16.5531 11.3074 16.1703 11.4898ZM18.0443 10.9127C17.9373 10.9464 17.8837 10.7382 17.7529 10.7224C17.6836 10.7144 17.5405 10.7779 17.5168 10.8453C17.4792 10.9543 17.5208 11.1508 17.4455 11.244C17.2075 11.5335 16.8268 11.4482 16.7019 11.1051C16.6541 10.9742 16.6085 10.9445 16.6066 10.7936C16.8744 10.8433 16.924 10.9028 17.1919 10.748C17.41 10.6211 17.7747 10.2006 18.0424 10.3653C18.0861 10.3594 18.1933 10.5855 18.2149 10.6271C18.1851 10.7362 18.2407 10.8908 18.0443 10.9127ZM19.2897 11.0812C19.0716 11.0534 19.1409 10.9801 18.8911 11.0038L18.8457 11.0098C18.5223 10.9979 18.0186 10.0163 17.8837 9.75052C17.7728 9.5324 17.4594 9.43314 17.3821 9.34786C17.4315 9.32804 17.7052 9.11978 17.6934 9.08608C17.3781 8.90361 17.386 8.77466 17.156 8.59426C17.6022 8.67357 18.0921 9.36769 18.3062 9.75635C18.3936 9.91109 18.5958 10.1232 18.6552 10.272C18.7801 10.3633 18.8813 10.51 19.0024 10.6151C19.1333 10.7123 19.2601 10.8174 19.387 10.9165C19.4702 10.984 19.369 11.0912 19.2897 11.0812ZM19.4781 10.8175C19.4444 10.8096 19.2184 10.6073 19.1847 10.5696C19.1588 10.5398 19.1094 10.5497 19.0895 10.512C19.0578 10.5021 19.0361 10.4743 19.0063 10.4585C18.9784 10.4129 18.9248 10.3911 18.901 10.3395C18.7266 10.2344 18.6869 10.0202 18.5401 9.91121C18.5301 9.88749 18.3557 9.60381 18.3379 9.58398C18.328 9.52644 18.2507 9.51257 18.2586 9.44713C18.1971 9.3975 18.203 9.28461 18.114 9.26271C17.8462 8.89984 17.5982 8.63015 17.152 8.5012C17.0291 8.46544 16.9379 8.43977 16.817 8.38612C16.573 8.30681 16.3708 8.27506 16.1168 8.27104C15.7242 8.26314 15.2722 8.13225 14.9547 8.15609C14.7366 8.17202 14.1675 8.39415 14.0901 8.38807C14.0268 8.42176 13.9792 8.35839 13.9236 8.33649C13.6439 8.23333 12.5175 8.42578 12.4422 8.10646C12.4978 8.13419 12.5671 8.12823 12.6266 8.12641C13.0075 8.1185 13.3665 7.80903 13.7549 7.73373C14.0922 7.67023 14.2786 7.98554 14.7782 7.67619C15.9543 8.749 17.1679 7.5869 18.8755 9.41538C19.2364 9.79808 19.4564 10.2185 19.4922 10.754L19.4781 10.8175Z" fill="white"/>
</g>
<defs>
<linearGradient id="paint0_linear_65_13" x1="12" y1="0" x2="12" y2="24" gradientUnits="userSpaceOnUse">
<stop stop-color="#00BFFF"/>
<stop offset="1" stop-color="#621ADD"/>
</linearGradient>
<clipPath id="clip0_65_13">
<rect width="24" height="24" fill="white"/>
</clipPath>
</defs>
</svg>
